M48
; DRILL file {KiCad 5.1.7-a382d34a8~88~ubuntu18.04.1} date Sat Apr 24 17:29:27 2021
; FORMAT={-:-/ absolute / inch / decimal}
; #@! TF.CreationDate,2021-04-24T17:29:27+03:00
; #@! TF.GenerationSoftware,Kicad,Pcbnew,5.1.7-a382d34a8~88~ubuntu18.04.1
FMAT,2
INCH
T1C0.0157
T2C0.0354
T3C0.0394
%
G90
G05
T1
X1.2Y-2.85
X1.5Y-2.85
X1.6Y-2.65
X1.6443Y-2.1057
X1.7Y-2.35
X1.75Y-1.75
X2.7Y-1.95
T2
X2.1Y-2.1
X2.1Y-2.5
T3
X1.4Y-1.85
X1.4Y-2.75
X1.5Y-1.85
X1.5Y-2.75
X1.6Y-1.85
X1.6Y-2.75
X1.7Y-1.85
X1.7Y-2.75
X1.8Y-1.85
X1.8Y-2.75
X1.9Y-1.85
X1.9Y-2.75
X2.0Y-1.85
X2.0Y-2.75
X2.1Y-1.85
X2.1Y-2.75
X1.85Y-3.5
X1.95Y-3.5
X1.15Y-3.45
X1.15Y-3.55
X1.9Y-1.15
X2.0Y-1.15
X2.7Y-3.45
X2.7Y-3.55
X1.7622Y-3.1
X1.9Y-3.1
X1.4Y-1.95
X1.4Y-2.05
X1.4Y-2.15
X1.4Y-2.25
X1.15Y-1.15
X1.15Y-1.25
X2.65Y-1.15
X2.65Y-1.25
T0
M30
