%TF.GenerationSoftware,KiCad,Pcbnew,5.1.7-a382d34a8~88~ubuntu18.04.1*%
%TF.CreationDate,2021-04-24T17:29:33+03:00*%
%TF.ProjectId,quadimodo_pcb,71756164-696d-46f6-946f-5f7063622e6b,rev?*%
%TF.SameCoordinates,Original*%
%TF.FileFunction,Legend,Top*%
%TF.FilePolarity,Positive*%
%FSLAX46Y46*%
G04 Gerber Fmt 4.6, Leading zero omitted, Abs format (unit mm)*
G04 Created by KiCad (PCBNEW 5.1.7-a382d34a8~88~ubuntu18.04.1) date 2021-04-24 17:29:33*
%MOMM*%
%LPD*%
G01*
G04 APERTURE LIST*
%ADD10C,0.200000*%
%ADD11C,0.120000*%
%ADD12C,0.127000*%
%ADD13C,0.150000*%
%ADD14C,0.254000*%
%ADD15C,0.015000*%
G04 APERTURE END LIST*
D10*
%TO.C,D5*%
X38142000Y-34270000D02*
X38142000Y-28925000D01*
X35518000Y-29230000D02*
X35518000Y-34270000D01*
%TO.C,D4*%
X35518000Y-83840000D02*
X35518000Y-89185000D01*
X38142000Y-88880000D02*
X38142000Y-83840000D01*
%TO.C,D3*%
X61002000Y-35540000D02*
X61002000Y-30195000D01*
X58378000Y-30500000D02*
X58378000Y-35540000D01*
%TO.C,D2*%
X58378000Y-85110000D02*
X58378000Y-90455000D01*
X61002000Y-90150000D02*
X61002000Y-85110000D01*
D11*
%TO.C,C1*%
X51489646Y-82115000D02*
X51489646Y-81115000D01*
X51989646Y-81615000D02*
X50989646Y-81615000D01*
X41429000Y-79339000D02*
X41429000Y-78141000D01*
X41469000Y-79602000D02*
X41469000Y-77878000D01*
X41509000Y-79802000D02*
X41509000Y-77678000D01*
X41549000Y-79970000D02*
X41549000Y-77510000D01*
X41589000Y-80118000D02*
X41589000Y-77362000D01*
X41629000Y-80250000D02*
X41629000Y-77230000D01*
X41669000Y-80370000D02*
X41669000Y-77110000D01*
X41709000Y-80482000D02*
X41709000Y-76998000D01*
X41749000Y-80586000D02*
X41749000Y-76894000D01*
X41789000Y-80684000D02*
X41789000Y-76796000D01*
X41829000Y-80777000D02*
X41829000Y-76703000D01*
X41869000Y-80865000D02*
X41869000Y-76615000D01*
X41909000Y-80949000D02*
X41909000Y-76531000D01*
X41949000Y-81029000D02*
X41949000Y-76451000D01*
X41989000Y-81105000D02*
X41989000Y-76375000D01*
X42029000Y-81179000D02*
X42029000Y-76301000D01*
X42069000Y-81250000D02*
X42069000Y-76230000D01*
X42109000Y-81319000D02*
X42109000Y-76161000D01*
X42149000Y-81385000D02*
X42149000Y-76095000D01*
X42189000Y-81449000D02*
X42189000Y-76031000D01*
X42229000Y-81510000D02*
X42229000Y-75970000D01*
X42269000Y-81570000D02*
X42269000Y-75910000D01*
X42309000Y-81629000D02*
X42309000Y-75851000D01*
X42349000Y-81685000D02*
X42349000Y-75795000D01*
X42389000Y-81740000D02*
X42389000Y-75740000D01*
X42429000Y-81794000D02*
X42429000Y-75686000D01*
X42469000Y-81846000D02*
X42469000Y-75634000D01*
X42509000Y-81896000D02*
X42509000Y-75584000D01*
X42549000Y-81946000D02*
X42549000Y-75534000D01*
X42589000Y-81994000D02*
X42589000Y-75486000D01*
X42629000Y-82041000D02*
X42629000Y-75439000D01*
X42669000Y-82087000D02*
X42669000Y-75393000D01*
X42709000Y-82132000D02*
X42709000Y-75348000D01*
X42749000Y-82176000D02*
X42749000Y-75304000D01*
X42789000Y-82218000D02*
X42789000Y-75262000D01*
X42829000Y-82260000D02*
X42829000Y-75220000D01*
X42869000Y-82301000D02*
X42869000Y-75179000D01*
X42909000Y-82341000D02*
X42909000Y-75139000D01*
X42949000Y-82380000D02*
X42949000Y-75100000D01*
X42989000Y-82419000D02*
X42989000Y-75061000D01*
X43029000Y-82456000D02*
X43029000Y-75024000D01*
X43069000Y-82493000D02*
X43069000Y-74987000D01*
X43109000Y-82529000D02*
X43109000Y-74951000D01*
X43149000Y-82564000D02*
X43149000Y-74916000D01*
X43189000Y-82598000D02*
X43189000Y-74882000D01*
X43229000Y-82632000D02*
X43229000Y-74848000D01*
X43269000Y-82665000D02*
X43269000Y-74815000D01*
X43309000Y-82697000D02*
X43309000Y-74783000D01*
X43349000Y-82729000D02*
X43349000Y-74751000D01*
X43389000Y-82760000D02*
X43389000Y-74720000D01*
X43429000Y-82790000D02*
X43429000Y-74690000D01*
X43469000Y-82820000D02*
X43469000Y-74660000D01*
X43509000Y-82850000D02*
X43509000Y-74630000D01*
X43549000Y-77499000D02*
X43549000Y-74602000D01*
X43549000Y-82878000D02*
X43549000Y-79981000D01*
X43589000Y-77499000D02*
X43589000Y-74574000D01*
X43589000Y-82906000D02*
X43589000Y-79981000D01*
X43629000Y-77499000D02*
X43629000Y-74546000D01*
X43629000Y-82934000D02*
X43629000Y-79981000D01*
X43669000Y-77499000D02*
X43669000Y-74519000D01*
X43669000Y-82961000D02*
X43669000Y-79981000D01*
X43709000Y-77499000D02*
X43709000Y-74493000D01*
X43709000Y-82987000D02*
X43709000Y-79981000D01*
X43749000Y-77499000D02*
X43749000Y-74467000D01*
X43749000Y-83013000D02*
X43749000Y-79981000D01*
X43789000Y-77499000D02*
X43789000Y-74442000D01*
X43789000Y-83038000D02*
X43789000Y-79981000D01*
X43829000Y-77499000D02*
X43829000Y-74417000D01*
X43829000Y-83063000D02*
X43829000Y-79981000D01*
X43869000Y-77499000D02*
X43869000Y-74393000D01*
X43869000Y-83087000D02*
X43869000Y-79981000D01*
X43909000Y-77499000D02*
X43909000Y-74369000D01*
X43909000Y-83111000D02*
X43909000Y-79981000D01*
X43949000Y-77499000D02*
X43949000Y-74345000D01*
X43949000Y-83135000D02*
X43949000Y-79981000D01*
X43989000Y-77499000D02*
X43989000Y-74323000D01*
X43989000Y-83157000D02*
X43989000Y-79981000D01*
X44029000Y-77499000D02*
X44029000Y-74300000D01*
X44029000Y-83180000D02*
X44029000Y-79981000D01*
X44069000Y-77499000D02*
X44069000Y-74278000D01*
X44069000Y-83202000D02*
X44069000Y-79981000D01*
X44109000Y-77499000D02*
X44109000Y-74257000D01*
X44109000Y-83223000D02*
X44109000Y-79981000D01*
X44149000Y-77499000D02*
X44149000Y-74236000D01*
X44149000Y-83244000D02*
X44149000Y-79981000D01*
X44189000Y-77499000D02*
X44189000Y-74215000D01*
X44189000Y-83265000D02*
X44189000Y-79981000D01*
X44229000Y-77499000D02*
X44229000Y-74195000D01*
X44229000Y-83285000D02*
X44229000Y-79981000D01*
X44269000Y-77499000D02*
X44269000Y-74176000D01*
X44269000Y-83304000D02*
X44269000Y-79981000D01*
X44309000Y-77499000D02*
X44309000Y-74156000D01*
X44309000Y-83324000D02*
X44309000Y-79981000D01*
X44349000Y-77499000D02*
X44349000Y-74137000D01*
X44349000Y-83343000D02*
X44349000Y-79981000D01*
X44389000Y-77499000D02*
X44389000Y-74119000D01*
X44389000Y-83361000D02*
X44389000Y-79981000D01*
X44429000Y-77499000D02*
X44429000Y-74101000D01*
X44429000Y-83379000D02*
X44429000Y-79981000D01*
X44469000Y-77499000D02*
X44469000Y-74083000D01*
X44469000Y-83397000D02*
X44469000Y-79981000D01*
X44509000Y-77499000D02*
X44509000Y-74066000D01*
X44509000Y-83414000D02*
X44509000Y-79981000D01*
X44549000Y-77499000D02*
X44549000Y-74050000D01*
X44549000Y-83430000D02*
X44549000Y-79981000D01*
X44589000Y-77499000D02*
X44589000Y-74033000D01*
X44589000Y-83447000D02*
X44589000Y-79981000D01*
X44629000Y-77499000D02*
X44629000Y-74017000D01*
X44629000Y-83463000D02*
X44629000Y-79981000D01*
X44669000Y-77499000D02*
X44669000Y-74002000D01*
X44669000Y-83478000D02*
X44669000Y-79981000D01*
X44709000Y-77499000D02*
X44709000Y-73986000D01*
X44709000Y-83494000D02*
X44709000Y-79981000D01*
X44749000Y-77499000D02*
X44749000Y-73972000D01*
X44749000Y-83508000D02*
X44749000Y-79981000D01*
X44789000Y-77499000D02*
X44789000Y-73957000D01*
X44789000Y-83523000D02*
X44789000Y-79981000D01*
X44829000Y-77499000D02*
X44829000Y-73943000D01*
X44829000Y-83537000D02*
X44829000Y-79981000D01*
X44869000Y-77499000D02*
X44869000Y-73929000D01*
X44869000Y-83551000D02*
X44869000Y-79981000D01*
X44909000Y-77499000D02*
X44909000Y-73916000D01*
X44909000Y-83564000D02*
X44909000Y-79981000D01*
X44949000Y-77499000D02*
X44949000Y-73903000D01*
X44949000Y-83577000D02*
X44949000Y-79981000D01*
X44989000Y-77499000D02*
X44989000Y-73890000D01*
X44989000Y-83590000D02*
X44989000Y-79981000D01*
X45029000Y-77499000D02*
X45029000Y-73878000D01*
X45029000Y-83602000D02*
X45029000Y-79981000D01*
X45069000Y-77499000D02*
X45069000Y-73866000D01*
X45069000Y-83614000D02*
X45069000Y-79981000D01*
X45109000Y-77499000D02*
X45109000Y-73855000D01*
X45109000Y-83625000D02*
X45109000Y-79981000D01*
X45149000Y-77499000D02*
X45149000Y-73843000D01*
X45149000Y-83637000D02*
X45149000Y-79981000D01*
X45189000Y-77499000D02*
X45189000Y-73833000D01*
X45189000Y-83647000D02*
X45189000Y-79981000D01*
X45229000Y-77499000D02*
X45229000Y-73822000D01*
X45229000Y-83658000D02*
X45229000Y-79981000D01*
X45269000Y-77499000D02*
X45269000Y-73812000D01*
X45269000Y-83668000D02*
X45269000Y-79981000D01*
X45309000Y-77499000D02*
X45309000Y-73802000D01*
X45309000Y-83678000D02*
X45309000Y-79981000D01*
X45349000Y-77499000D02*
X45349000Y-73793000D01*
X45349000Y-83687000D02*
X45349000Y-79981000D01*
X45389000Y-77499000D02*
X45389000Y-73784000D01*
X45389000Y-83696000D02*
X45389000Y-79981000D01*
X45429000Y-77499000D02*
X45429000Y-73775000D01*
X45429000Y-83705000D02*
X45429000Y-79981000D01*
X45469000Y-77499000D02*
X45469000Y-73766000D01*
X45469000Y-83714000D02*
X45469000Y-79981000D01*
X45509000Y-77499000D02*
X45509000Y-73758000D01*
X45509000Y-83722000D02*
X45509000Y-79981000D01*
X45549000Y-77499000D02*
X45549000Y-73750000D01*
X45549000Y-83730000D02*
X45549000Y-79981000D01*
X45589000Y-77499000D02*
X45589000Y-73743000D01*
X45589000Y-83737000D02*
X45589000Y-79981000D01*
X45629000Y-77499000D02*
X45629000Y-73736000D01*
X45629000Y-83744000D02*
X45629000Y-79981000D01*
X45669000Y-77499000D02*
X45669000Y-73729000D01*
X45669000Y-83751000D02*
X45669000Y-79981000D01*
X45709000Y-77499000D02*
X45709000Y-73722000D01*
X45709000Y-83758000D02*
X45709000Y-79981000D01*
X45749000Y-77499000D02*
X45749000Y-73716000D01*
X45749000Y-83764000D02*
X45749000Y-79981000D01*
X45789000Y-77499000D02*
X45789000Y-73710000D01*
X45789000Y-83770000D02*
X45789000Y-79981000D01*
X45830000Y-77499000D02*
X45830000Y-73705000D01*
X45830000Y-83775000D02*
X45830000Y-79981000D01*
X45870000Y-77499000D02*
X45870000Y-73700000D01*
X45870000Y-83780000D02*
X45870000Y-79981000D01*
X45910000Y-77499000D02*
X45910000Y-73695000D01*
X45910000Y-83785000D02*
X45910000Y-79981000D01*
X45950000Y-77499000D02*
X45950000Y-73690000D01*
X45950000Y-83790000D02*
X45950000Y-79981000D01*
X45990000Y-77499000D02*
X45990000Y-73686000D01*
X45990000Y-83794000D02*
X45990000Y-79981000D01*
X46030000Y-83798000D02*
X46030000Y-73682000D01*
X46070000Y-83802000D02*
X46070000Y-73678000D01*
X46110000Y-83805000D02*
X46110000Y-73675000D01*
X46150000Y-83808000D02*
X46150000Y-73672000D01*
X46190000Y-83810000D02*
X46190000Y-73670000D01*
X46230000Y-83813000D02*
X46230000Y-73667000D01*
X46270000Y-83815000D02*
X46270000Y-73665000D01*
X46310000Y-83817000D02*
X46310000Y-73663000D01*
X46350000Y-83818000D02*
X46350000Y-73662000D01*
X46390000Y-83819000D02*
X46390000Y-73661000D01*
X46430000Y-83820000D02*
X46430000Y-73660000D01*
X46470000Y-83820000D02*
X46470000Y-73660000D01*
X46510000Y-83820000D02*
X46510000Y-73660000D01*
X51630000Y-78740000D02*
G75*
G03*
X51630000Y-78740000I-5120000J0D01*
G01*
D10*
%TO.C,Q4*%
X32440000Y-39140000D02*
X33640000Y-39140000D01*
X33990000Y-42115000D02*
X33990000Y-39165000D01*
X34590000Y-42115000D02*
X33990000Y-42115000D01*
X34590000Y-39165000D02*
X34590000Y-42115000D01*
X33990000Y-39165000D02*
X34590000Y-39165000D01*
%TO.C,Q3*%
X32440000Y-77240000D02*
X33640000Y-77240000D01*
X33990000Y-80215000D02*
X33990000Y-77265000D01*
X34590000Y-80215000D02*
X33990000Y-80215000D01*
X34590000Y-77265000D02*
X34590000Y-80215000D01*
X33990000Y-77265000D02*
X34590000Y-77265000D01*
%TO.C,Q2*%
X61260000Y-42115000D02*
X60660000Y-42115000D01*
X60660000Y-42115000D02*
X60660000Y-39165000D01*
X60660000Y-39165000D02*
X61260000Y-39165000D01*
X61260000Y-39165000D02*
X61260000Y-42115000D01*
X62810000Y-42140000D02*
X61610000Y-42140000D01*
%TO.C,Q1*%
X65000000Y-81970000D02*
X65000000Y-83170000D01*
X62025000Y-83520000D02*
X64975000Y-83520000D01*
X62025000Y-84120000D02*
X62025000Y-83520000D01*
X64975000Y-84120000D02*
X62025000Y-84120000D01*
X64975000Y-83520000D02*
X64975000Y-84120000D01*
D11*
%TO.C,JP1*%
X43670000Y-40940000D02*
X43670000Y-40340000D01*
X45770000Y-41640000D02*
X44370000Y-41640000D01*
X46470000Y-40340000D02*
X46470000Y-40940000D01*
X44370000Y-39640000D02*
X45770000Y-39640000D01*
X43670000Y-40340000D02*
G75*
G02*
X44370000Y-39640000I700000J0D01*
G01*
X44370000Y-41640000D02*
G75*
G02*
X43670000Y-40940000I0J700000D01*
G01*
X46470000Y-40940000D02*
G75*
G02*
X45770000Y-41640000I-700000J0D01*
G01*
X45770000Y-39640000D02*
G75*
G02*
X46470000Y-40340000I0J-700000D01*
G01*
%TO.C,JP2*%
X50670000Y-40940000D02*
X50670000Y-40340000D01*
X52770000Y-41640000D02*
X51370000Y-41640000D01*
X53470000Y-40340000D02*
X53470000Y-40940000D01*
X51370000Y-39640000D02*
X52770000Y-39640000D01*
X50670000Y-40340000D02*
G75*
G02*
X51370000Y-39640000I700000J0D01*
G01*
X51370000Y-41640000D02*
G75*
G02*
X50670000Y-40940000I0J700000D01*
G01*
X53470000Y-40940000D02*
G75*
G02*
X52770000Y-41640000I-700000J0D01*
G01*
X52770000Y-39640000D02*
G75*
G02*
X53470000Y-40340000I0J-700000D01*
G01*
D10*
%TO.C,U2*%
X52040000Y-37880000D02*
G75*
G03*
X52040000Y-37880000I-100000J0D01*
G01*
D12*
X49860000Y-38280000D02*
X49200000Y-38280000D01*
X48730000Y-37165000D02*
X48730000Y-36495000D01*
X49200000Y-35380000D02*
X49860000Y-35380000D01*
D11*
%TO.C,R9*%
X52605000Y-36699564D02*
X52605000Y-36245436D01*
X54075000Y-36699564D02*
X54075000Y-36245436D01*
%TO.C,J7*%
X52130000Y-30540000D02*
X52130000Y-27880000D01*
X49530000Y-30540000D02*
X52130000Y-30540000D01*
X49530000Y-27880000D02*
X52130000Y-27880000D01*
X49530000Y-30540000D02*
X49530000Y-27880000D01*
X48260000Y-30540000D02*
X46930000Y-30540000D01*
X46930000Y-30540000D02*
X46930000Y-29210000D01*
%TO.C,C7*%
X32285000Y-29791252D02*
X32285000Y-29268748D01*
X33755000Y-29791252D02*
X33755000Y-29268748D01*
%TO.C,C6*%
X33755000Y-89908748D02*
X33755000Y-90431252D01*
X32285000Y-89908748D02*
X32285000Y-90431252D01*
%TO.C,C5*%
X62765000Y-29471252D02*
X62765000Y-28948748D01*
X64235000Y-29471252D02*
X64235000Y-28948748D01*
%TO.C,C4*%
X65505000Y-89588748D02*
X65505000Y-90111252D01*
X64035000Y-89588748D02*
X64035000Y-90111252D01*
%TO.C,C2*%
X44985000Y-36141252D02*
X44985000Y-35618748D01*
X46455000Y-36141252D02*
X46455000Y-35618748D01*
%TO.C,U1*%
X34120000Y-48030000D02*
X27220000Y-48030000D01*
X34120000Y-45490000D02*
X34120000Y-48030000D01*
D13*
G36*
X53975000Y-44450000D02*
G01*
X52705000Y-44450000D01*
X53340000Y-45085000D01*
X53975000Y-44450000D01*
G37*
X53975000Y-44450000D02*
X52705000Y-44450000D01*
X53340000Y-45085000D01*
X53975000Y-44450000D01*
D11*
X61680000Y-69230000D02*
X61680000Y-47620000D01*
X27220000Y-71350000D02*
X59550000Y-71350000D01*
X34120000Y-45490000D02*
X59550000Y-45490000D01*
X27220000Y-48030000D02*
X27220000Y-71350000D01*
X61680000Y-69220000D02*
G75*
G02*
X59550000Y-71350000I-2130000J0D01*
G01*
X59550000Y-45490000D02*
G75*
G02*
X61680000Y-47620000I0J-2130000D01*
G01*
%TO.C,J6*%
X27880000Y-33080000D02*
X30540000Y-33080000D01*
X27880000Y-30480000D02*
X27880000Y-33080000D01*
X30540000Y-30480000D02*
X30540000Y-33080000D01*
X27880000Y-30480000D02*
X30540000Y-30480000D01*
X27880000Y-29210000D02*
X27880000Y-27880000D01*
X27880000Y-27880000D02*
X29210000Y-27880000D01*
%TO.C,J5*%
X30540000Y-86300000D02*
X27880000Y-86300000D01*
X30540000Y-88900000D02*
X30540000Y-86300000D01*
X27880000Y-88900000D02*
X27880000Y-86300000D01*
X30540000Y-88900000D02*
X27880000Y-88900000D01*
X30540000Y-90170000D02*
X30540000Y-91500000D01*
X30540000Y-91500000D02*
X29210000Y-91500000D01*
%TO.C,J4*%
X65980000Y-33080000D02*
X68640000Y-33080000D01*
X65980000Y-30480000D02*
X65980000Y-33080000D01*
X68640000Y-30480000D02*
X68640000Y-33080000D01*
X65980000Y-30480000D02*
X68640000Y-30480000D01*
X65980000Y-29210000D02*
X65980000Y-27880000D01*
X65980000Y-27880000D02*
X67310000Y-27880000D01*
%TO.C,J3*%
X69910000Y-86300000D02*
X67250000Y-86300000D01*
X69910000Y-88900000D02*
X69910000Y-86300000D01*
X67250000Y-88900000D02*
X67250000Y-86300000D01*
X69910000Y-88900000D02*
X67250000Y-88900000D01*
X69910000Y-90170000D02*
X69910000Y-91500000D01*
X69910000Y-91500000D02*
X68580000Y-91500000D01*
%TO.C,J2*%
X34230000Y-48200000D02*
X35560000Y-48200000D01*
X34230000Y-49530000D02*
X34230000Y-48200000D01*
X34230000Y-50800000D02*
X36890000Y-50800000D01*
X36890000Y-50800000D02*
X36890000Y-58480000D01*
X34230000Y-50800000D02*
X34230000Y-58480000D01*
X34230000Y-58480000D02*
X36890000Y-58480000D01*
%TO.C,J1*%
X45660000Y-90230000D02*
X45660000Y-88900000D01*
X46990000Y-90230000D02*
X45660000Y-90230000D01*
X48260000Y-90230000D02*
X48260000Y-87570000D01*
X48260000Y-87570000D02*
X50860000Y-87570000D01*
X48260000Y-90230000D02*
X50860000Y-90230000D01*
X50860000Y-90230000D02*
X50860000Y-87570000D01*
%TO.C,R8*%
X29945000Y-36699564D02*
X29945000Y-36245436D01*
X28475000Y-36699564D02*
X28475000Y-36245436D01*
%TO.C,R7*%
X28475000Y-40055436D02*
X28475000Y-40509564D01*
X29945000Y-40055436D02*
X29945000Y-40509564D01*
%TO.C,R6*%
X28475000Y-81410436D02*
X28475000Y-81864564D01*
X29945000Y-81410436D02*
X29945000Y-81864564D01*
%TO.C,R5*%
X68045000Y-37969564D02*
X68045000Y-37515436D01*
X66575000Y-37969564D02*
X66575000Y-37515436D01*
%TO.C,R4*%
X29945000Y-77697064D02*
X29945000Y-77242936D01*
X28475000Y-77697064D02*
X28475000Y-77242936D01*
%TO.C,R3*%
X66575000Y-41325436D02*
X66575000Y-41779564D01*
X68045000Y-41325436D02*
X68045000Y-41779564D01*
%TO.C,D1*%
X54810000Y-56480000D02*
X51870000Y-56480000D01*
X54810000Y-56720000D02*
X51870000Y-56720000D01*
X54810000Y-56600000D02*
X51870000Y-56600000D01*
X53340000Y-62360000D02*
X53340000Y-61140000D01*
X53340000Y-54480000D02*
X53340000Y-55700000D01*
X54810000Y-61140000D02*
X54810000Y-55700000D01*
X51870000Y-61140000D02*
X54810000Y-61140000D01*
X51870000Y-55700000D02*
X51870000Y-61140000D01*
X54810000Y-55700000D02*
X51870000Y-55700000D01*
%TO.C,R2*%
X67845000Y-81052936D02*
X67845000Y-81507064D01*
X69315000Y-81052936D02*
X69315000Y-81507064D01*
%TO.C,R1*%
X69315000Y-77339564D02*
X69315000Y-76885436D01*
X67845000Y-77339564D02*
X67845000Y-76885436D01*
%TO.C,D5*%
D14*
X37404523Y-32687380D02*
X36134523Y-32687380D01*
X36134523Y-32385000D01*
X36195000Y-32203571D01*
X36315952Y-32082619D01*
X36436904Y-32022142D01*
X36678809Y-31961666D01*
X36860238Y-31961666D01*
X37102142Y-32022142D01*
X37223095Y-32082619D01*
X37344047Y-32203571D01*
X37404523Y-32385000D01*
X37404523Y-32687380D01*
X36134523Y-30812619D02*
X36134523Y-31417380D01*
X36739285Y-31477857D01*
X36678809Y-31417380D01*
X36618333Y-31296428D01*
X36618333Y-30994047D01*
X36678809Y-30873095D01*
X36739285Y-30812619D01*
X36860238Y-30752142D01*
X37162619Y-30752142D01*
X37283571Y-30812619D01*
X37344047Y-30873095D01*
X37404523Y-30994047D01*
X37404523Y-31296428D01*
X37344047Y-31417380D01*
X37283571Y-31477857D01*
%TO.C,D4*%
X37404523Y-87297380D02*
X36134523Y-87297380D01*
X36134523Y-86995000D01*
X36195000Y-86813571D01*
X36315952Y-86692619D01*
X36436904Y-86632142D01*
X36678809Y-86571666D01*
X36860238Y-86571666D01*
X37102142Y-86632142D01*
X37223095Y-86692619D01*
X37344047Y-86813571D01*
X37404523Y-86995000D01*
X37404523Y-87297380D01*
X36557857Y-85483095D02*
X37404523Y-85483095D01*
X36074047Y-85785476D02*
X36981190Y-86087857D01*
X36981190Y-85301666D01*
%TO.C,D3*%
X60264523Y-33957380D02*
X58994523Y-33957380D01*
X58994523Y-33655000D01*
X59055000Y-33473571D01*
X59175952Y-33352619D01*
X59296904Y-33292142D01*
X59538809Y-33231666D01*
X59720238Y-33231666D01*
X59962142Y-33292142D01*
X60083095Y-33352619D01*
X60204047Y-33473571D01*
X60264523Y-33655000D01*
X60264523Y-33957380D01*
X58994523Y-32808333D02*
X58994523Y-32022142D01*
X59478333Y-32445476D01*
X59478333Y-32264047D01*
X59538809Y-32143095D01*
X59599285Y-32082619D01*
X59720238Y-32022142D01*
X60022619Y-32022142D01*
X60143571Y-32082619D01*
X60204047Y-32143095D01*
X60264523Y-32264047D01*
X60264523Y-32626904D01*
X60204047Y-32747857D01*
X60143571Y-32808333D01*
%TO.C,D2*%
X60264523Y-88567380D02*
X58994523Y-88567380D01*
X58994523Y-88265000D01*
X59055000Y-88083571D01*
X59175952Y-87962619D01*
X59296904Y-87902142D01*
X59538809Y-87841666D01*
X59720238Y-87841666D01*
X59962142Y-87902142D01*
X60083095Y-87962619D01*
X60204047Y-88083571D01*
X60264523Y-88265000D01*
X60264523Y-88567380D01*
X59115476Y-87357857D02*
X59055000Y-87297380D01*
X58994523Y-87176428D01*
X58994523Y-86874047D01*
X59055000Y-86753095D01*
X59115476Y-86692619D01*
X59236428Y-86632142D01*
X59357380Y-86632142D01*
X59538809Y-86692619D01*
X60264523Y-87418333D01*
X60264523Y-86632142D01*
%TO.C,C1*%
D13*
X46343333Y-85347142D02*
X46295714Y-85394761D01*
X46152857Y-85442380D01*
X46057619Y-85442380D01*
X45914761Y-85394761D01*
X45819523Y-85299523D01*
X45771904Y-85204285D01*
X45724285Y-85013809D01*
X45724285Y-84870952D01*
X45771904Y-84680476D01*
X45819523Y-84585238D01*
X45914761Y-84490000D01*
X46057619Y-84442380D01*
X46152857Y-84442380D01*
X46295714Y-84490000D01*
X46343333Y-84537619D01*
X47295714Y-85442380D02*
X46724285Y-85442380D01*
X47010000Y-85442380D02*
X47010000Y-84442380D01*
X46914761Y-84585238D01*
X46819523Y-84680476D01*
X46724285Y-84728095D01*
%TO.C,Q4*%
D14*
X34169047Y-41335476D02*
X34048095Y-41275000D01*
X33927142Y-41154047D01*
X33745714Y-40972619D01*
X33624761Y-40912142D01*
X33503809Y-40912142D01*
X33564285Y-41214523D02*
X33443333Y-41154047D01*
X33322380Y-41033095D01*
X33261904Y-40791190D01*
X33261904Y-40367857D01*
X33322380Y-40125952D01*
X33443333Y-40005000D01*
X33564285Y-39944523D01*
X33806190Y-39944523D01*
X33927142Y-40005000D01*
X34048095Y-40125952D01*
X34108571Y-40367857D01*
X34108571Y-40791190D01*
X34048095Y-41033095D01*
X33927142Y-41154047D01*
X33806190Y-41214523D01*
X33564285Y-41214523D01*
X35197142Y-40367857D02*
X35197142Y-41214523D01*
X34894761Y-39884047D02*
X34592380Y-40791190D01*
X35378571Y-40791190D01*
%TO.C,Q3*%
X34169047Y-79435476D02*
X34048095Y-79375000D01*
X33927142Y-79254047D01*
X33745714Y-79072619D01*
X33624761Y-79012142D01*
X33503809Y-79012142D01*
X33564285Y-79314523D02*
X33443333Y-79254047D01*
X33322380Y-79133095D01*
X33261904Y-78891190D01*
X33261904Y-78467857D01*
X33322380Y-78225952D01*
X33443333Y-78105000D01*
X33564285Y-78044523D01*
X33806190Y-78044523D01*
X33927142Y-78105000D01*
X34048095Y-78225952D01*
X34108571Y-78467857D01*
X34108571Y-78891190D01*
X34048095Y-79133095D01*
X33927142Y-79254047D01*
X33806190Y-79314523D01*
X33564285Y-79314523D01*
X34531904Y-78044523D02*
X35318095Y-78044523D01*
X34894761Y-78528333D01*
X35076190Y-78528333D01*
X35197142Y-78588809D01*
X35257619Y-78649285D01*
X35318095Y-78770238D01*
X35318095Y-79072619D01*
X35257619Y-79193571D01*
X35197142Y-79254047D01*
X35076190Y-79314523D01*
X34713333Y-79314523D01*
X34592380Y-79254047D01*
X34531904Y-79193571D01*
%TO.C,Q2*%
X60839047Y-41335476D02*
X60718095Y-41275000D01*
X60597142Y-41154047D01*
X60415714Y-40972619D01*
X60294761Y-40912142D01*
X60173809Y-40912142D01*
X60234285Y-41214523D02*
X60113333Y-41154047D01*
X59992380Y-41033095D01*
X59931904Y-40791190D01*
X59931904Y-40367857D01*
X59992380Y-40125952D01*
X60113333Y-40005000D01*
X60234285Y-39944523D01*
X60476190Y-39944523D01*
X60597142Y-40005000D01*
X60718095Y-40125952D01*
X60778571Y-40367857D01*
X60778571Y-40791190D01*
X60718095Y-41033095D01*
X60597142Y-41154047D01*
X60476190Y-41214523D01*
X60234285Y-41214523D01*
X61262380Y-40065476D02*
X61322857Y-40005000D01*
X61443809Y-39944523D01*
X61746190Y-39944523D01*
X61867142Y-40005000D01*
X61927619Y-40065476D01*
X61988095Y-40186428D01*
X61988095Y-40307380D01*
X61927619Y-40488809D01*
X61201904Y-41214523D01*
X61988095Y-41214523D01*
%TO.C,Q1*%
X64195476Y-83940952D02*
X64135000Y-84061904D01*
X64014047Y-84182857D01*
X63832619Y-84364285D01*
X63772142Y-84485238D01*
X63772142Y-84606190D01*
X64074523Y-84545714D02*
X64014047Y-84666666D01*
X63893095Y-84787619D01*
X63651190Y-84848095D01*
X63227857Y-84848095D01*
X62985952Y-84787619D01*
X62865000Y-84666666D01*
X62804523Y-84545714D01*
X62804523Y-84303809D01*
X62865000Y-84182857D01*
X62985952Y-84061904D01*
X63227857Y-84001428D01*
X63651190Y-84001428D01*
X63893095Y-84061904D01*
X64014047Y-84182857D01*
X64074523Y-84303809D01*
X64074523Y-84545714D01*
X64074523Y-82791904D02*
X64074523Y-83517619D01*
X64074523Y-83154761D02*
X62804523Y-83154761D01*
X62985952Y-83275714D01*
X63106904Y-83396666D01*
X63167380Y-83517619D01*
%TO.C,JP1*%
D13*
X44236666Y-38292380D02*
X44236666Y-39006666D01*
X44189047Y-39149523D01*
X44093809Y-39244761D01*
X43950952Y-39292380D01*
X43855714Y-39292380D01*
X44712857Y-39292380D02*
X44712857Y-38292380D01*
X45093809Y-38292380D01*
X45189047Y-38340000D01*
X45236666Y-38387619D01*
X45284285Y-38482857D01*
X45284285Y-38625714D01*
X45236666Y-38720952D01*
X45189047Y-38768571D01*
X45093809Y-38816190D01*
X44712857Y-38816190D01*
X46236666Y-39292380D02*
X45665238Y-39292380D01*
X45950952Y-39292380D02*
X45950952Y-38292380D01*
X45855714Y-38435238D01*
X45760476Y-38530476D01*
X45665238Y-38578095D01*
%TO.C,JP2*%
X51236666Y-38292380D02*
X51236666Y-39006666D01*
X51189047Y-39149523D01*
X51093809Y-39244761D01*
X50950952Y-39292380D01*
X50855714Y-39292380D01*
X51712857Y-39292380D02*
X51712857Y-38292380D01*
X52093809Y-38292380D01*
X52189047Y-38340000D01*
X52236666Y-38387619D01*
X52284285Y-38482857D01*
X52284285Y-38625714D01*
X52236666Y-38720952D01*
X52189047Y-38768571D01*
X52093809Y-38816190D01*
X51712857Y-38816190D01*
X52665238Y-38387619D02*
X52712857Y-38340000D01*
X52808095Y-38292380D01*
X53046190Y-38292380D01*
X53141428Y-38340000D01*
X53189047Y-38387619D01*
X53236666Y-38482857D01*
X53236666Y-38578095D01*
X53189047Y-38720952D01*
X52617619Y-39292380D01*
X53236666Y-39292380D01*
%TO.C,U2*%
D15*
X48980476Y-38899904D02*
X48980476Y-39547523D01*
X49018571Y-39623714D01*
X49056666Y-39661809D01*
X49132857Y-39699904D01*
X49285238Y-39699904D01*
X49361428Y-39661809D01*
X49399523Y-39623714D01*
X49437619Y-39547523D01*
X49437619Y-38899904D01*
X49780476Y-38976095D02*
X49818571Y-38938000D01*
X49894761Y-38899904D01*
X50085238Y-38899904D01*
X50161428Y-38938000D01*
X50199523Y-38976095D01*
X50237619Y-39052285D01*
X50237619Y-39128476D01*
X50199523Y-39242761D01*
X49742380Y-39699904D01*
X50237619Y-39699904D01*
%TO.C,R9*%
D13*
X52142380Y-36639166D02*
X51666190Y-36972500D01*
X52142380Y-37210595D02*
X51142380Y-37210595D01*
X51142380Y-36829642D01*
X51190000Y-36734404D01*
X51237619Y-36686785D01*
X51332857Y-36639166D01*
X51475714Y-36639166D01*
X51570952Y-36686785D01*
X51618571Y-36734404D01*
X51666190Y-36829642D01*
X51666190Y-37210595D01*
X52142380Y-36162976D02*
X52142380Y-35972500D01*
X52094761Y-35877261D01*
X52047142Y-35829642D01*
X51904285Y-35734404D01*
X51713809Y-35686785D01*
X51332857Y-35686785D01*
X51237619Y-35734404D01*
X51190000Y-35782023D01*
X51142380Y-35877261D01*
X51142380Y-36067738D01*
X51190000Y-36162976D01*
X51237619Y-36210595D01*
X51332857Y-36258214D01*
X51570952Y-36258214D01*
X51666190Y-36210595D01*
X51713809Y-36162976D01*
X51761428Y-36067738D01*
X51761428Y-35877261D01*
X51713809Y-35782023D01*
X51666190Y-35734404D01*
X51570952Y-35686785D01*
%TO.C,J7*%
X45382380Y-29543333D02*
X46096666Y-29543333D01*
X46239523Y-29590952D01*
X46334761Y-29686190D01*
X46382380Y-29829047D01*
X46382380Y-29924285D01*
X45382380Y-29162380D02*
X45382380Y-28495714D01*
X46382380Y-28924285D01*
%TO.C,C7*%
X31697142Y-29696666D02*
X31744761Y-29744285D01*
X31792380Y-29887142D01*
X31792380Y-29982380D01*
X31744761Y-30125238D01*
X31649523Y-30220476D01*
X31554285Y-30268095D01*
X31363809Y-30315714D01*
X31220952Y-30315714D01*
X31030476Y-30268095D01*
X30935238Y-30220476D01*
X30840000Y-30125238D01*
X30792380Y-29982380D01*
X30792380Y-29887142D01*
X30840000Y-29744285D01*
X30887619Y-29696666D01*
X30792380Y-29363333D02*
X30792380Y-28696666D01*
X31792380Y-29125238D01*
%TO.C,C6*%
X35057142Y-90336666D02*
X35104761Y-90384285D01*
X35152380Y-90527142D01*
X35152380Y-90622380D01*
X35104761Y-90765238D01*
X35009523Y-90860476D01*
X34914285Y-90908095D01*
X34723809Y-90955714D01*
X34580952Y-90955714D01*
X34390476Y-90908095D01*
X34295238Y-90860476D01*
X34200000Y-90765238D01*
X34152380Y-90622380D01*
X34152380Y-90527142D01*
X34200000Y-90384285D01*
X34247619Y-90336666D01*
X34152380Y-89479523D02*
X34152380Y-89670000D01*
X34200000Y-89765238D01*
X34247619Y-89812857D01*
X34390476Y-89908095D01*
X34580952Y-89955714D01*
X34961904Y-89955714D01*
X35057142Y-89908095D01*
X35104761Y-89860476D01*
X35152380Y-89765238D01*
X35152380Y-89574761D01*
X35104761Y-89479523D01*
X35057142Y-89431904D01*
X34961904Y-89384285D01*
X34723809Y-89384285D01*
X34628571Y-89431904D01*
X34580952Y-89479523D01*
X34533333Y-89574761D01*
X34533333Y-89765238D01*
X34580952Y-89860476D01*
X34628571Y-89908095D01*
X34723809Y-89955714D01*
%TO.C,C5*%
X62177142Y-29376666D02*
X62224761Y-29424285D01*
X62272380Y-29567142D01*
X62272380Y-29662380D01*
X62224761Y-29805238D01*
X62129523Y-29900476D01*
X62034285Y-29948095D01*
X61843809Y-29995714D01*
X61700952Y-29995714D01*
X61510476Y-29948095D01*
X61415238Y-29900476D01*
X61320000Y-29805238D01*
X61272380Y-29662380D01*
X61272380Y-29567142D01*
X61320000Y-29424285D01*
X61367619Y-29376666D01*
X61272380Y-28471904D02*
X61272380Y-28948095D01*
X61748571Y-28995714D01*
X61700952Y-28948095D01*
X61653333Y-28852857D01*
X61653333Y-28614761D01*
X61700952Y-28519523D01*
X61748571Y-28471904D01*
X61843809Y-28424285D01*
X62081904Y-28424285D01*
X62177142Y-28471904D01*
X62224761Y-28519523D01*
X62272380Y-28614761D01*
X62272380Y-28852857D01*
X62224761Y-28948095D01*
X62177142Y-28995714D01*
%TO.C,C4*%
X66807142Y-90016666D02*
X66854761Y-90064285D01*
X66902380Y-90207142D01*
X66902380Y-90302380D01*
X66854761Y-90445238D01*
X66759523Y-90540476D01*
X66664285Y-90588095D01*
X66473809Y-90635714D01*
X66330952Y-90635714D01*
X66140476Y-90588095D01*
X66045238Y-90540476D01*
X65950000Y-90445238D01*
X65902380Y-90302380D01*
X65902380Y-90207142D01*
X65950000Y-90064285D01*
X65997619Y-90016666D01*
X66235714Y-89159523D02*
X66902380Y-89159523D01*
X65854761Y-89397619D02*
X66569047Y-89635714D01*
X66569047Y-89016666D01*
%TO.C,C2*%
X44397142Y-36046666D02*
X44444761Y-36094285D01*
X44492380Y-36237142D01*
X44492380Y-36332380D01*
X44444761Y-36475238D01*
X44349523Y-36570476D01*
X44254285Y-36618095D01*
X44063809Y-36665714D01*
X43920952Y-36665714D01*
X43730476Y-36618095D01*
X43635238Y-36570476D01*
X43540000Y-36475238D01*
X43492380Y-36332380D01*
X43492380Y-36237142D01*
X43540000Y-36094285D01*
X43587619Y-36046666D01*
X43587619Y-35665714D02*
X43540000Y-35618095D01*
X43492380Y-35522857D01*
X43492380Y-35284761D01*
X43540000Y-35189523D01*
X43587619Y-35141904D01*
X43682857Y-35094285D01*
X43778095Y-35094285D01*
X43920952Y-35141904D01*
X44492380Y-35713333D01*
X44492380Y-35094285D01*
%TO.C,U1*%
X25792380Y-69751904D02*
X26601904Y-69751904D01*
X26697142Y-69704285D01*
X26744761Y-69656666D01*
X26792380Y-69561428D01*
X26792380Y-69370952D01*
X26744761Y-69275714D01*
X26697142Y-69228095D01*
X26601904Y-69180476D01*
X25792380Y-69180476D01*
X26792380Y-68180476D02*
X26792380Y-68751904D01*
X26792380Y-68466190D02*
X25792380Y-68466190D01*
X25935238Y-68561428D01*
X26030476Y-68656666D01*
X26078095Y-68751904D01*
%TO.C,J6*%
X28876666Y-26332380D02*
X28876666Y-27046666D01*
X28829047Y-27189523D01*
X28733809Y-27284761D01*
X28590952Y-27332380D01*
X28495714Y-27332380D01*
X29781428Y-26332380D02*
X29590952Y-26332380D01*
X29495714Y-26380000D01*
X29448095Y-26427619D01*
X29352857Y-26570476D01*
X29305238Y-26760952D01*
X29305238Y-27141904D01*
X29352857Y-27237142D01*
X29400476Y-27284761D01*
X29495714Y-27332380D01*
X29686190Y-27332380D01*
X29781428Y-27284761D01*
X29829047Y-27237142D01*
X29876666Y-27141904D01*
X29876666Y-26903809D01*
X29829047Y-26808571D01*
X29781428Y-26760952D01*
X29686190Y-26713333D01*
X29495714Y-26713333D01*
X29400476Y-26760952D01*
X29352857Y-26808571D01*
X29305238Y-26903809D01*
%TO.C,J5*%
X28876666Y-91952380D02*
X28876666Y-92666666D01*
X28829047Y-92809523D01*
X28733809Y-92904761D01*
X28590952Y-92952380D01*
X28495714Y-92952380D01*
X29829047Y-91952380D02*
X29352857Y-91952380D01*
X29305238Y-92428571D01*
X29352857Y-92380952D01*
X29448095Y-92333333D01*
X29686190Y-92333333D01*
X29781428Y-92380952D01*
X29829047Y-92428571D01*
X29876666Y-92523809D01*
X29876666Y-92761904D01*
X29829047Y-92857142D01*
X29781428Y-92904761D01*
X29686190Y-92952380D01*
X29448095Y-92952380D01*
X29352857Y-92904761D01*
X29305238Y-92857142D01*
%TO.C,J4*%
X66976666Y-26332380D02*
X66976666Y-27046666D01*
X66929047Y-27189523D01*
X66833809Y-27284761D01*
X66690952Y-27332380D01*
X66595714Y-27332380D01*
X67881428Y-26665714D02*
X67881428Y-27332380D01*
X67643333Y-26284761D02*
X67405238Y-26999047D01*
X68024285Y-26999047D01*
%TO.C,J3*%
X68246666Y-91952380D02*
X68246666Y-92666666D01*
X68199047Y-92809523D01*
X68103809Y-92904761D01*
X67960952Y-92952380D01*
X67865714Y-92952380D01*
X68627619Y-91952380D02*
X69246666Y-91952380D01*
X68913333Y-92333333D01*
X69056190Y-92333333D01*
X69151428Y-92380952D01*
X69199047Y-92428571D01*
X69246666Y-92523809D01*
X69246666Y-92761904D01*
X69199047Y-92857142D01*
X69151428Y-92904761D01*
X69056190Y-92952380D01*
X68770476Y-92952380D01*
X68675238Y-92904761D01*
X68627619Y-92857142D01*
%TO.C,J2*%
X35226666Y-46652380D02*
X35226666Y-47366666D01*
X35179047Y-47509523D01*
X35083809Y-47604761D01*
X34940952Y-47652380D01*
X34845714Y-47652380D01*
X35655238Y-46747619D02*
X35702857Y-46700000D01*
X35798095Y-46652380D01*
X36036190Y-46652380D01*
X36131428Y-46700000D01*
X36179047Y-46747619D01*
X36226666Y-46842857D01*
X36226666Y-46938095D01*
X36179047Y-47080952D01*
X35607619Y-47652380D01*
X36226666Y-47652380D01*
%TO.C,J1*%
X44112380Y-89233333D02*
X44826666Y-89233333D01*
X44969523Y-89280952D01*
X45064761Y-89376190D01*
X45112380Y-89519047D01*
X45112380Y-89614285D01*
X45112380Y-88233333D02*
X45112380Y-88804761D01*
X45112380Y-88519047D02*
X44112380Y-88519047D01*
X44255238Y-88614285D01*
X44350476Y-88709523D01*
X44398095Y-88804761D01*
%TO.C,R8*%
X28012380Y-36639166D02*
X27536190Y-36972500D01*
X28012380Y-37210595D02*
X27012380Y-37210595D01*
X27012380Y-36829642D01*
X27060000Y-36734404D01*
X27107619Y-36686785D01*
X27202857Y-36639166D01*
X27345714Y-36639166D01*
X27440952Y-36686785D01*
X27488571Y-36734404D01*
X27536190Y-36829642D01*
X27536190Y-37210595D01*
X27440952Y-36067738D02*
X27393333Y-36162976D01*
X27345714Y-36210595D01*
X27250476Y-36258214D01*
X27202857Y-36258214D01*
X27107619Y-36210595D01*
X27060000Y-36162976D01*
X27012380Y-36067738D01*
X27012380Y-35877261D01*
X27060000Y-35782023D01*
X27107619Y-35734404D01*
X27202857Y-35686785D01*
X27250476Y-35686785D01*
X27345714Y-35734404D01*
X27393333Y-35782023D01*
X27440952Y-35877261D01*
X27440952Y-36067738D01*
X27488571Y-36162976D01*
X27536190Y-36210595D01*
X27631428Y-36258214D01*
X27821904Y-36258214D01*
X27917142Y-36210595D01*
X27964761Y-36162976D01*
X28012380Y-36067738D01*
X28012380Y-35877261D01*
X27964761Y-35782023D01*
X27917142Y-35734404D01*
X27821904Y-35686785D01*
X27631428Y-35686785D01*
X27536190Y-35734404D01*
X27488571Y-35782023D01*
X27440952Y-35877261D01*
%TO.C,R7*%
X31312380Y-40449166D02*
X30836190Y-40782500D01*
X31312380Y-41020595D02*
X30312380Y-41020595D01*
X30312380Y-40639642D01*
X30360000Y-40544404D01*
X30407619Y-40496785D01*
X30502857Y-40449166D01*
X30645714Y-40449166D01*
X30740952Y-40496785D01*
X30788571Y-40544404D01*
X30836190Y-40639642D01*
X30836190Y-41020595D01*
X30312380Y-40115833D02*
X30312380Y-39449166D01*
X31312380Y-39877738D01*
%TO.C,R6*%
X31312380Y-81804166D02*
X30836190Y-82137500D01*
X31312380Y-82375595D02*
X30312380Y-82375595D01*
X30312380Y-81994642D01*
X30360000Y-81899404D01*
X30407619Y-81851785D01*
X30502857Y-81804166D01*
X30645714Y-81804166D01*
X30740952Y-81851785D01*
X30788571Y-81899404D01*
X30836190Y-81994642D01*
X30836190Y-82375595D01*
X30312380Y-80947023D02*
X30312380Y-81137500D01*
X30360000Y-81232738D01*
X30407619Y-81280357D01*
X30550476Y-81375595D01*
X30740952Y-81423214D01*
X31121904Y-81423214D01*
X31217142Y-81375595D01*
X31264761Y-81327976D01*
X31312380Y-81232738D01*
X31312380Y-81042261D01*
X31264761Y-80947023D01*
X31217142Y-80899404D01*
X31121904Y-80851785D01*
X30883809Y-80851785D01*
X30788571Y-80899404D01*
X30740952Y-80947023D01*
X30693333Y-81042261D01*
X30693333Y-81232738D01*
X30740952Y-81327976D01*
X30788571Y-81375595D01*
X30883809Y-81423214D01*
%TO.C,R5*%
X66112380Y-37909166D02*
X65636190Y-38242500D01*
X66112380Y-38480595D02*
X65112380Y-38480595D01*
X65112380Y-38099642D01*
X65160000Y-38004404D01*
X65207619Y-37956785D01*
X65302857Y-37909166D01*
X65445714Y-37909166D01*
X65540952Y-37956785D01*
X65588571Y-38004404D01*
X65636190Y-38099642D01*
X65636190Y-38480595D01*
X65112380Y-37004404D02*
X65112380Y-37480595D01*
X65588571Y-37528214D01*
X65540952Y-37480595D01*
X65493333Y-37385357D01*
X65493333Y-37147261D01*
X65540952Y-37052023D01*
X65588571Y-37004404D01*
X65683809Y-36956785D01*
X65921904Y-36956785D01*
X66017142Y-37004404D01*
X66064761Y-37052023D01*
X66112380Y-37147261D01*
X66112380Y-37385357D01*
X66064761Y-37480595D01*
X66017142Y-37528214D01*
%TO.C,R4*%
X28012380Y-77636666D02*
X27536190Y-77970000D01*
X28012380Y-78208095D02*
X27012380Y-78208095D01*
X27012380Y-77827142D01*
X27060000Y-77731904D01*
X27107619Y-77684285D01*
X27202857Y-77636666D01*
X27345714Y-77636666D01*
X27440952Y-77684285D01*
X27488571Y-77731904D01*
X27536190Y-77827142D01*
X27536190Y-78208095D01*
X27345714Y-76779523D02*
X28012380Y-76779523D01*
X26964761Y-77017619D02*
X27679047Y-77255714D01*
X27679047Y-76636666D01*
%TO.C,R3*%
X69412380Y-41719166D02*
X68936190Y-42052500D01*
X69412380Y-42290595D02*
X68412380Y-42290595D01*
X68412380Y-41909642D01*
X68460000Y-41814404D01*
X68507619Y-41766785D01*
X68602857Y-41719166D01*
X68745714Y-41719166D01*
X68840952Y-41766785D01*
X68888571Y-41814404D01*
X68936190Y-41909642D01*
X68936190Y-42290595D01*
X68412380Y-41385833D02*
X68412380Y-40766785D01*
X68793333Y-41100119D01*
X68793333Y-40957261D01*
X68840952Y-40862023D01*
X68888571Y-40814404D01*
X68983809Y-40766785D01*
X69221904Y-40766785D01*
X69317142Y-40814404D01*
X69364761Y-40862023D01*
X69412380Y-40957261D01*
X69412380Y-41242976D01*
X69364761Y-41338214D01*
X69317142Y-41385833D01*
%TO.C,D1*%
X56262380Y-59158095D02*
X55262380Y-59158095D01*
X55262380Y-58920000D01*
X55310000Y-58777142D01*
X55405238Y-58681904D01*
X55500476Y-58634285D01*
X55690952Y-58586666D01*
X55833809Y-58586666D01*
X56024285Y-58634285D01*
X56119523Y-58681904D01*
X56214761Y-58777142D01*
X56262380Y-58920000D01*
X56262380Y-59158095D01*
X56262380Y-57634285D02*
X56262380Y-58205714D01*
X56262380Y-57920000D02*
X55262380Y-57920000D01*
X55405238Y-58015238D01*
X55500476Y-58110476D01*
X55548095Y-58205714D01*
X55692380Y-53601904D02*
X54692380Y-53601904D01*
X55692380Y-53030476D02*
X55120952Y-53459047D01*
X54692380Y-53030476D02*
X55263809Y-53601904D01*
%TO.C,R2*%
X70682380Y-81446666D02*
X70206190Y-81780000D01*
X70682380Y-82018095D02*
X69682380Y-82018095D01*
X69682380Y-81637142D01*
X69730000Y-81541904D01*
X69777619Y-81494285D01*
X69872857Y-81446666D01*
X70015714Y-81446666D01*
X70110952Y-81494285D01*
X70158571Y-81541904D01*
X70206190Y-81637142D01*
X70206190Y-82018095D01*
X69777619Y-81065714D02*
X69730000Y-81018095D01*
X69682380Y-80922857D01*
X69682380Y-80684761D01*
X69730000Y-80589523D01*
X69777619Y-80541904D01*
X69872857Y-80494285D01*
X69968095Y-80494285D01*
X70110952Y-80541904D01*
X70682380Y-81113333D01*
X70682380Y-80494285D01*
%TO.C,R1*%
X67382380Y-77279166D02*
X66906190Y-77612500D01*
X67382380Y-77850595D02*
X66382380Y-77850595D01*
X66382380Y-77469642D01*
X66430000Y-77374404D01*
X66477619Y-77326785D01*
X66572857Y-77279166D01*
X66715714Y-77279166D01*
X66810952Y-77326785D01*
X66858571Y-77374404D01*
X66906190Y-77469642D01*
X66906190Y-77850595D01*
X67382380Y-76326785D02*
X67382380Y-76898214D01*
X67382380Y-76612500D02*
X66382380Y-76612500D01*
X66525238Y-76707738D01*
X66620476Y-76802976D01*
X66668095Y-76898214D01*
%TD*%
M02*
