%TF.GenerationSoftware,KiCad,Pcbnew,5.1.7-a382d34a8~88~ubuntu18.04.1*%
%TF.CreationDate,2021-04-24T17:29:33+03:00*%
%TF.ProjectId,quadimodo_pcb,71756164-696d-46f6-946f-5f7063622e6b,rev?*%
%TF.SameCoordinates,Original*%
%TF.FileFunction,Soldermask,Top*%
%TF.FilePolarity,Negative*%
%FSLAX46Y46*%
G04 Gerber Fmt 4.6, Leading zero omitted, Abs format (unit mm)*
G04 Created by KiCad (PCBNEW 5.1.7-a382d34a8~88~ubuntu18.04.1) date 2021-04-24 17:29:33*
%MOMM*%
%LPD*%
G01*
G04 APERTURE LIST*
%ADD10R,1.550000X2.200000*%
%ADD11C,2.000000*%
%ADD12R,2.000000X2.000000*%
%ADD13R,1.200000X0.600000*%
%ADD14R,0.600000X1.200000*%
%ADD15C,0.100000*%
%ADD16R,1.210000X0.590000*%
%ADD17O,1.700000X1.700000*%
%ADD18R,1.700000X1.700000*%
%ADD19O,1.600000X2.000000*%
%ADD20O,1.800000X1.800000*%
%ADD21R,1.800000X1.800000*%
G04 APERTURE END LIST*
D10*
%TO.C,D5*%
X36830000Y-29700000D03*
X36830000Y-33800000D03*
%TD*%
%TO.C,D4*%
X36830000Y-88410000D03*
X36830000Y-84310000D03*
%TD*%
%TO.C,D3*%
X59690000Y-30970000D03*
X59690000Y-35070000D03*
%TD*%
%TO.C,D2*%
X59690000Y-89680000D03*
X59690000Y-85580000D03*
%TD*%
D11*
%TO.C,C1*%
X44760000Y-78740000D03*
D12*
X48260000Y-78740000D03*
%TD*%
D13*
%TO.C,Q4*%
X33040000Y-39690000D03*
X33040000Y-41590000D03*
X35540000Y-40640000D03*
%TD*%
%TO.C,Q3*%
X33040000Y-77790000D03*
X33040000Y-79690000D03*
X35540000Y-78740000D03*
%TD*%
%TO.C,Q2*%
X59710000Y-40640000D03*
X62210000Y-39690000D03*
X62210000Y-41590000D03*
%TD*%
D14*
%TO.C,Q1*%
X64450000Y-82570000D03*
X62550000Y-82570000D03*
X63500000Y-85070000D03*
%TD*%
D15*
%TO.C,JP1*%
G36*
X45720000Y-39890602D02*
G01*
X45744534Y-39890602D01*
X45793365Y-39895412D01*
X45841490Y-39904984D01*
X45888445Y-39919228D01*
X45933778Y-39938005D01*
X45977051Y-39961136D01*
X46017850Y-39988396D01*
X46055779Y-40019524D01*
X46090476Y-40054221D01*
X46121604Y-40092150D01*
X46148864Y-40132949D01*
X46171995Y-40176222D01*
X46190772Y-40221555D01*
X46205016Y-40268510D01*
X46214588Y-40316635D01*
X46219398Y-40365466D01*
X46219398Y-40390000D01*
X46220000Y-40390000D01*
X46220000Y-40890000D01*
X46219398Y-40890000D01*
X46219398Y-40914534D01*
X46214588Y-40963365D01*
X46205016Y-41011490D01*
X46190772Y-41058445D01*
X46171995Y-41103778D01*
X46148864Y-41147051D01*
X46121604Y-41187850D01*
X46090476Y-41225779D01*
X46055779Y-41260476D01*
X46017850Y-41291604D01*
X45977051Y-41318864D01*
X45933778Y-41341995D01*
X45888445Y-41360772D01*
X45841490Y-41375016D01*
X45793365Y-41384588D01*
X45744534Y-41389398D01*
X45720000Y-41389398D01*
X45720000Y-41390000D01*
X45220000Y-41390000D01*
X45220000Y-39890000D01*
X45720000Y-39890000D01*
X45720000Y-39890602D01*
G37*
G36*
X44920000Y-41390000D02*
G01*
X44420000Y-41390000D01*
X44420000Y-41389398D01*
X44395466Y-41389398D01*
X44346635Y-41384588D01*
X44298510Y-41375016D01*
X44251555Y-41360772D01*
X44206222Y-41341995D01*
X44162949Y-41318864D01*
X44122150Y-41291604D01*
X44084221Y-41260476D01*
X44049524Y-41225779D01*
X44018396Y-41187850D01*
X43991136Y-41147051D01*
X43968005Y-41103778D01*
X43949228Y-41058445D01*
X43934984Y-41011490D01*
X43925412Y-40963365D01*
X43920602Y-40914534D01*
X43920602Y-40890000D01*
X43920000Y-40890000D01*
X43920000Y-40390000D01*
X43920602Y-40390000D01*
X43920602Y-40365466D01*
X43925412Y-40316635D01*
X43934984Y-40268510D01*
X43949228Y-40221555D01*
X43968005Y-40176222D01*
X43991136Y-40132949D01*
X44018396Y-40092150D01*
X44049524Y-40054221D01*
X44084221Y-40019524D01*
X44122150Y-39988396D01*
X44162949Y-39961136D01*
X44206222Y-39938005D01*
X44251555Y-39919228D01*
X44298510Y-39904984D01*
X44346635Y-39895412D01*
X44395466Y-39890602D01*
X44420000Y-39890602D01*
X44420000Y-39890000D01*
X44920000Y-39890000D01*
X44920000Y-41390000D01*
G37*
%TD*%
%TO.C,JP2*%
G36*
X52720000Y-39890602D02*
G01*
X52744534Y-39890602D01*
X52793365Y-39895412D01*
X52841490Y-39904984D01*
X52888445Y-39919228D01*
X52933778Y-39938005D01*
X52977051Y-39961136D01*
X53017850Y-39988396D01*
X53055779Y-40019524D01*
X53090476Y-40054221D01*
X53121604Y-40092150D01*
X53148864Y-40132949D01*
X53171995Y-40176222D01*
X53190772Y-40221555D01*
X53205016Y-40268510D01*
X53214588Y-40316635D01*
X53219398Y-40365466D01*
X53219398Y-40390000D01*
X53220000Y-40390000D01*
X53220000Y-40890000D01*
X53219398Y-40890000D01*
X53219398Y-40914534D01*
X53214588Y-40963365D01*
X53205016Y-41011490D01*
X53190772Y-41058445D01*
X53171995Y-41103778D01*
X53148864Y-41147051D01*
X53121604Y-41187850D01*
X53090476Y-41225779D01*
X53055779Y-41260476D01*
X53017850Y-41291604D01*
X52977051Y-41318864D01*
X52933778Y-41341995D01*
X52888445Y-41360772D01*
X52841490Y-41375016D01*
X52793365Y-41384588D01*
X52744534Y-41389398D01*
X52720000Y-41389398D01*
X52720000Y-41390000D01*
X52220000Y-41390000D01*
X52220000Y-39890000D01*
X52720000Y-39890000D01*
X52720000Y-39890602D01*
G37*
G36*
X51920000Y-41390000D02*
G01*
X51420000Y-41390000D01*
X51420000Y-41389398D01*
X51395466Y-41389398D01*
X51346635Y-41384588D01*
X51298510Y-41375016D01*
X51251555Y-41360772D01*
X51206222Y-41341995D01*
X51162949Y-41318864D01*
X51122150Y-41291604D01*
X51084221Y-41260476D01*
X51049524Y-41225779D01*
X51018396Y-41187850D01*
X50991136Y-41147051D01*
X50968005Y-41103778D01*
X50949228Y-41058445D01*
X50934984Y-41011490D01*
X50925412Y-40963365D01*
X50920602Y-40914534D01*
X50920602Y-40890000D01*
X50920000Y-40890000D01*
X50920000Y-40390000D01*
X50920602Y-40390000D01*
X50920602Y-40365466D01*
X50925412Y-40316635D01*
X50934984Y-40268510D01*
X50949228Y-40221555D01*
X50968005Y-40176222D01*
X50991136Y-40132949D01*
X51018396Y-40092150D01*
X51049524Y-40054221D01*
X51084221Y-40019524D01*
X51122150Y-39988396D01*
X51162949Y-39961136D01*
X51206222Y-39938005D01*
X51251555Y-39919228D01*
X51298510Y-39904984D01*
X51346635Y-39895412D01*
X51395466Y-39890602D01*
X51420000Y-39890602D01*
X51420000Y-39890000D01*
X51920000Y-39890000D01*
X51920000Y-41390000D01*
G37*
%TD*%
D16*
%TO.C,U2*%
X50785000Y-37780000D03*
X50785000Y-36830000D03*
X50785000Y-35880000D03*
X48275000Y-35880000D03*
X48275000Y-37780000D03*
%TD*%
%TO.C,R9*%
G36*
G01*
X53790002Y-36072500D02*
X52889998Y-36072500D01*
G75*
G02*
X52640000Y-35822502I0J249998D01*
G01*
X52640000Y-35297498D01*
G75*
G02*
X52889998Y-35047500I249998J0D01*
G01*
X53790002Y-35047500D01*
G75*
G02*
X54040000Y-35297498I0J-249998D01*
G01*
X54040000Y-35822502D01*
G75*
G02*
X53790002Y-36072500I-249998J0D01*
G01*
G37*
G36*
G01*
X53790002Y-37897500D02*
X52889998Y-37897500D01*
G75*
G02*
X52640000Y-37647502I0J249998D01*
G01*
X52640000Y-37122498D01*
G75*
G02*
X52889998Y-36872500I249998J0D01*
G01*
X53790002Y-36872500D01*
G75*
G02*
X54040000Y-37122498I0J-249998D01*
G01*
X54040000Y-37647502D01*
G75*
G02*
X53790002Y-37897500I-249998J0D01*
G01*
G37*
%TD*%
D17*
%TO.C,J7*%
X50800000Y-29210000D03*
D18*
X48260000Y-29210000D03*
%TD*%
%TO.C,C7*%
G36*
G01*
X33495000Y-29080000D02*
X32545000Y-29080000D01*
G75*
G02*
X32295000Y-28830000I0J250000D01*
G01*
X32295000Y-28330000D01*
G75*
G02*
X32545000Y-28080000I250000J0D01*
G01*
X33495000Y-28080000D01*
G75*
G02*
X33745000Y-28330000I0J-250000D01*
G01*
X33745000Y-28830000D01*
G75*
G02*
X33495000Y-29080000I-250000J0D01*
G01*
G37*
G36*
G01*
X33495000Y-30980000D02*
X32545000Y-30980000D01*
G75*
G02*
X32295000Y-30730000I0J250000D01*
G01*
X32295000Y-30230000D01*
G75*
G02*
X32545000Y-29980000I250000J0D01*
G01*
X33495000Y-29980000D01*
G75*
G02*
X33745000Y-30230000I0J-250000D01*
G01*
X33745000Y-30730000D01*
G75*
G02*
X33495000Y-30980000I-250000J0D01*
G01*
G37*
%TD*%
%TO.C,C6*%
G36*
G01*
X32545000Y-90620000D02*
X33495000Y-90620000D01*
G75*
G02*
X33745000Y-90870000I0J-250000D01*
G01*
X33745000Y-91370000D01*
G75*
G02*
X33495000Y-91620000I-250000J0D01*
G01*
X32545000Y-91620000D01*
G75*
G02*
X32295000Y-91370000I0J250000D01*
G01*
X32295000Y-90870000D01*
G75*
G02*
X32545000Y-90620000I250000J0D01*
G01*
G37*
G36*
G01*
X32545000Y-88720000D02*
X33495000Y-88720000D01*
G75*
G02*
X33745000Y-88970000I0J-250000D01*
G01*
X33745000Y-89470000D01*
G75*
G02*
X33495000Y-89720000I-250000J0D01*
G01*
X32545000Y-89720000D01*
G75*
G02*
X32295000Y-89470000I0J250000D01*
G01*
X32295000Y-88970000D01*
G75*
G02*
X32545000Y-88720000I250000J0D01*
G01*
G37*
%TD*%
%TO.C,C5*%
G36*
G01*
X63975000Y-28760000D02*
X63025000Y-28760000D01*
G75*
G02*
X62775000Y-28510000I0J250000D01*
G01*
X62775000Y-28010000D01*
G75*
G02*
X63025000Y-27760000I250000J0D01*
G01*
X63975000Y-27760000D01*
G75*
G02*
X64225000Y-28010000I0J-250000D01*
G01*
X64225000Y-28510000D01*
G75*
G02*
X63975000Y-28760000I-250000J0D01*
G01*
G37*
G36*
G01*
X63975000Y-30660000D02*
X63025000Y-30660000D01*
G75*
G02*
X62775000Y-30410000I0J250000D01*
G01*
X62775000Y-29910000D01*
G75*
G02*
X63025000Y-29660000I250000J0D01*
G01*
X63975000Y-29660000D01*
G75*
G02*
X64225000Y-29910000I0J-250000D01*
G01*
X64225000Y-30410000D01*
G75*
G02*
X63975000Y-30660000I-250000J0D01*
G01*
G37*
%TD*%
%TO.C,C4*%
G36*
G01*
X64295000Y-90300000D02*
X65245000Y-90300000D01*
G75*
G02*
X65495000Y-90550000I0J-250000D01*
G01*
X65495000Y-91050000D01*
G75*
G02*
X65245000Y-91300000I-250000J0D01*
G01*
X64295000Y-91300000D01*
G75*
G02*
X64045000Y-91050000I0J250000D01*
G01*
X64045000Y-90550000D01*
G75*
G02*
X64295000Y-90300000I250000J0D01*
G01*
G37*
G36*
G01*
X64295000Y-88400000D02*
X65245000Y-88400000D01*
G75*
G02*
X65495000Y-88650000I0J-250000D01*
G01*
X65495000Y-89150000D01*
G75*
G02*
X65245000Y-89400000I-250000J0D01*
G01*
X64295000Y-89400000D01*
G75*
G02*
X64045000Y-89150000I0J250000D01*
G01*
X64045000Y-88650000D01*
G75*
G02*
X64295000Y-88400000I250000J0D01*
G01*
G37*
%TD*%
%TO.C,C2*%
G36*
G01*
X46195000Y-35430000D02*
X45245000Y-35430000D01*
G75*
G02*
X44995000Y-35180000I0J250000D01*
G01*
X44995000Y-34680000D01*
G75*
G02*
X45245000Y-34430000I250000J0D01*
G01*
X46195000Y-34430000D01*
G75*
G02*
X46445000Y-34680000I0J-250000D01*
G01*
X46445000Y-35180000D01*
G75*
G02*
X46195000Y-35430000I-250000J0D01*
G01*
G37*
G36*
G01*
X46195000Y-37330000D02*
X45245000Y-37330000D01*
G75*
G02*
X44995000Y-37080000I0J250000D01*
G01*
X44995000Y-36580000D01*
G75*
G02*
X45245000Y-36330000I250000J0D01*
G01*
X46195000Y-36330000D01*
G75*
G02*
X46445000Y-36580000I0J-250000D01*
G01*
X46445000Y-37080000D01*
G75*
G02*
X46195000Y-37330000I-250000J0D01*
G01*
G37*
%TD*%
D19*
%TO.C,U1*%
X53340000Y-69850000D03*
X50800000Y-69850000D03*
X48260000Y-69850000D03*
X45720000Y-69850000D03*
X43180000Y-69850000D03*
X40640000Y-69850000D03*
X38100000Y-69850000D03*
X35560000Y-69850000D03*
X35560000Y-46990000D03*
X38100000Y-46990000D03*
X40640000Y-46990000D03*
X43180000Y-46990000D03*
X45720000Y-46990000D03*
X48260000Y-46990000D03*
D12*
X53340000Y-46990000D03*
D19*
X50800000Y-46990000D03*
%TD*%
D17*
%TO.C,J6*%
X29210000Y-31750000D03*
D18*
X29210000Y-29210000D03*
%TD*%
D17*
%TO.C,J5*%
X29210000Y-87630000D03*
D18*
X29210000Y-90170000D03*
%TD*%
D17*
%TO.C,J4*%
X67310000Y-31750000D03*
D18*
X67310000Y-29210000D03*
%TD*%
D17*
%TO.C,J3*%
X68580000Y-87630000D03*
D18*
X68580000Y-90170000D03*
%TD*%
D17*
%TO.C,J2*%
X35560000Y-57150000D03*
X35560000Y-54610000D03*
X35560000Y-52070000D03*
D18*
X35560000Y-49530000D03*
%TD*%
D17*
%TO.C,J1*%
X49530000Y-88900000D03*
D18*
X46990000Y-88900000D03*
%TD*%
%TO.C,R8*%
G36*
G01*
X29660002Y-36072500D02*
X28759998Y-36072500D01*
G75*
G02*
X28510000Y-35822502I0J249998D01*
G01*
X28510000Y-35297498D01*
G75*
G02*
X28759998Y-35047500I249998J0D01*
G01*
X29660002Y-35047500D01*
G75*
G02*
X29910000Y-35297498I0J-249998D01*
G01*
X29910000Y-35822502D01*
G75*
G02*
X29660002Y-36072500I-249998J0D01*
G01*
G37*
G36*
G01*
X29660002Y-37897500D02*
X28759998Y-37897500D01*
G75*
G02*
X28510000Y-37647502I0J249998D01*
G01*
X28510000Y-37122498D01*
G75*
G02*
X28759998Y-36872500I249998J0D01*
G01*
X29660002Y-36872500D01*
G75*
G02*
X29910000Y-37122498I0J-249998D01*
G01*
X29910000Y-37647502D01*
G75*
G02*
X29660002Y-37897500I-249998J0D01*
G01*
G37*
%TD*%
%TO.C,R7*%
G36*
G01*
X28759998Y-40682500D02*
X29660002Y-40682500D01*
G75*
G02*
X29910000Y-40932498I0J-249998D01*
G01*
X29910000Y-41457502D01*
G75*
G02*
X29660002Y-41707500I-249998J0D01*
G01*
X28759998Y-41707500D01*
G75*
G02*
X28510000Y-41457502I0J249998D01*
G01*
X28510000Y-40932498D01*
G75*
G02*
X28759998Y-40682500I249998J0D01*
G01*
G37*
G36*
G01*
X28759998Y-38857500D02*
X29660002Y-38857500D01*
G75*
G02*
X29910000Y-39107498I0J-249998D01*
G01*
X29910000Y-39632502D01*
G75*
G02*
X29660002Y-39882500I-249998J0D01*
G01*
X28759998Y-39882500D01*
G75*
G02*
X28510000Y-39632502I0J249998D01*
G01*
X28510000Y-39107498D01*
G75*
G02*
X28759998Y-38857500I249998J0D01*
G01*
G37*
%TD*%
%TO.C,R6*%
G36*
G01*
X28759998Y-82037500D02*
X29660002Y-82037500D01*
G75*
G02*
X29910000Y-82287498I0J-249998D01*
G01*
X29910000Y-82812502D01*
G75*
G02*
X29660002Y-83062500I-249998J0D01*
G01*
X28759998Y-83062500D01*
G75*
G02*
X28510000Y-82812502I0J249998D01*
G01*
X28510000Y-82287498D01*
G75*
G02*
X28759998Y-82037500I249998J0D01*
G01*
G37*
G36*
G01*
X28759998Y-80212500D02*
X29660002Y-80212500D01*
G75*
G02*
X29910000Y-80462498I0J-249998D01*
G01*
X29910000Y-80987502D01*
G75*
G02*
X29660002Y-81237500I-249998J0D01*
G01*
X28759998Y-81237500D01*
G75*
G02*
X28510000Y-80987502I0J249998D01*
G01*
X28510000Y-80462498D01*
G75*
G02*
X28759998Y-80212500I249998J0D01*
G01*
G37*
%TD*%
%TO.C,R5*%
G36*
G01*
X67760002Y-37342500D02*
X66859998Y-37342500D01*
G75*
G02*
X66610000Y-37092502I0J249998D01*
G01*
X66610000Y-36567498D01*
G75*
G02*
X66859998Y-36317500I249998J0D01*
G01*
X67760002Y-36317500D01*
G75*
G02*
X68010000Y-36567498I0J-249998D01*
G01*
X68010000Y-37092502D01*
G75*
G02*
X67760002Y-37342500I-249998J0D01*
G01*
G37*
G36*
G01*
X67760002Y-39167500D02*
X66859998Y-39167500D01*
G75*
G02*
X66610000Y-38917502I0J249998D01*
G01*
X66610000Y-38392498D01*
G75*
G02*
X66859998Y-38142500I249998J0D01*
G01*
X67760002Y-38142500D01*
G75*
G02*
X68010000Y-38392498I0J-249998D01*
G01*
X68010000Y-38917502D01*
G75*
G02*
X67760002Y-39167500I-249998J0D01*
G01*
G37*
%TD*%
%TO.C,R4*%
G36*
G01*
X29660002Y-77070000D02*
X28759998Y-77070000D01*
G75*
G02*
X28510000Y-76820002I0J249998D01*
G01*
X28510000Y-76294998D01*
G75*
G02*
X28759998Y-76045000I249998J0D01*
G01*
X29660002Y-76045000D01*
G75*
G02*
X29910000Y-76294998I0J-249998D01*
G01*
X29910000Y-76820002D01*
G75*
G02*
X29660002Y-77070000I-249998J0D01*
G01*
G37*
G36*
G01*
X29660002Y-78895000D02*
X28759998Y-78895000D01*
G75*
G02*
X28510000Y-78645002I0J249998D01*
G01*
X28510000Y-78119998D01*
G75*
G02*
X28759998Y-77870000I249998J0D01*
G01*
X29660002Y-77870000D01*
G75*
G02*
X29910000Y-78119998I0J-249998D01*
G01*
X29910000Y-78645002D01*
G75*
G02*
X29660002Y-78895000I-249998J0D01*
G01*
G37*
%TD*%
%TO.C,R3*%
G36*
G01*
X66859998Y-41952500D02*
X67760002Y-41952500D01*
G75*
G02*
X68010000Y-42202498I0J-249998D01*
G01*
X68010000Y-42727502D01*
G75*
G02*
X67760002Y-42977500I-249998J0D01*
G01*
X66859998Y-42977500D01*
G75*
G02*
X66610000Y-42727502I0J249998D01*
G01*
X66610000Y-42202498D01*
G75*
G02*
X66859998Y-41952500I249998J0D01*
G01*
G37*
G36*
G01*
X66859998Y-40127500D02*
X67760002Y-40127500D01*
G75*
G02*
X68010000Y-40377498I0J-249998D01*
G01*
X68010000Y-40902502D01*
G75*
G02*
X67760002Y-41152500I-249998J0D01*
G01*
X66859998Y-41152500D01*
G75*
G02*
X66610000Y-40902502I0J249998D01*
G01*
X66610000Y-40377498D01*
G75*
G02*
X66859998Y-40127500I249998J0D01*
G01*
G37*
%TD*%
D20*
%TO.C,D1*%
X53340000Y-63500000D03*
D21*
X53340000Y-53340000D03*
%TD*%
%TO.C,R2*%
G36*
G01*
X68129998Y-81680000D02*
X69030002Y-81680000D01*
G75*
G02*
X69280000Y-81929998I0J-249998D01*
G01*
X69280000Y-82455002D01*
G75*
G02*
X69030002Y-82705000I-249998J0D01*
G01*
X68129998Y-82705000D01*
G75*
G02*
X67880000Y-82455002I0J249998D01*
G01*
X67880000Y-81929998D01*
G75*
G02*
X68129998Y-81680000I249998J0D01*
G01*
G37*
G36*
G01*
X68129998Y-79855000D02*
X69030002Y-79855000D01*
G75*
G02*
X69280000Y-80104998I0J-249998D01*
G01*
X69280000Y-80630002D01*
G75*
G02*
X69030002Y-80880000I-249998J0D01*
G01*
X68129998Y-80880000D01*
G75*
G02*
X67880000Y-80630002I0J249998D01*
G01*
X67880000Y-80104998D01*
G75*
G02*
X68129998Y-79855000I249998J0D01*
G01*
G37*
%TD*%
%TO.C,R1*%
G36*
G01*
X69030002Y-76712500D02*
X68129998Y-76712500D01*
G75*
G02*
X67880000Y-76462502I0J249998D01*
G01*
X67880000Y-75937498D01*
G75*
G02*
X68129998Y-75687500I249998J0D01*
G01*
X69030002Y-75687500D01*
G75*
G02*
X69280000Y-75937498I0J-249998D01*
G01*
X69280000Y-76462502D01*
G75*
G02*
X69030002Y-76712500I-249998J0D01*
G01*
G37*
G36*
G01*
X69030002Y-78537500D02*
X68129998Y-78537500D01*
G75*
G02*
X67880000Y-78287502I0J249998D01*
G01*
X67880000Y-77762498D01*
G75*
G02*
X68129998Y-77512500I249998J0D01*
G01*
X69030002Y-77512500D01*
G75*
G02*
X69280000Y-77762498I0J-249998D01*
G01*
X69280000Y-78287502D01*
G75*
G02*
X69030002Y-78537500I-249998J0D01*
G01*
G37*
%TD*%
M02*
