%TF.GenerationSoftware,KiCad,Pcbnew,5.1.7-a382d34a8~88~ubuntu18.04.1*%
%TF.CreationDate,2021-04-15T09:54:52+03:00*%
%TF.ProjectId,quadimodo_pcb,71756164-696d-46f6-946f-5f7063622e6b,rev?*%
%TF.SameCoordinates,Original*%
%TF.FileFunction,Copper,L1,Top*%
%TF.FilePolarity,Positive*%
%FSLAX46Y46*%
G04 Gerber Fmt 4.6, Leading zero omitted, Abs format (unit mm)*
G04 Created by KiCad (PCBNEW 5.1.7-a382d34a8~88~ubuntu18.04.1) date 2021-04-15 09:54:52*
%MOMM*%
%LPD*%
G01*
G04 APERTURE LIST*
%TA.AperFunction,SMDPad,CuDef*%
%ADD10R,0.600000X1.200000*%
%TD*%
%TA.AperFunction,SMDPad,CuDef*%
%ADD11C,0.100000*%
%TD*%
%TA.AperFunction,SMDPad,CuDef*%
%ADD12R,1.210000X0.590000*%
%TD*%
%TA.AperFunction,ComponentPad*%
%ADD13O,1.700000X1.700000*%
%TD*%
%TA.AperFunction,ComponentPad*%
%ADD14R,1.700000X1.700000*%
%TD*%
%TA.AperFunction,ComponentPad*%
%ADD15O,1.600000X2.000000*%
%TD*%
%TA.AperFunction,ComponentPad*%
%ADD16R,2.000000X2.000000*%
%TD*%
%TA.AperFunction,ComponentPad*%
%ADD17C,2.000000*%
%TD*%
%TA.AperFunction,ComponentPad*%
%ADD18O,1.800000X1.800000*%
%TD*%
%TA.AperFunction,ComponentPad*%
%ADD19R,1.800000X1.800000*%
%TD*%
%TA.AperFunction,ViaPad*%
%ADD20C,0.800000*%
%TD*%
%TA.AperFunction,Conductor*%
%ADD21C,0.250000*%
%TD*%
%TA.AperFunction,Conductor*%
%ADD22C,0.780000*%
%TD*%
%TA.AperFunction,Conductor*%
%ADD23C,1.270000*%
%TD*%
G04 APERTURE END LIST*
D10*
%TO.P,Q4,1*%
%TO.N,Net-(Q4-Pad1)*%
X33340000Y-34270000D03*
%TO.P,Q4,2*%
%TO.N,GND*%
X35240000Y-34270000D03*
%TO.P,Q4,3*%
%TO.N,Net-(C7-Pad1)*%
X34290000Y-31770000D03*
%TD*%
%TO.P,Q3,1*%
%TO.N,Net-(Q3-Pad1)*%
X35240000Y-85110000D03*
%TO.P,Q3,2*%
%TO.N,GND*%
X33340000Y-85110000D03*
%TO.P,Q3,3*%
%TO.N,Net-(C6-Pad1)*%
X34290000Y-87610000D03*
%TD*%
%TO.P,Q2,1*%
%TO.N,Net-(Q2-Pad1)*%
X49850000Y-34270000D03*
%TO.P,Q2,2*%
%TO.N,GND*%
X51750000Y-34270000D03*
%TO.P,Q2,3*%
%TO.N,Net-(C5-Pad1)*%
X50800000Y-31770000D03*
%TD*%
%TO.P,Q1,1*%
%TO.N,Net-(Q1-Pad1)*%
X53020000Y-85110000D03*
%TO.P,Q1,2*%
%TO.N,GND*%
X51120000Y-85110000D03*
%TO.P,Q1,3*%
%TO.N,Net-(C4-Pad1)*%
X52070000Y-87610000D03*
%TD*%
%TA.AperFunction,SMDPad,CuDef*%
D11*
%TO.P,JP1,2*%
%TO.N,Net-(C2-Pad1)*%
G36*
X50150000Y-82029398D02*
G01*
X50125466Y-82029398D01*
X50076635Y-82024588D01*
X50028510Y-82015016D01*
X49981555Y-82000772D01*
X49936222Y-81981995D01*
X49892949Y-81958864D01*
X49852150Y-81931604D01*
X49814221Y-81900476D01*
X49779524Y-81865779D01*
X49748396Y-81827850D01*
X49721136Y-81787051D01*
X49698005Y-81743778D01*
X49679228Y-81698445D01*
X49664984Y-81651490D01*
X49655412Y-81603365D01*
X49650602Y-81554534D01*
X49650602Y-81530000D01*
X49650000Y-81530000D01*
X49650000Y-81030000D01*
X49650602Y-81030000D01*
X49650602Y-81005466D01*
X49655412Y-80956635D01*
X49664984Y-80908510D01*
X49679228Y-80861555D01*
X49698005Y-80816222D01*
X49721136Y-80772949D01*
X49748396Y-80732150D01*
X49779524Y-80694221D01*
X49814221Y-80659524D01*
X49852150Y-80628396D01*
X49892949Y-80601136D01*
X49936222Y-80578005D01*
X49981555Y-80559228D01*
X50028510Y-80544984D01*
X50076635Y-80535412D01*
X50125466Y-80530602D01*
X50150000Y-80530602D01*
X50150000Y-80530000D01*
X50650000Y-80530000D01*
X50650000Y-82030000D01*
X50150000Y-82030000D01*
X50150000Y-82029398D01*
G37*
%TD.AperFunction*%
%TA.AperFunction,SMDPad,CuDef*%
%TO.P,JP1,1*%
%TO.N,Net-(J2-Pad1)*%
G36*
X50950000Y-80530000D02*
G01*
X51450000Y-80530000D01*
X51450000Y-80530602D01*
X51474534Y-80530602D01*
X51523365Y-80535412D01*
X51571490Y-80544984D01*
X51618445Y-80559228D01*
X51663778Y-80578005D01*
X51707051Y-80601136D01*
X51747850Y-80628396D01*
X51785779Y-80659524D01*
X51820476Y-80694221D01*
X51851604Y-80732150D01*
X51878864Y-80772949D01*
X51901995Y-80816222D01*
X51920772Y-80861555D01*
X51935016Y-80908510D01*
X51944588Y-80956635D01*
X51949398Y-81005466D01*
X51949398Y-81030000D01*
X51950000Y-81030000D01*
X51950000Y-81530000D01*
X51949398Y-81530000D01*
X51949398Y-81554534D01*
X51944588Y-81603365D01*
X51935016Y-81651490D01*
X51920772Y-81698445D01*
X51901995Y-81743778D01*
X51878864Y-81787051D01*
X51851604Y-81827850D01*
X51820476Y-81865779D01*
X51785779Y-81900476D01*
X51747850Y-81931604D01*
X51707051Y-81958864D01*
X51663778Y-81981995D01*
X51618445Y-82000772D01*
X51571490Y-82015016D01*
X51523365Y-82024588D01*
X51474534Y-82029398D01*
X51450000Y-82029398D01*
X51450000Y-82030000D01*
X50950000Y-82030000D01*
X50950000Y-80530000D01*
G37*
%TD.AperFunction*%
%TD*%
%TA.AperFunction,SMDPad,CuDef*%
%TO.P,JP2,2*%
%TO.N,Net-(JP2-Pad2)*%
G36*
X57670602Y-55880000D02*
G01*
X57670602Y-55855466D01*
X57675412Y-55806635D01*
X57684984Y-55758510D01*
X57699228Y-55711555D01*
X57718005Y-55666222D01*
X57741136Y-55622949D01*
X57768396Y-55582150D01*
X57799524Y-55544221D01*
X57834221Y-55509524D01*
X57872150Y-55478396D01*
X57912949Y-55451136D01*
X57956222Y-55428005D01*
X58001555Y-55409228D01*
X58048510Y-55394984D01*
X58096635Y-55385412D01*
X58145466Y-55380602D01*
X58170000Y-55380602D01*
X58170000Y-55380000D01*
X58670000Y-55380000D01*
X58670000Y-55380602D01*
X58694534Y-55380602D01*
X58743365Y-55385412D01*
X58791490Y-55394984D01*
X58838445Y-55409228D01*
X58883778Y-55428005D01*
X58927051Y-55451136D01*
X58967850Y-55478396D01*
X59005779Y-55509524D01*
X59040476Y-55544221D01*
X59071604Y-55582150D01*
X59098864Y-55622949D01*
X59121995Y-55666222D01*
X59140772Y-55711555D01*
X59155016Y-55758510D01*
X59164588Y-55806635D01*
X59169398Y-55855466D01*
X59169398Y-55880000D01*
X59170000Y-55880000D01*
X59170000Y-56380000D01*
X57670000Y-56380000D01*
X57670000Y-55880000D01*
X57670602Y-55880000D01*
G37*
%TD.AperFunction*%
%TA.AperFunction,SMDPad,CuDef*%
%TO.P,JP2,1*%
%TO.N,Net-(C4-Pad2)*%
G36*
X59170000Y-56680000D02*
G01*
X59170000Y-57180000D01*
X59169398Y-57180000D01*
X59169398Y-57204534D01*
X59164588Y-57253365D01*
X59155016Y-57301490D01*
X59140772Y-57348445D01*
X59121995Y-57393778D01*
X59098864Y-57437051D01*
X59071604Y-57477850D01*
X59040476Y-57515779D01*
X59005779Y-57550476D01*
X58967850Y-57581604D01*
X58927051Y-57608864D01*
X58883778Y-57631995D01*
X58838445Y-57650772D01*
X58791490Y-57665016D01*
X58743365Y-57674588D01*
X58694534Y-57679398D01*
X58670000Y-57679398D01*
X58670000Y-57680000D01*
X58170000Y-57680000D01*
X58170000Y-57679398D01*
X58145466Y-57679398D01*
X58096635Y-57674588D01*
X58048510Y-57665016D01*
X58001555Y-57650772D01*
X57956222Y-57631995D01*
X57912949Y-57608864D01*
X57872150Y-57581604D01*
X57834221Y-57550476D01*
X57799524Y-57515779D01*
X57768396Y-57477850D01*
X57741136Y-57437051D01*
X57718005Y-57393778D01*
X57699228Y-57348445D01*
X57684984Y-57301490D01*
X57675412Y-57253365D01*
X57670602Y-57204534D01*
X57670602Y-57180000D01*
X57670000Y-57180000D01*
X57670000Y-56680000D01*
X59170000Y-56680000D01*
G37*
%TD.AperFunction*%
%TD*%
D12*
%TO.P,U2,1*%
%TO.N,Net-(JP2-Pad2)*%
X52055000Y-74610000D03*
%TO.P,U2,2*%
%TO.N,GND*%
X52055000Y-73660000D03*
%TO.P,U2,3*%
%TO.N,Net-(R9-Pad2)*%
X52055000Y-72710000D03*
%TO.P,U2,4*%
%TO.N,N/C*%
X49545000Y-72710000D03*
%TO.P,U2,5*%
%TO.N,Net-(C2-Pad1)*%
X49545000Y-74610000D03*
%TD*%
%TO.P,R9,2*%
%TO.N,Net-(R9-Pad2)*%
%TA.AperFunction,SMDPad,CuDef*%
G36*
G01*
X51200000Y-77920002D02*
X51200000Y-77019998D01*
G75*
G02*
X51449998Y-76770000I249998J0D01*
G01*
X51975002Y-76770000D01*
G75*
G02*
X52225000Y-77019998I0J-249998D01*
G01*
X52225000Y-77920002D01*
G75*
G02*
X51975002Y-78170000I-249998J0D01*
G01*
X51449998Y-78170000D01*
G75*
G02*
X51200000Y-77920002I0J249998D01*
G01*
G37*
%TD.AperFunction*%
%TO.P,R9,1*%
%TO.N,Net-(JP2-Pad2)*%
%TA.AperFunction,SMDPad,CuDef*%
G36*
G01*
X49375000Y-77920002D02*
X49375000Y-77019998D01*
G75*
G02*
X49624998Y-76770000I249998J0D01*
G01*
X50150002Y-76770000D01*
G75*
G02*
X50400000Y-77019998I0J-249998D01*
G01*
X50400000Y-77920002D01*
G75*
G02*
X50150002Y-78170000I-249998J0D01*
G01*
X49624998Y-78170000D01*
G75*
G02*
X49375000Y-77920002I0J249998D01*
G01*
G37*
%TD.AperFunction*%
%TD*%
D13*
%TO.P,J7,2*%
%TO.N,GND*%
X44450000Y-29210000D03*
D14*
%TO.P,J7,1*%
%TO.N,Net-(C4-Pad2)*%
X41910000Y-29210000D03*
%TD*%
%TO.P,C7,2*%
%TO.N,Net-(C4-Pad2)*%
%TA.AperFunction,SMDPad,CuDef*%
G36*
G01*
X32890000Y-28735000D02*
X32890000Y-29685000D01*
G75*
G02*
X32640000Y-29935000I-250000J0D01*
G01*
X32140000Y-29935000D01*
G75*
G02*
X31890000Y-29685000I0J250000D01*
G01*
X31890000Y-28735000D01*
G75*
G02*
X32140000Y-28485000I250000J0D01*
G01*
X32640000Y-28485000D01*
G75*
G02*
X32890000Y-28735000I0J-250000D01*
G01*
G37*
%TD.AperFunction*%
%TO.P,C7,1*%
%TO.N,Net-(C7-Pad1)*%
%TA.AperFunction,SMDPad,CuDef*%
G36*
G01*
X34790000Y-28735000D02*
X34790000Y-29685000D01*
G75*
G02*
X34540000Y-29935000I-250000J0D01*
G01*
X34040000Y-29935000D01*
G75*
G02*
X33790000Y-29685000I0J250000D01*
G01*
X33790000Y-28735000D01*
G75*
G02*
X34040000Y-28485000I250000J0D01*
G01*
X34540000Y-28485000D01*
G75*
G02*
X34790000Y-28735000I0J-250000D01*
G01*
G37*
%TD.AperFunction*%
%TD*%
%TO.P,C6,2*%
%TO.N,Net-(C4-Pad2)*%
%TA.AperFunction,SMDPad,CuDef*%
G36*
G01*
X33520000Y-89695000D02*
X33520000Y-90645000D01*
G75*
G02*
X33270000Y-90895000I-250000J0D01*
G01*
X32770000Y-90895000D01*
G75*
G02*
X32520000Y-90645000I0J250000D01*
G01*
X32520000Y-89695000D01*
G75*
G02*
X32770000Y-89445000I250000J0D01*
G01*
X33270000Y-89445000D01*
G75*
G02*
X33520000Y-89695000I0J-250000D01*
G01*
G37*
%TD.AperFunction*%
%TO.P,C6,1*%
%TO.N,Net-(C6-Pad1)*%
%TA.AperFunction,SMDPad,CuDef*%
G36*
G01*
X35420000Y-89695000D02*
X35420000Y-90645000D01*
G75*
G02*
X35170000Y-90895000I-250000J0D01*
G01*
X34670000Y-90895000D01*
G75*
G02*
X34420000Y-90645000I0J250000D01*
G01*
X34420000Y-89695000D01*
G75*
G02*
X34670000Y-89445000I250000J0D01*
G01*
X35170000Y-89445000D01*
G75*
G02*
X35420000Y-89695000I0J-250000D01*
G01*
G37*
%TD.AperFunction*%
%TD*%
%TO.P,C5,2*%
%TO.N,Net-(C4-Pad2)*%
%TA.AperFunction,SMDPad,CuDef*%
G36*
G01*
X51570000Y-29685000D02*
X51570000Y-28735000D01*
G75*
G02*
X51820000Y-28485000I250000J0D01*
G01*
X52320000Y-28485000D01*
G75*
G02*
X52570000Y-28735000I0J-250000D01*
G01*
X52570000Y-29685000D01*
G75*
G02*
X52320000Y-29935000I-250000J0D01*
G01*
X51820000Y-29935000D01*
G75*
G02*
X51570000Y-29685000I0J250000D01*
G01*
G37*
%TD.AperFunction*%
%TO.P,C5,1*%
%TO.N,Net-(C5-Pad1)*%
%TA.AperFunction,SMDPad,CuDef*%
G36*
G01*
X49670000Y-29685000D02*
X49670000Y-28735000D01*
G75*
G02*
X49920000Y-28485000I250000J0D01*
G01*
X50420000Y-28485000D01*
G75*
G02*
X50670000Y-28735000I0J-250000D01*
G01*
X50670000Y-29685000D01*
G75*
G02*
X50420000Y-29935000I-250000J0D01*
G01*
X49920000Y-29935000D01*
G75*
G02*
X49670000Y-29685000I0J250000D01*
G01*
G37*
%TD.AperFunction*%
%TD*%
%TO.P,C4,2*%
%TO.N,Net-(C4-Pad2)*%
%TA.AperFunction,SMDPad,CuDef*%
G36*
G01*
X52840000Y-90645000D02*
X52840000Y-89695000D01*
G75*
G02*
X53090000Y-89445000I250000J0D01*
G01*
X53590000Y-89445000D01*
G75*
G02*
X53840000Y-89695000I0J-250000D01*
G01*
X53840000Y-90645000D01*
G75*
G02*
X53590000Y-90895000I-250000J0D01*
G01*
X53090000Y-90895000D01*
G75*
G02*
X52840000Y-90645000I0J250000D01*
G01*
G37*
%TD.AperFunction*%
%TO.P,C4,1*%
%TO.N,Net-(C4-Pad1)*%
%TA.AperFunction,SMDPad,CuDef*%
G36*
G01*
X50940000Y-90645000D02*
X50940000Y-89695000D01*
G75*
G02*
X51190000Y-89445000I250000J0D01*
G01*
X51690000Y-89445000D01*
G75*
G02*
X51940000Y-89695000I0J-250000D01*
G01*
X51940000Y-90645000D01*
G75*
G02*
X51690000Y-90895000I-250000J0D01*
G01*
X51190000Y-90895000D01*
G75*
G02*
X50940000Y-90645000I0J250000D01*
G01*
G37*
%TD.AperFunction*%
%TD*%
%TO.P,C2,2*%
%TO.N,GND*%
%TA.AperFunction,SMDPad,CuDef*%
G36*
G01*
X47465000Y-73210000D02*
X46515000Y-73210000D01*
G75*
G02*
X46265000Y-72960000I0J250000D01*
G01*
X46265000Y-72460000D01*
G75*
G02*
X46515000Y-72210000I250000J0D01*
G01*
X47465000Y-72210000D01*
G75*
G02*
X47715000Y-72460000I0J-250000D01*
G01*
X47715000Y-72960000D01*
G75*
G02*
X47465000Y-73210000I-250000J0D01*
G01*
G37*
%TD.AperFunction*%
%TO.P,C2,1*%
%TO.N,Net-(C2-Pad1)*%
%TA.AperFunction,SMDPad,CuDef*%
G36*
G01*
X47465000Y-75110000D02*
X46515000Y-75110000D01*
G75*
G02*
X46265000Y-74860000I0J250000D01*
G01*
X46265000Y-74360000D01*
G75*
G02*
X46515000Y-74110000I250000J0D01*
G01*
X47465000Y-74110000D01*
G75*
G02*
X47715000Y-74360000I0J-250000D01*
G01*
X47715000Y-74860000D01*
G75*
G02*
X47465000Y-75110000I-250000J0D01*
G01*
G37*
%TD.AperFunction*%
%TD*%
D15*
%TO.P,U1,16*%
%TO.N,Net-(U1-Pad16)*%
X53340000Y-69850000D03*
%TO.P,U1,15*%
%TO.N,Net-(U1-Pad15)*%
X50800000Y-69850000D03*
%TO.P,U1,14*%
%TO.N,Net-(J2-Pad3)*%
X48260000Y-69850000D03*
%TO.P,U1,13*%
%TO.N,Net-(J2-Pad4)*%
X45720000Y-69850000D03*
%TO.P,U1,12*%
%TO.N,Net-(J2-Pad2)*%
X43180000Y-69850000D03*
%TO.P,U1,11*%
%TO.N,Net-(U1-Pad11)*%
X40640000Y-69850000D03*
%TO.P,U1,10*%
%TO.N,GND*%
X38100000Y-69850000D03*
%TO.P,U1,9*%
%TO.N,Net-(C1-Pad1)*%
X35560000Y-69850000D03*
%TO.P,U1,8*%
%TO.N,Net-(J2-Pad1)*%
X35560000Y-46990000D03*
%TO.P,U1,7*%
%TO.N,Net-(R4-Pad2)*%
X38100000Y-46990000D03*
%TO.P,U1,6*%
%TO.N,Net-(R7-Pad2)*%
X40640000Y-46990000D03*
%TO.P,U1,5*%
%TO.N,Net-(R1-Pad2)*%
X43180000Y-46990000D03*
%TO.P,U1,4*%
%TO.N,Net-(R3-Pad2)*%
X45720000Y-46990000D03*
%TO.P,U1,3*%
%TO.N,Net-(U1-Pad3)*%
X48260000Y-46990000D03*
D16*
%TO.P,U1,1*%
%TO.N,Net-(U1-Pad1)*%
X53340000Y-46990000D03*
D15*
%TO.P,U1,2*%
%TO.N,Net-(U1-Pad2)*%
X50800000Y-46990000D03*
%TD*%
D17*
%TO.P,C1,2*%
%TO.N,GND*%
X44140000Y-36830000D03*
D16*
%TO.P,C1,1*%
%TO.N,Net-(C1-Pad1)*%
X40640000Y-36830000D03*
%TD*%
D13*
%TO.P,J6,2*%
%TO.N,Net-(C7-Pad1)*%
X29210000Y-31750000D03*
D14*
%TO.P,J6,1*%
%TO.N,Net-(C4-Pad2)*%
X29210000Y-29210000D03*
%TD*%
D13*
%TO.P,J5,2*%
%TO.N,Net-(C6-Pad1)*%
X29210000Y-87630000D03*
D14*
%TO.P,J5,1*%
%TO.N,Net-(C4-Pad2)*%
X29210000Y-90170000D03*
%TD*%
D13*
%TO.P,J4,2*%
%TO.N,Net-(C5-Pad1)*%
X55880000Y-31750000D03*
D14*
%TO.P,J4,1*%
%TO.N,Net-(C4-Pad2)*%
X55880000Y-29210000D03*
%TD*%
D13*
%TO.P,J3,2*%
%TO.N,Net-(C4-Pad1)*%
X55880000Y-87630000D03*
D14*
%TO.P,J3,1*%
%TO.N,Net-(C4-Pad2)*%
X55880000Y-90170000D03*
%TD*%
D13*
%TO.P,J2,4*%
%TO.N,Net-(J2-Pad4)*%
X35560000Y-57150000D03*
%TO.P,J2,3*%
%TO.N,Net-(J2-Pad3)*%
X35560000Y-54610000D03*
%TO.P,J2,2*%
%TO.N,Net-(J2-Pad2)*%
X35560000Y-52070000D03*
D14*
%TO.P,J2,1*%
%TO.N,Net-(J2-Pad1)*%
X35560000Y-49530000D03*
%TD*%
D13*
%TO.P,J1,2*%
%TO.N,GND*%
X44450000Y-88900000D03*
D14*
%TO.P,J1,1*%
%TO.N,Net-(C4-Pad2)*%
X41910000Y-88900000D03*
%TD*%
%TO.P,R8,2*%
%TO.N,GND*%
%TA.AperFunction,SMDPad,CuDef*%
G36*
G01*
X29660002Y-36072500D02*
X28759998Y-36072500D01*
G75*
G02*
X28510000Y-35822502I0J249998D01*
G01*
X28510000Y-35297498D01*
G75*
G02*
X28759998Y-35047500I249998J0D01*
G01*
X29660002Y-35047500D01*
G75*
G02*
X29910000Y-35297498I0J-249998D01*
G01*
X29910000Y-35822502D01*
G75*
G02*
X29660002Y-36072500I-249998J0D01*
G01*
G37*
%TD.AperFunction*%
%TO.P,R8,1*%
%TO.N,Net-(Q4-Pad1)*%
%TA.AperFunction,SMDPad,CuDef*%
G36*
G01*
X29660002Y-37897500D02*
X28759998Y-37897500D01*
G75*
G02*
X28510000Y-37647502I0J249998D01*
G01*
X28510000Y-37122498D01*
G75*
G02*
X28759998Y-36872500I249998J0D01*
G01*
X29660002Y-36872500D01*
G75*
G02*
X29910000Y-37122498I0J-249998D01*
G01*
X29910000Y-37647502D01*
G75*
G02*
X29660002Y-37897500I-249998J0D01*
G01*
G37*
%TD.AperFunction*%
%TD*%
%TO.P,R7,2*%
%TO.N,Net-(R7-Pad2)*%
%TA.AperFunction,SMDPad,CuDef*%
G36*
G01*
X28759998Y-40682500D02*
X29660002Y-40682500D01*
G75*
G02*
X29910000Y-40932498I0J-249998D01*
G01*
X29910000Y-41457502D01*
G75*
G02*
X29660002Y-41707500I-249998J0D01*
G01*
X28759998Y-41707500D01*
G75*
G02*
X28510000Y-41457502I0J249998D01*
G01*
X28510000Y-40932498D01*
G75*
G02*
X28759998Y-40682500I249998J0D01*
G01*
G37*
%TD.AperFunction*%
%TO.P,R7,1*%
%TO.N,Net-(Q4-Pad1)*%
%TA.AperFunction,SMDPad,CuDef*%
G36*
G01*
X28759998Y-38857500D02*
X29660002Y-38857500D01*
G75*
G02*
X29910000Y-39107498I0J-249998D01*
G01*
X29910000Y-39632502D01*
G75*
G02*
X29660002Y-39882500I-249998J0D01*
G01*
X28759998Y-39882500D01*
G75*
G02*
X28510000Y-39632502I0J249998D01*
G01*
X28510000Y-39107498D01*
G75*
G02*
X28759998Y-38857500I249998J0D01*
G01*
G37*
%TD.AperFunction*%
%TD*%
%TO.P,R6,2*%
%TO.N,GND*%
%TA.AperFunction,SMDPad,CuDef*%
G36*
G01*
X28759998Y-82037500D02*
X29660002Y-82037500D01*
G75*
G02*
X29910000Y-82287498I0J-249998D01*
G01*
X29910000Y-82812502D01*
G75*
G02*
X29660002Y-83062500I-249998J0D01*
G01*
X28759998Y-83062500D01*
G75*
G02*
X28510000Y-82812502I0J249998D01*
G01*
X28510000Y-82287498D01*
G75*
G02*
X28759998Y-82037500I249998J0D01*
G01*
G37*
%TD.AperFunction*%
%TO.P,R6,1*%
%TO.N,Net-(Q3-Pad1)*%
%TA.AperFunction,SMDPad,CuDef*%
G36*
G01*
X28759998Y-80212500D02*
X29660002Y-80212500D01*
G75*
G02*
X29910000Y-80462498I0J-249998D01*
G01*
X29910000Y-80987502D01*
G75*
G02*
X29660002Y-81237500I-249998J0D01*
G01*
X28759998Y-81237500D01*
G75*
G02*
X28510000Y-80987502I0J249998D01*
G01*
X28510000Y-80462498D01*
G75*
G02*
X28759998Y-80212500I249998J0D01*
G01*
G37*
%TD.AperFunction*%
%TD*%
%TO.P,R5,2*%
%TO.N,GND*%
%TA.AperFunction,SMDPad,CuDef*%
G36*
G01*
X56330002Y-37342500D02*
X55429998Y-37342500D01*
G75*
G02*
X55180000Y-37092502I0J249998D01*
G01*
X55180000Y-36567498D01*
G75*
G02*
X55429998Y-36317500I249998J0D01*
G01*
X56330002Y-36317500D01*
G75*
G02*
X56580000Y-36567498I0J-249998D01*
G01*
X56580000Y-37092502D01*
G75*
G02*
X56330002Y-37342500I-249998J0D01*
G01*
G37*
%TD.AperFunction*%
%TO.P,R5,1*%
%TO.N,Net-(Q2-Pad1)*%
%TA.AperFunction,SMDPad,CuDef*%
G36*
G01*
X56330002Y-39167500D02*
X55429998Y-39167500D01*
G75*
G02*
X55180000Y-38917502I0J249998D01*
G01*
X55180000Y-38392498D01*
G75*
G02*
X55429998Y-38142500I249998J0D01*
G01*
X56330002Y-38142500D01*
G75*
G02*
X56580000Y-38392498I0J-249998D01*
G01*
X56580000Y-38917502D01*
G75*
G02*
X56330002Y-39167500I-249998J0D01*
G01*
G37*
%TD.AperFunction*%
%TD*%
%TO.P,R4,2*%
%TO.N,Net-(R4-Pad2)*%
%TA.AperFunction,SMDPad,CuDef*%
G36*
G01*
X29660002Y-77070000D02*
X28759998Y-77070000D01*
G75*
G02*
X28510000Y-76820002I0J249998D01*
G01*
X28510000Y-76294998D01*
G75*
G02*
X28759998Y-76045000I249998J0D01*
G01*
X29660002Y-76045000D01*
G75*
G02*
X29910000Y-76294998I0J-249998D01*
G01*
X29910000Y-76820002D01*
G75*
G02*
X29660002Y-77070000I-249998J0D01*
G01*
G37*
%TD.AperFunction*%
%TO.P,R4,1*%
%TO.N,Net-(Q3-Pad1)*%
%TA.AperFunction,SMDPad,CuDef*%
G36*
G01*
X29660002Y-78895000D02*
X28759998Y-78895000D01*
G75*
G02*
X28510000Y-78645002I0J249998D01*
G01*
X28510000Y-78119998D01*
G75*
G02*
X28759998Y-77870000I249998J0D01*
G01*
X29660002Y-77870000D01*
G75*
G02*
X29910000Y-78119998I0J-249998D01*
G01*
X29910000Y-78645002D01*
G75*
G02*
X29660002Y-78895000I-249998J0D01*
G01*
G37*
%TD.AperFunction*%
%TD*%
%TO.P,R3,2*%
%TO.N,Net-(R3-Pad2)*%
%TA.AperFunction,SMDPad,CuDef*%
G36*
G01*
X55429998Y-41952500D02*
X56330002Y-41952500D01*
G75*
G02*
X56580000Y-42202498I0J-249998D01*
G01*
X56580000Y-42727502D01*
G75*
G02*
X56330002Y-42977500I-249998J0D01*
G01*
X55429998Y-42977500D01*
G75*
G02*
X55180000Y-42727502I0J249998D01*
G01*
X55180000Y-42202498D01*
G75*
G02*
X55429998Y-41952500I249998J0D01*
G01*
G37*
%TD.AperFunction*%
%TO.P,R3,1*%
%TO.N,Net-(Q2-Pad1)*%
%TA.AperFunction,SMDPad,CuDef*%
G36*
G01*
X55429998Y-40127500D02*
X56330002Y-40127500D01*
G75*
G02*
X56580000Y-40377498I0J-249998D01*
G01*
X56580000Y-40902502D01*
G75*
G02*
X56330002Y-41152500I-249998J0D01*
G01*
X55429998Y-41152500D01*
G75*
G02*
X55180000Y-40902502I0J249998D01*
G01*
X55180000Y-40377498D01*
G75*
G02*
X55429998Y-40127500I249998J0D01*
G01*
G37*
%TD.AperFunction*%
%TD*%
D18*
%TO.P,D1,2*%
%TO.N,Net-(C4-Pad2)*%
X53340000Y-63500000D03*
D19*
%TO.P,D1,1*%
%TO.N,Net-(C1-Pad1)*%
X53340000Y-53340000D03*
%TD*%
D17*
%TO.P,C3,2*%
%TO.N,GND*%
X44140000Y-80010000D03*
D16*
%TO.P,C3,1*%
%TO.N,Net-(C1-Pad1)*%
X40640000Y-80010000D03*
%TD*%
%TO.P,R2,2*%
%TO.N,GND*%
%TA.AperFunction,SMDPad,CuDef*%
G36*
G01*
X55429998Y-81680000D02*
X56330002Y-81680000D01*
G75*
G02*
X56580000Y-81929998I0J-249998D01*
G01*
X56580000Y-82455002D01*
G75*
G02*
X56330002Y-82705000I-249998J0D01*
G01*
X55429998Y-82705000D01*
G75*
G02*
X55180000Y-82455002I0J249998D01*
G01*
X55180000Y-81929998D01*
G75*
G02*
X55429998Y-81680000I249998J0D01*
G01*
G37*
%TD.AperFunction*%
%TO.P,R2,1*%
%TO.N,Net-(Q1-Pad1)*%
%TA.AperFunction,SMDPad,CuDef*%
G36*
G01*
X55429998Y-79855000D02*
X56330002Y-79855000D01*
G75*
G02*
X56580000Y-80104998I0J-249998D01*
G01*
X56580000Y-80630002D01*
G75*
G02*
X56330002Y-80880000I-249998J0D01*
G01*
X55429998Y-80880000D01*
G75*
G02*
X55180000Y-80630002I0J249998D01*
G01*
X55180000Y-80104998D01*
G75*
G02*
X55429998Y-79855000I249998J0D01*
G01*
G37*
%TD.AperFunction*%
%TD*%
%TO.P,R1,2*%
%TO.N,Net-(R1-Pad2)*%
%TA.AperFunction,SMDPad,CuDef*%
G36*
G01*
X56330002Y-76712500D02*
X55429998Y-76712500D01*
G75*
G02*
X55180000Y-76462502I0J249998D01*
G01*
X55180000Y-75937498D01*
G75*
G02*
X55429998Y-75687500I249998J0D01*
G01*
X56330002Y-75687500D01*
G75*
G02*
X56580000Y-75937498I0J-249998D01*
G01*
X56580000Y-76462502D01*
G75*
G02*
X56330002Y-76712500I-249998J0D01*
G01*
G37*
%TD.AperFunction*%
%TO.P,R1,1*%
%TO.N,Net-(Q1-Pad1)*%
%TA.AperFunction,SMDPad,CuDef*%
G36*
G01*
X56330002Y-78537500D02*
X55429998Y-78537500D01*
G75*
G02*
X55180000Y-78287502I0J249998D01*
G01*
X55180000Y-77762498D01*
G75*
G02*
X55429998Y-77512500I249998J0D01*
G01*
X56330002Y-77512500D01*
G75*
G02*
X56580000Y-77762498I0J-249998D01*
G01*
X56580000Y-78287502D01*
G75*
G02*
X56330002Y-78537500I-249998J0D01*
G01*
G37*
%TD.AperFunction*%
%TD*%
D20*
%TO.N,Net-(R1-Pad2)*%
X55880000Y-49530000D03*
%TO.N,Net-(C1-Pad1)*%
X41765010Y-53484990D03*
%TO.N,Net-(J2-Pad1)*%
X50800000Y-83820000D03*
%TO.N,Net-(J2-Pad2)*%
X43180000Y-59690000D03*
%TO.N,Net-(C4-Pad2)*%
X58420000Y-63500000D03*
%TO.N,Net-(R9-Pad2)*%
X53340000Y-77470000D03*
X53340000Y-72390000D03*
%TO.N,Net-(JP2-Pad2)*%
X54610000Y-73660000D03*
X57150000Y-73660000D03*
%TD*%
D21*
%TO.N,Net-(R1-Pad2)*%
X55880000Y-76200000D02*
X55880000Y-49530000D01*
D22*
%TO.N,GND*%
X35240000Y-34070000D02*
X35340000Y-34070000D01*
X26890000Y-85310000D02*
X26670000Y-85090000D01*
D21*
X29210000Y-85090000D02*
X28990000Y-85310000D01*
X29210000Y-82550000D02*
X29210000Y-85090000D01*
D22*
X33340000Y-85310000D02*
X28990000Y-85310000D01*
X28990000Y-85310000D02*
X26890000Y-85310000D01*
X51120000Y-85310000D02*
X50580000Y-85310000D01*
X50580000Y-85310000D02*
X49530000Y-86360000D01*
X49530000Y-86360000D02*
X49530000Y-92710000D01*
D21*
X55880000Y-82192500D02*
X58062500Y-82192500D01*
X58420000Y-82550000D02*
X58420000Y-92710000D01*
X58062500Y-82192500D02*
X58420000Y-82550000D01*
X29210000Y-35560000D02*
X26670000Y-35560000D01*
D22*
X35460000Y-34290000D02*
X35240000Y-34070000D01*
X36830000Y-34290000D02*
X35460000Y-34290000D01*
D21*
X55880000Y-36830000D02*
X58420000Y-36830000D01*
X44594990Y-79555010D02*
X44140000Y-80010000D01*
X44140000Y-36830000D02*
X44594990Y-37284990D01*
X49530000Y-85400000D02*
X49530000Y-86360000D01*
X44140000Y-80010000D02*
X49530000Y-85400000D01*
D23*
X58200000Y-34070000D02*
X58420000Y-34290000D01*
X51750000Y-34070000D02*
X58200000Y-34070000D01*
D21*
X58420000Y-36830000D02*
X58420000Y-34290000D01*
X58420000Y-34290000D02*
X58420000Y-33850000D01*
D23*
X58420000Y-34290000D02*
X58420000Y-26670000D01*
D22*
X36830000Y-26670000D02*
X36830000Y-34290000D01*
D23*
X36830000Y-26670000D02*
X26670000Y-26670000D01*
X29210000Y-45720000D02*
X29210000Y-71120000D01*
X26670000Y-45720000D02*
X29210000Y-45720000D01*
X26670000Y-26670000D02*
X26670000Y-45720000D01*
X29210000Y-71120000D02*
X26670000Y-71120000D01*
X26670000Y-71120000D02*
X26670000Y-85090000D01*
X26670000Y-85090000D02*
X26670000Y-92710000D01*
X44450000Y-88900000D02*
X44450000Y-92710000D01*
X26670000Y-92710000D02*
X44450000Y-92710000D01*
X44450000Y-92710000D02*
X58420000Y-92710000D01*
D21*
X44770000Y-72710000D02*
X44594990Y-72534990D01*
X44594990Y-37284990D02*
X44594990Y-72534990D01*
X46990000Y-72710000D02*
X44770000Y-72710000D01*
X44594990Y-72534990D02*
X44594990Y-79555010D01*
X47940000Y-73660000D02*
X46990000Y-72710000D01*
X52055000Y-73660000D02*
X47940000Y-73660000D01*
D23*
X44450000Y-29210000D02*
X44450000Y-26670000D01*
X58420000Y-26670000D02*
X44450000Y-26670000D01*
X44450000Y-26670000D02*
X36830000Y-26670000D01*
D21*
%TO.N,Net-(C1-Pad1)*%
X41765010Y-37955010D02*
X40640000Y-36830000D01*
X40640000Y-80010000D02*
X41765010Y-78884990D01*
X41765010Y-78884990D02*
X41765010Y-53484990D01*
X41765010Y-53484990D02*
X41765010Y-37955010D01*
X40640000Y-74930000D02*
X35560000Y-69850000D01*
X40640000Y-80010000D02*
X40640000Y-74930000D01*
%TO.N,Net-(J2-Pad1)*%
X35560000Y-49530000D02*
X35560000Y-46990000D01*
X51450000Y-81280000D02*
X51450000Y-83170000D01*
X51450000Y-83170000D02*
X50800000Y-83820000D01*
%TO.N,Net-(R3-Pad2)*%
X45720000Y-43180000D02*
X45720000Y-46990000D01*
X45720000Y-43180000D02*
X55880000Y-43180000D01*
X55880000Y-43180000D02*
X55880000Y-42465000D01*
%TO.N,Net-(R4-Pad2)*%
X29210000Y-76557500D02*
X30122500Y-76557500D01*
X30122500Y-76557500D02*
X31750000Y-74930000D01*
X31750000Y-74930000D02*
X31750000Y-59690000D01*
X31750000Y-59690000D02*
X38100000Y-59690000D01*
X38100000Y-59690000D02*
X38100000Y-46990000D01*
%TO.N,Net-(R7-Pad2)*%
X40640000Y-43180000D02*
X40640000Y-46990000D01*
X29210000Y-41195000D02*
X29210000Y-43180000D01*
X29210000Y-43180000D02*
X40640000Y-43180000D01*
%TO.N,Net-(Q1-Pad1)*%
X53020000Y-85310000D02*
X53020000Y-85052500D01*
X55880000Y-78025000D02*
X55880000Y-80367500D01*
X55880000Y-80367500D02*
X55522500Y-80367500D01*
X55522500Y-80367500D02*
X54610000Y-81280000D01*
X54610000Y-81280000D02*
X54610000Y-83820000D01*
X54610000Y-83820000D02*
X53340000Y-83820000D01*
X53340000Y-84990000D02*
X53020000Y-85310000D01*
X53340000Y-83820000D02*
X53340000Y-84990000D01*
%TO.N,Net-(Q2-Pad1)*%
X49850000Y-34070000D02*
X49850000Y-34610000D01*
X49850000Y-34610000D02*
X50800000Y-35560000D01*
X50800000Y-35560000D02*
X53340000Y-35560000D01*
X53340000Y-35560000D02*
X53340000Y-38100000D01*
X55325000Y-38100000D02*
X55880000Y-38655000D01*
X53340000Y-38100000D02*
X55325000Y-38100000D01*
X55880000Y-38655000D02*
X55880000Y-40640000D01*
%TO.N,Net-(Q3-Pad1)*%
X29210000Y-80725000D02*
X29925000Y-80725000D01*
X29210000Y-80725000D02*
X29210000Y-78382500D01*
X29210000Y-80725000D02*
X30480000Y-81995000D01*
X30480000Y-81995000D02*
X30480000Y-83820000D01*
X30480000Y-83820000D02*
X35560000Y-83820000D01*
X35560000Y-84990000D02*
X35240000Y-85310000D01*
X35560000Y-83820000D02*
X35560000Y-84990000D01*
%TO.N,Net-(Q4-Pad1)*%
X29210000Y-39370000D02*
X29210000Y-37385000D01*
X29210000Y-37385000D02*
X29925000Y-37385000D01*
X29925000Y-37385000D02*
X30480000Y-36830000D01*
X30480000Y-36830000D02*
X30480000Y-34290000D01*
X33120000Y-34290000D02*
X33340000Y-34070000D01*
X30480000Y-34290000D02*
X33120000Y-34290000D01*
%TO.N,Net-(J2-Pad2)*%
X43180000Y-59690000D02*
X43180000Y-69850000D01*
%TO.N,Net-(C2-Pad1)*%
X46990000Y-74610000D02*
X49545000Y-74610000D01*
X49545000Y-74610000D02*
X49545000Y-74915000D01*
X49545000Y-74915000D02*
X48260000Y-76200000D01*
X48260000Y-76200000D02*
X48260000Y-81280000D01*
X48260000Y-81280000D02*
X50150000Y-81280000D01*
D22*
%TO.N,Net-(C4-Pad2)*%
X53340000Y-90170000D02*
X55880000Y-90170000D01*
X33020000Y-90170000D02*
X29210000Y-90170000D01*
X32390000Y-29210000D02*
X29210000Y-29210000D01*
X52070000Y-29210000D02*
X55880000Y-29210000D01*
D21*
X58420000Y-57180000D02*
X58420000Y-63500000D01*
D22*
%TO.N,Net-(C4-Pad1)*%
X55660000Y-87410000D02*
X55880000Y-87630000D01*
X52070000Y-87410000D02*
X55660000Y-87410000D01*
X51440000Y-90170000D02*
X51440000Y-88260000D01*
X52070000Y-87630000D02*
X52070000Y-87410000D01*
X51440000Y-88260000D02*
X52070000Y-87630000D01*
%TO.N,Net-(C5-Pad1)*%
X55660000Y-31970000D02*
X55880000Y-31750000D01*
X50800000Y-31970000D02*
X55660000Y-31970000D01*
X50170000Y-29210000D02*
X50170000Y-31120000D01*
X50800000Y-31750000D02*
X50800000Y-31970000D01*
X50170000Y-31120000D02*
X50800000Y-31750000D01*
%TO.N,Net-(C6-Pad1)*%
X29430000Y-87410000D02*
X29210000Y-87630000D01*
X34070000Y-87630000D02*
X34290000Y-87410000D01*
X29210000Y-87630000D02*
X34070000Y-87630000D01*
X34920000Y-88480000D02*
X34070000Y-87630000D01*
X34920000Y-90170000D02*
X34920000Y-88480000D01*
%TO.N,Net-(C7-Pad1)*%
X29430000Y-31970000D02*
X29210000Y-31750000D01*
X34290000Y-31970000D02*
X29430000Y-31970000D01*
X34290000Y-29210000D02*
X34290000Y-31970000D01*
D21*
%TO.N,Net-(R9-Pad2)*%
X51712500Y-77470000D02*
X53340000Y-77470000D01*
X52375000Y-72390000D02*
X52055000Y-72710000D01*
X53340000Y-72390000D02*
X52375000Y-72390000D01*
%TO.N,Net-(JP2-Pad2)*%
X49887500Y-76777500D02*
X52055000Y-74610000D01*
X49887500Y-77470000D02*
X49887500Y-76777500D01*
X52055000Y-74610000D02*
X53660000Y-74610000D01*
X53660000Y-74610000D02*
X54610000Y-73660000D01*
X57150000Y-73660000D02*
X57150000Y-55880000D01*
X57150000Y-55880000D02*
X58420000Y-55880000D01*
%TD*%
M02*
