%TF.GenerationSoftware,KiCad,Pcbnew,5.1.7-a382d34a8~88~ubuntu18.04.1*%
%TF.CreationDate,2021-04-15T09:54:52+03:00*%
%TF.ProjectId,quadimodo_pcb,71756164-696d-46f6-946f-5f7063622e6b,rev?*%
%TF.SameCoordinates,Original*%
%TF.FileFunction,Paste,Top*%
%TF.FilePolarity,Positive*%
%FSLAX46Y46*%
G04 Gerber Fmt 4.6, Leading zero omitted, Abs format (unit mm)*
G04 Created by KiCad (PCBNEW 5.1.7-a382d34a8~88~ubuntu18.04.1) date 2021-04-15 09:54:52*
%MOMM*%
%LPD*%
G01*
G04 APERTURE LIST*
%ADD10R,0.600000X1.200000*%
%ADD11R,1.210000X0.590000*%
G04 APERTURE END LIST*
D10*
%TO.C,Q4*%
X33340000Y-34270000D03*
X35240000Y-34270000D03*
X34290000Y-31770000D03*
%TD*%
%TO.C,Q3*%
X35240000Y-85110000D03*
X33340000Y-85110000D03*
X34290000Y-87610000D03*
%TD*%
%TO.C,Q2*%
X49850000Y-34270000D03*
X51750000Y-34270000D03*
X50800000Y-31770000D03*
%TD*%
%TO.C,Q1*%
X53020000Y-85110000D03*
X51120000Y-85110000D03*
X52070000Y-87610000D03*
%TD*%
D11*
%TO.C,U2*%
X52055000Y-74610000D03*
X52055000Y-73660000D03*
X52055000Y-72710000D03*
X49545000Y-72710000D03*
X49545000Y-74610000D03*
%TD*%
%TO.C,R9*%
G36*
G01*
X51200000Y-77920002D02*
X51200000Y-77019998D01*
G75*
G02*
X51449998Y-76770000I249998J0D01*
G01*
X51975002Y-76770000D01*
G75*
G02*
X52225000Y-77019998I0J-249998D01*
G01*
X52225000Y-77920002D01*
G75*
G02*
X51975002Y-78170000I-249998J0D01*
G01*
X51449998Y-78170000D01*
G75*
G02*
X51200000Y-77920002I0J249998D01*
G01*
G37*
G36*
G01*
X49375000Y-77920002D02*
X49375000Y-77019998D01*
G75*
G02*
X49624998Y-76770000I249998J0D01*
G01*
X50150002Y-76770000D01*
G75*
G02*
X50400000Y-77019998I0J-249998D01*
G01*
X50400000Y-77920002D01*
G75*
G02*
X50150002Y-78170000I-249998J0D01*
G01*
X49624998Y-78170000D01*
G75*
G02*
X49375000Y-77920002I0J249998D01*
G01*
G37*
%TD*%
%TO.C,C7*%
G36*
G01*
X32890000Y-28735000D02*
X32890000Y-29685000D01*
G75*
G02*
X32640000Y-29935000I-250000J0D01*
G01*
X32140000Y-29935000D01*
G75*
G02*
X31890000Y-29685000I0J250000D01*
G01*
X31890000Y-28735000D01*
G75*
G02*
X32140000Y-28485000I250000J0D01*
G01*
X32640000Y-28485000D01*
G75*
G02*
X32890000Y-28735000I0J-250000D01*
G01*
G37*
G36*
G01*
X34790000Y-28735000D02*
X34790000Y-29685000D01*
G75*
G02*
X34540000Y-29935000I-250000J0D01*
G01*
X34040000Y-29935000D01*
G75*
G02*
X33790000Y-29685000I0J250000D01*
G01*
X33790000Y-28735000D01*
G75*
G02*
X34040000Y-28485000I250000J0D01*
G01*
X34540000Y-28485000D01*
G75*
G02*
X34790000Y-28735000I0J-250000D01*
G01*
G37*
%TD*%
%TO.C,C6*%
G36*
G01*
X33520000Y-89695000D02*
X33520000Y-90645000D01*
G75*
G02*
X33270000Y-90895000I-250000J0D01*
G01*
X32770000Y-90895000D01*
G75*
G02*
X32520000Y-90645000I0J250000D01*
G01*
X32520000Y-89695000D01*
G75*
G02*
X32770000Y-89445000I250000J0D01*
G01*
X33270000Y-89445000D01*
G75*
G02*
X33520000Y-89695000I0J-250000D01*
G01*
G37*
G36*
G01*
X35420000Y-89695000D02*
X35420000Y-90645000D01*
G75*
G02*
X35170000Y-90895000I-250000J0D01*
G01*
X34670000Y-90895000D01*
G75*
G02*
X34420000Y-90645000I0J250000D01*
G01*
X34420000Y-89695000D01*
G75*
G02*
X34670000Y-89445000I250000J0D01*
G01*
X35170000Y-89445000D01*
G75*
G02*
X35420000Y-89695000I0J-250000D01*
G01*
G37*
%TD*%
%TO.C,C5*%
G36*
G01*
X51570000Y-29685000D02*
X51570000Y-28735000D01*
G75*
G02*
X51820000Y-28485000I250000J0D01*
G01*
X52320000Y-28485000D01*
G75*
G02*
X52570000Y-28735000I0J-250000D01*
G01*
X52570000Y-29685000D01*
G75*
G02*
X52320000Y-29935000I-250000J0D01*
G01*
X51820000Y-29935000D01*
G75*
G02*
X51570000Y-29685000I0J250000D01*
G01*
G37*
G36*
G01*
X49670000Y-29685000D02*
X49670000Y-28735000D01*
G75*
G02*
X49920000Y-28485000I250000J0D01*
G01*
X50420000Y-28485000D01*
G75*
G02*
X50670000Y-28735000I0J-250000D01*
G01*
X50670000Y-29685000D01*
G75*
G02*
X50420000Y-29935000I-250000J0D01*
G01*
X49920000Y-29935000D01*
G75*
G02*
X49670000Y-29685000I0J250000D01*
G01*
G37*
%TD*%
%TO.C,C4*%
G36*
G01*
X52840000Y-90645000D02*
X52840000Y-89695000D01*
G75*
G02*
X53090000Y-89445000I250000J0D01*
G01*
X53590000Y-89445000D01*
G75*
G02*
X53840000Y-89695000I0J-250000D01*
G01*
X53840000Y-90645000D01*
G75*
G02*
X53590000Y-90895000I-250000J0D01*
G01*
X53090000Y-90895000D01*
G75*
G02*
X52840000Y-90645000I0J250000D01*
G01*
G37*
G36*
G01*
X50940000Y-90645000D02*
X50940000Y-89695000D01*
G75*
G02*
X51190000Y-89445000I250000J0D01*
G01*
X51690000Y-89445000D01*
G75*
G02*
X51940000Y-89695000I0J-250000D01*
G01*
X51940000Y-90645000D01*
G75*
G02*
X51690000Y-90895000I-250000J0D01*
G01*
X51190000Y-90895000D01*
G75*
G02*
X50940000Y-90645000I0J250000D01*
G01*
G37*
%TD*%
%TO.C,C2*%
G36*
G01*
X47465000Y-73210000D02*
X46515000Y-73210000D01*
G75*
G02*
X46265000Y-72960000I0J250000D01*
G01*
X46265000Y-72460000D01*
G75*
G02*
X46515000Y-72210000I250000J0D01*
G01*
X47465000Y-72210000D01*
G75*
G02*
X47715000Y-72460000I0J-250000D01*
G01*
X47715000Y-72960000D01*
G75*
G02*
X47465000Y-73210000I-250000J0D01*
G01*
G37*
G36*
G01*
X47465000Y-75110000D02*
X46515000Y-75110000D01*
G75*
G02*
X46265000Y-74860000I0J250000D01*
G01*
X46265000Y-74360000D01*
G75*
G02*
X46515000Y-74110000I250000J0D01*
G01*
X47465000Y-74110000D01*
G75*
G02*
X47715000Y-74360000I0J-250000D01*
G01*
X47715000Y-74860000D01*
G75*
G02*
X47465000Y-75110000I-250000J0D01*
G01*
G37*
%TD*%
%TO.C,R8*%
G36*
G01*
X29660002Y-36072500D02*
X28759998Y-36072500D01*
G75*
G02*
X28510000Y-35822502I0J249998D01*
G01*
X28510000Y-35297498D01*
G75*
G02*
X28759998Y-35047500I249998J0D01*
G01*
X29660002Y-35047500D01*
G75*
G02*
X29910000Y-35297498I0J-249998D01*
G01*
X29910000Y-35822502D01*
G75*
G02*
X29660002Y-36072500I-249998J0D01*
G01*
G37*
G36*
G01*
X29660002Y-37897500D02*
X28759998Y-37897500D01*
G75*
G02*
X28510000Y-37647502I0J249998D01*
G01*
X28510000Y-37122498D01*
G75*
G02*
X28759998Y-36872500I249998J0D01*
G01*
X29660002Y-36872500D01*
G75*
G02*
X29910000Y-37122498I0J-249998D01*
G01*
X29910000Y-37647502D01*
G75*
G02*
X29660002Y-37897500I-249998J0D01*
G01*
G37*
%TD*%
%TO.C,R7*%
G36*
G01*
X28759998Y-40682500D02*
X29660002Y-40682500D01*
G75*
G02*
X29910000Y-40932498I0J-249998D01*
G01*
X29910000Y-41457502D01*
G75*
G02*
X29660002Y-41707500I-249998J0D01*
G01*
X28759998Y-41707500D01*
G75*
G02*
X28510000Y-41457502I0J249998D01*
G01*
X28510000Y-40932498D01*
G75*
G02*
X28759998Y-40682500I249998J0D01*
G01*
G37*
G36*
G01*
X28759998Y-38857500D02*
X29660002Y-38857500D01*
G75*
G02*
X29910000Y-39107498I0J-249998D01*
G01*
X29910000Y-39632502D01*
G75*
G02*
X29660002Y-39882500I-249998J0D01*
G01*
X28759998Y-39882500D01*
G75*
G02*
X28510000Y-39632502I0J249998D01*
G01*
X28510000Y-39107498D01*
G75*
G02*
X28759998Y-38857500I249998J0D01*
G01*
G37*
%TD*%
%TO.C,R6*%
G36*
G01*
X28759998Y-82037500D02*
X29660002Y-82037500D01*
G75*
G02*
X29910000Y-82287498I0J-249998D01*
G01*
X29910000Y-82812502D01*
G75*
G02*
X29660002Y-83062500I-249998J0D01*
G01*
X28759998Y-83062500D01*
G75*
G02*
X28510000Y-82812502I0J249998D01*
G01*
X28510000Y-82287498D01*
G75*
G02*
X28759998Y-82037500I249998J0D01*
G01*
G37*
G36*
G01*
X28759998Y-80212500D02*
X29660002Y-80212500D01*
G75*
G02*
X29910000Y-80462498I0J-249998D01*
G01*
X29910000Y-80987502D01*
G75*
G02*
X29660002Y-81237500I-249998J0D01*
G01*
X28759998Y-81237500D01*
G75*
G02*
X28510000Y-80987502I0J249998D01*
G01*
X28510000Y-80462498D01*
G75*
G02*
X28759998Y-80212500I249998J0D01*
G01*
G37*
%TD*%
%TO.C,R5*%
G36*
G01*
X56330002Y-37342500D02*
X55429998Y-37342500D01*
G75*
G02*
X55180000Y-37092502I0J249998D01*
G01*
X55180000Y-36567498D01*
G75*
G02*
X55429998Y-36317500I249998J0D01*
G01*
X56330002Y-36317500D01*
G75*
G02*
X56580000Y-36567498I0J-249998D01*
G01*
X56580000Y-37092502D01*
G75*
G02*
X56330002Y-37342500I-249998J0D01*
G01*
G37*
G36*
G01*
X56330002Y-39167500D02*
X55429998Y-39167500D01*
G75*
G02*
X55180000Y-38917502I0J249998D01*
G01*
X55180000Y-38392498D01*
G75*
G02*
X55429998Y-38142500I249998J0D01*
G01*
X56330002Y-38142500D01*
G75*
G02*
X56580000Y-38392498I0J-249998D01*
G01*
X56580000Y-38917502D01*
G75*
G02*
X56330002Y-39167500I-249998J0D01*
G01*
G37*
%TD*%
%TO.C,R4*%
G36*
G01*
X29660002Y-77070000D02*
X28759998Y-77070000D01*
G75*
G02*
X28510000Y-76820002I0J249998D01*
G01*
X28510000Y-76294998D01*
G75*
G02*
X28759998Y-76045000I249998J0D01*
G01*
X29660002Y-76045000D01*
G75*
G02*
X29910000Y-76294998I0J-249998D01*
G01*
X29910000Y-76820002D01*
G75*
G02*
X29660002Y-77070000I-249998J0D01*
G01*
G37*
G36*
G01*
X29660002Y-78895000D02*
X28759998Y-78895000D01*
G75*
G02*
X28510000Y-78645002I0J249998D01*
G01*
X28510000Y-78119998D01*
G75*
G02*
X28759998Y-77870000I249998J0D01*
G01*
X29660002Y-77870000D01*
G75*
G02*
X29910000Y-78119998I0J-249998D01*
G01*
X29910000Y-78645002D01*
G75*
G02*
X29660002Y-78895000I-249998J0D01*
G01*
G37*
%TD*%
%TO.C,R3*%
G36*
G01*
X55429998Y-41952500D02*
X56330002Y-41952500D01*
G75*
G02*
X56580000Y-42202498I0J-249998D01*
G01*
X56580000Y-42727502D01*
G75*
G02*
X56330002Y-42977500I-249998J0D01*
G01*
X55429998Y-42977500D01*
G75*
G02*
X55180000Y-42727502I0J249998D01*
G01*
X55180000Y-42202498D01*
G75*
G02*
X55429998Y-41952500I249998J0D01*
G01*
G37*
G36*
G01*
X55429998Y-40127500D02*
X56330002Y-40127500D01*
G75*
G02*
X56580000Y-40377498I0J-249998D01*
G01*
X56580000Y-40902502D01*
G75*
G02*
X56330002Y-41152500I-249998J0D01*
G01*
X55429998Y-41152500D01*
G75*
G02*
X55180000Y-40902502I0J249998D01*
G01*
X55180000Y-40377498D01*
G75*
G02*
X55429998Y-40127500I249998J0D01*
G01*
G37*
%TD*%
%TO.C,R2*%
G36*
G01*
X55429998Y-81680000D02*
X56330002Y-81680000D01*
G75*
G02*
X56580000Y-81929998I0J-249998D01*
G01*
X56580000Y-82455002D01*
G75*
G02*
X56330002Y-82705000I-249998J0D01*
G01*
X55429998Y-82705000D01*
G75*
G02*
X55180000Y-82455002I0J249998D01*
G01*
X55180000Y-81929998D01*
G75*
G02*
X55429998Y-81680000I249998J0D01*
G01*
G37*
G36*
G01*
X55429998Y-79855000D02*
X56330002Y-79855000D01*
G75*
G02*
X56580000Y-80104998I0J-249998D01*
G01*
X56580000Y-80630002D01*
G75*
G02*
X56330002Y-80880000I-249998J0D01*
G01*
X55429998Y-80880000D01*
G75*
G02*
X55180000Y-80630002I0J249998D01*
G01*
X55180000Y-80104998D01*
G75*
G02*
X55429998Y-79855000I249998J0D01*
G01*
G37*
%TD*%
%TO.C,R1*%
G36*
G01*
X56330002Y-76712500D02*
X55429998Y-76712500D01*
G75*
G02*
X55180000Y-76462502I0J249998D01*
G01*
X55180000Y-75937498D01*
G75*
G02*
X55429998Y-75687500I249998J0D01*
G01*
X56330002Y-75687500D01*
G75*
G02*
X56580000Y-75937498I0J-249998D01*
G01*
X56580000Y-76462502D01*
G75*
G02*
X56330002Y-76712500I-249998J0D01*
G01*
G37*
G36*
G01*
X56330002Y-78537500D02*
X55429998Y-78537500D01*
G75*
G02*
X55180000Y-78287502I0J249998D01*
G01*
X55180000Y-77762498D01*
G75*
G02*
X55429998Y-77512500I249998J0D01*
G01*
X56330002Y-77512500D01*
G75*
G02*
X56580000Y-77762498I0J-249998D01*
G01*
X56580000Y-78287502D01*
G75*
G02*
X56330002Y-78537500I-249998J0D01*
G01*
G37*
%TD*%
M02*
