%TF.GenerationSoftware,KiCad,Pcbnew,5.1.7-a382d34a8~88~ubuntu18.04.1*%
%TF.CreationDate,2021-04-15T09:54:52+03:00*%
%TF.ProjectId,quadimodo_pcb,71756164-696d-46f6-946f-5f7063622e6b,rev?*%
%TF.SameCoordinates,Original*%
%TF.FileFunction,Legend,Top*%
%TF.FilePolarity,Positive*%
%FSLAX46Y46*%
G04 Gerber Fmt 4.6, Leading zero omitted, Abs format (unit mm)*
G04 Created by KiCad (PCBNEW 5.1.7-a382d34a8~88~ubuntu18.04.1) date 2021-04-15 09:54:52*
%MOMM*%
%LPD*%
G01*
G04 APERTURE LIST*
%ADD10C,0.200000*%
%ADD11C,0.120000*%
%ADD12C,0.127000*%
%ADD13C,0.150000*%
%ADD14C,0.254000*%
%ADD15C,0.015000*%
G04 APERTURE END LIST*
D10*
%TO.C,Q4*%
X32790000Y-34870000D02*
X32790000Y-33670000D01*
X35765000Y-33320000D02*
X32815000Y-33320000D01*
X35765000Y-32720000D02*
X35765000Y-33320000D01*
X32815000Y-32720000D02*
X35765000Y-32720000D01*
X32815000Y-33320000D02*
X32815000Y-32720000D01*
%TO.C,Q3*%
X35790000Y-84510000D02*
X35790000Y-85710000D01*
X32815000Y-86060000D02*
X35765000Y-86060000D01*
X32815000Y-86660000D02*
X32815000Y-86060000D01*
X35765000Y-86660000D02*
X32815000Y-86660000D01*
X35765000Y-86060000D02*
X35765000Y-86660000D01*
%TO.C,Q2*%
X49300000Y-34870000D02*
X49300000Y-33670000D01*
X52275000Y-33320000D02*
X49325000Y-33320000D01*
X52275000Y-32720000D02*
X52275000Y-33320000D01*
X49325000Y-32720000D02*
X52275000Y-32720000D01*
X49325000Y-33320000D02*
X49325000Y-32720000D01*
%TO.C,Q1*%
X53570000Y-84510000D02*
X53570000Y-85710000D01*
X50595000Y-86060000D02*
X53545000Y-86060000D01*
X50595000Y-86660000D02*
X50595000Y-86060000D01*
X53545000Y-86660000D02*
X50595000Y-86660000D01*
X53545000Y-86060000D02*
X53545000Y-86660000D01*
D11*
%TO.C,JP1*%
X52200000Y-80980000D02*
X52200000Y-81580000D01*
X50100000Y-80280000D02*
X51500000Y-80280000D01*
X49400000Y-81580000D02*
X49400000Y-80980000D01*
X51500000Y-82280000D02*
X50100000Y-82280000D01*
X52200000Y-81580000D02*
G75*
G02*
X51500000Y-82280000I-700000J0D01*
G01*
X51500000Y-80280000D02*
G75*
G02*
X52200000Y-80980000I0J-700000D01*
G01*
X49400000Y-80980000D02*
G75*
G02*
X50100000Y-80280000I700000J0D01*
G01*
X50100000Y-82280000D02*
G75*
G02*
X49400000Y-81580000I0J700000D01*
G01*
%TO.C,JP2*%
X58720000Y-57930000D02*
X58120000Y-57930000D01*
X59420000Y-55830000D02*
X59420000Y-57230000D01*
X58120000Y-55130000D02*
X58720000Y-55130000D01*
X57420000Y-57230000D02*
X57420000Y-55830000D01*
X58120000Y-57930000D02*
G75*
G02*
X57420000Y-57230000I0J700000D01*
G01*
X59420000Y-57230000D02*
G75*
G02*
X58720000Y-57930000I-700000J0D01*
G01*
X58720000Y-55130000D02*
G75*
G02*
X59420000Y-55830000I0J-700000D01*
G01*
X57420000Y-55830000D02*
G75*
G02*
X58120000Y-55130000I700000J0D01*
G01*
D10*
%TO.C,U2*%
X53310000Y-74710000D02*
G75*
G03*
X53310000Y-74710000I-100000J0D01*
G01*
D12*
X51130000Y-75110000D02*
X50470000Y-75110000D01*
X50000000Y-73995000D02*
X50000000Y-73325000D01*
X50470000Y-72210000D02*
X51130000Y-72210000D01*
D11*
%TO.C,R9*%
X50572936Y-76735000D02*
X51027064Y-76735000D01*
X50572936Y-78205000D02*
X51027064Y-78205000D01*
%TO.C,J7*%
X45780000Y-30540000D02*
X45780000Y-27880000D01*
X43180000Y-30540000D02*
X45780000Y-30540000D01*
X43180000Y-27880000D02*
X45780000Y-27880000D01*
X43180000Y-30540000D02*
X43180000Y-27880000D01*
X41910000Y-30540000D02*
X40580000Y-30540000D01*
X40580000Y-30540000D02*
X40580000Y-29210000D01*
%TO.C,C7*%
X33601252Y-29945000D02*
X33078748Y-29945000D01*
X33601252Y-28475000D02*
X33078748Y-28475000D01*
%TO.C,C6*%
X34231252Y-90905000D02*
X33708748Y-90905000D01*
X34231252Y-89435000D02*
X33708748Y-89435000D01*
%TO.C,C5*%
X50858748Y-28475000D02*
X51381252Y-28475000D01*
X50858748Y-29945000D02*
X51381252Y-29945000D01*
%TO.C,C4*%
X52128748Y-89435000D02*
X52651252Y-89435000D01*
X52128748Y-90905000D02*
X52651252Y-90905000D01*
%TO.C,C2*%
X46255000Y-73921252D02*
X46255000Y-73398748D01*
X47725000Y-73921252D02*
X47725000Y-73398748D01*
%TO.C,U1*%
X34120000Y-48030000D02*
X27220000Y-48030000D01*
X34120000Y-45490000D02*
X34120000Y-48030000D01*
D13*
G36*
X53975000Y-44450000D02*
G01*
X52705000Y-44450000D01*
X53340000Y-45085000D01*
X53975000Y-44450000D01*
G37*
X53975000Y-44450000D02*
X52705000Y-44450000D01*
X53340000Y-45085000D01*
X53975000Y-44450000D01*
D11*
X61680000Y-69230000D02*
X61680000Y-47620000D01*
X27220000Y-71350000D02*
X59550000Y-71350000D01*
X34120000Y-45490000D02*
X59550000Y-45490000D01*
X27220000Y-48030000D02*
X27220000Y-71350000D01*
X61680000Y-69220000D02*
G75*
G02*
X59550000Y-71350000I-2130000J0D01*
G01*
X59550000Y-45490000D02*
G75*
G02*
X61680000Y-47620000I0J-2130000D01*
G01*
%TO.C,C1*%
X37410354Y-33455000D02*
X37410354Y-34455000D01*
X36910354Y-33955000D02*
X37910354Y-33955000D01*
X47471000Y-36231000D02*
X47471000Y-37429000D01*
X47431000Y-35968000D02*
X47431000Y-37692000D01*
X47391000Y-35768000D02*
X47391000Y-37892000D01*
X47351000Y-35600000D02*
X47351000Y-38060000D01*
X47311000Y-35452000D02*
X47311000Y-38208000D01*
X47271000Y-35320000D02*
X47271000Y-38340000D01*
X47231000Y-35200000D02*
X47231000Y-38460000D01*
X47191000Y-35088000D02*
X47191000Y-38572000D01*
X47151000Y-34984000D02*
X47151000Y-38676000D01*
X47111000Y-34886000D02*
X47111000Y-38774000D01*
X47071000Y-34793000D02*
X47071000Y-38867000D01*
X47031000Y-34705000D02*
X47031000Y-38955000D01*
X46991000Y-34621000D02*
X46991000Y-39039000D01*
X46951000Y-34541000D02*
X46951000Y-39119000D01*
X46911000Y-34465000D02*
X46911000Y-39195000D01*
X46871000Y-34391000D02*
X46871000Y-39269000D01*
X46831000Y-34320000D02*
X46831000Y-39340000D01*
X46791000Y-34251000D02*
X46791000Y-39409000D01*
X46751000Y-34185000D02*
X46751000Y-39475000D01*
X46711000Y-34121000D02*
X46711000Y-39539000D01*
X46671000Y-34060000D02*
X46671000Y-39600000D01*
X46631000Y-34000000D02*
X46631000Y-39660000D01*
X46591000Y-33941000D02*
X46591000Y-39719000D01*
X46551000Y-33885000D02*
X46551000Y-39775000D01*
X46511000Y-33830000D02*
X46511000Y-39830000D01*
X46471000Y-33776000D02*
X46471000Y-39884000D01*
X46431000Y-33724000D02*
X46431000Y-39936000D01*
X46391000Y-33674000D02*
X46391000Y-39986000D01*
X46351000Y-33624000D02*
X46351000Y-40036000D01*
X46311000Y-33576000D02*
X46311000Y-40084000D01*
X46271000Y-33529000D02*
X46271000Y-40131000D01*
X46231000Y-33483000D02*
X46231000Y-40177000D01*
X46191000Y-33438000D02*
X46191000Y-40222000D01*
X46151000Y-33394000D02*
X46151000Y-40266000D01*
X46111000Y-33352000D02*
X46111000Y-40308000D01*
X46071000Y-33310000D02*
X46071000Y-40350000D01*
X46031000Y-33269000D02*
X46031000Y-40391000D01*
X45991000Y-33229000D02*
X45991000Y-40431000D01*
X45951000Y-33190000D02*
X45951000Y-40470000D01*
X45911000Y-33151000D02*
X45911000Y-40509000D01*
X45871000Y-33114000D02*
X45871000Y-40546000D01*
X45831000Y-33077000D02*
X45831000Y-40583000D01*
X45791000Y-33041000D02*
X45791000Y-40619000D01*
X45751000Y-33006000D02*
X45751000Y-40654000D01*
X45711000Y-32972000D02*
X45711000Y-40688000D01*
X45671000Y-32938000D02*
X45671000Y-40722000D01*
X45631000Y-32905000D02*
X45631000Y-40755000D01*
X45591000Y-32873000D02*
X45591000Y-40787000D01*
X45551000Y-32841000D02*
X45551000Y-40819000D01*
X45511000Y-32810000D02*
X45511000Y-40850000D01*
X45471000Y-32780000D02*
X45471000Y-40880000D01*
X45431000Y-32750000D02*
X45431000Y-40910000D01*
X45391000Y-32720000D02*
X45391000Y-40940000D01*
X45351000Y-38071000D02*
X45351000Y-40968000D01*
X45351000Y-32692000D02*
X45351000Y-35589000D01*
X45311000Y-38071000D02*
X45311000Y-40996000D01*
X45311000Y-32664000D02*
X45311000Y-35589000D01*
X45271000Y-38071000D02*
X45271000Y-41024000D01*
X45271000Y-32636000D02*
X45271000Y-35589000D01*
X45231000Y-38071000D02*
X45231000Y-41051000D01*
X45231000Y-32609000D02*
X45231000Y-35589000D01*
X45191000Y-38071000D02*
X45191000Y-41077000D01*
X45191000Y-32583000D02*
X45191000Y-35589000D01*
X45151000Y-38071000D02*
X45151000Y-41103000D01*
X45151000Y-32557000D02*
X45151000Y-35589000D01*
X45111000Y-38071000D02*
X45111000Y-41128000D01*
X45111000Y-32532000D02*
X45111000Y-35589000D01*
X45071000Y-38071000D02*
X45071000Y-41153000D01*
X45071000Y-32507000D02*
X45071000Y-35589000D01*
X45031000Y-38071000D02*
X45031000Y-41177000D01*
X45031000Y-32483000D02*
X45031000Y-35589000D01*
X44991000Y-38071000D02*
X44991000Y-41201000D01*
X44991000Y-32459000D02*
X44991000Y-35589000D01*
X44951000Y-38071000D02*
X44951000Y-41225000D01*
X44951000Y-32435000D02*
X44951000Y-35589000D01*
X44911000Y-38071000D02*
X44911000Y-41247000D01*
X44911000Y-32413000D02*
X44911000Y-35589000D01*
X44871000Y-38071000D02*
X44871000Y-41270000D01*
X44871000Y-32390000D02*
X44871000Y-35589000D01*
X44831000Y-38071000D02*
X44831000Y-41292000D01*
X44831000Y-32368000D02*
X44831000Y-35589000D01*
X44791000Y-38071000D02*
X44791000Y-41313000D01*
X44791000Y-32347000D02*
X44791000Y-35589000D01*
X44751000Y-38071000D02*
X44751000Y-41334000D01*
X44751000Y-32326000D02*
X44751000Y-35589000D01*
X44711000Y-38071000D02*
X44711000Y-41355000D01*
X44711000Y-32305000D02*
X44711000Y-35589000D01*
X44671000Y-38071000D02*
X44671000Y-41375000D01*
X44671000Y-32285000D02*
X44671000Y-35589000D01*
X44631000Y-38071000D02*
X44631000Y-41394000D01*
X44631000Y-32266000D02*
X44631000Y-35589000D01*
X44591000Y-38071000D02*
X44591000Y-41414000D01*
X44591000Y-32246000D02*
X44591000Y-35589000D01*
X44551000Y-38071000D02*
X44551000Y-41433000D01*
X44551000Y-32227000D02*
X44551000Y-35589000D01*
X44511000Y-38071000D02*
X44511000Y-41451000D01*
X44511000Y-32209000D02*
X44511000Y-35589000D01*
X44471000Y-38071000D02*
X44471000Y-41469000D01*
X44471000Y-32191000D02*
X44471000Y-35589000D01*
X44431000Y-38071000D02*
X44431000Y-41487000D01*
X44431000Y-32173000D02*
X44431000Y-35589000D01*
X44391000Y-38071000D02*
X44391000Y-41504000D01*
X44391000Y-32156000D02*
X44391000Y-35589000D01*
X44351000Y-38071000D02*
X44351000Y-41520000D01*
X44351000Y-32140000D02*
X44351000Y-35589000D01*
X44311000Y-38071000D02*
X44311000Y-41537000D01*
X44311000Y-32123000D02*
X44311000Y-35589000D01*
X44271000Y-38071000D02*
X44271000Y-41553000D01*
X44271000Y-32107000D02*
X44271000Y-35589000D01*
X44231000Y-38071000D02*
X44231000Y-41568000D01*
X44231000Y-32092000D02*
X44231000Y-35589000D01*
X44191000Y-38071000D02*
X44191000Y-41584000D01*
X44191000Y-32076000D02*
X44191000Y-35589000D01*
X44151000Y-38071000D02*
X44151000Y-41598000D01*
X44151000Y-32062000D02*
X44151000Y-35589000D01*
X44111000Y-38071000D02*
X44111000Y-41613000D01*
X44111000Y-32047000D02*
X44111000Y-35589000D01*
X44071000Y-38071000D02*
X44071000Y-41627000D01*
X44071000Y-32033000D02*
X44071000Y-35589000D01*
X44031000Y-38071000D02*
X44031000Y-41641000D01*
X44031000Y-32019000D02*
X44031000Y-35589000D01*
X43991000Y-38071000D02*
X43991000Y-41654000D01*
X43991000Y-32006000D02*
X43991000Y-35589000D01*
X43951000Y-38071000D02*
X43951000Y-41667000D01*
X43951000Y-31993000D02*
X43951000Y-35589000D01*
X43911000Y-38071000D02*
X43911000Y-41680000D01*
X43911000Y-31980000D02*
X43911000Y-35589000D01*
X43871000Y-38071000D02*
X43871000Y-41692000D01*
X43871000Y-31968000D02*
X43871000Y-35589000D01*
X43831000Y-38071000D02*
X43831000Y-41704000D01*
X43831000Y-31956000D02*
X43831000Y-35589000D01*
X43791000Y-38071000D02*
X43791000Y-41715000D01*
X43791000Y-31945000D02*
X43791000Y-35589000D01*
X43751000Y-38071000D02*
X43751000Y-41727000D01*
X43751000Y-31933000D02*
X43751000Y-35589000D01*
X43711000Y-38071000D02*
X43711000Y-41737000D01*
X43711000Y-31923000D02*
X43711000Y-35589000D01*
X43671000Y-38071000D02*
X43671000Y-41748000D01*
X43671000Y-31912000D02*
X43671000Y-35589000D01*
X43631000Y-38071000D02*
X43631000Y-41758000D01*
X43631000Y-31902000D02*
X43631000Y-35589000D01*
X43591000Y-38071000D02*
X43591000Y-41768000D01*
X43591000Y-31892000D02*
X43591000Y-35589000D01*
X43551000Y-38071000D02*
X43551000Y-41777000D01*
X43551000Y-31883000D02*
X43551000Y-35589000D01*
X43511000Y-38071000D02*
X43511000Y-41786000D01*
X43511000Y-31874000D02*
X43511000Y-35589000D01*
X43471000Y-38071000D02*
X43471000Y-41795000D01*
X43471000Y-31865000D02*
X43471000Y-35589000D01*
X43431000Y-38071000D02*
X43431000Y-41804000D01*
X43431000Y-31856000D02*
X43431000Y-35589000D01*
X43391000Y-38071000D02*
X43391000Y-41812000D01*
X43391000Y-31848000D02*
X43391000Y-35589000D01*
X43351000Y-38071000D02*
X43351000Y-41820000D01*
X43351000Y-31840000D02*
X43351000Y-35589000D01*
X43311000Y-38071000D02*
X43311000Y-41827000D01*
X43311000Y-31833000D02*
X43311000Y-35589000D01*
X43271000Y-38071000D02*
X43271000Y-41834000D01*
X43271000Y-31826000D02*
X43271000Y-35589000D01*
X43231000Y-38071000D02*
X43231000Y-41841000D01*
X43231000Y-31819000D02*
X43231000Y-35589000D01*
X43191000Y-38071000D02*
X43191000Y-41848000D01*
X43191000Y-31812000D02*
X43191000Y-35589000D01*
X43151000Y-38071000D02*
X43151000Y-41854000D01*
X43151000Y-31806000D02*
X43151000Y-35589000D01*
X43111000Y-38071000D02*
X43111000Y-41860000D01*
X43111000Y-31800000D02*
X43111000Y-35589000D01*
X43070000Y-38071000D02*
X43070000Y-41865000D01*
X43070000Y-31795000D02*
X43070000Y-35589000D01*
X43030000Y-38071000D02*
X43030000Y-41870000D01*
X43030000Y-31790000D02*
X43030000Y-35589000D01*
X42990000Y-38071000D02*
X42990000Y-41875000D01*
X42990000Y-31785000D02*
X42990000Y-35589000D01*
X42950000Y-38071000D02*
X42950000Y-41880000D01*
X42950000Y-31780000D02*
X42950000Y-35589000D01*
X42910000Y-38071000D02*
X42910000Y-41884000D01*
X42910000Y-31776000D02*
X42910000Y-35589000D01*
X42870000Y-31772000D02*
X42870000Y-41888000D01*
X42830000Y-31768000D02*
X42830000Y-41892000D01*
X42790000Y-31765000D02*
X42790000Y-41895000D01*
X42750000Y-31762000D02*
X42750000Y-41898000D01*
X42710000Y-31760000D02*
X42710000Y-41900000D01*
X42670000Y-31757000D02*
X42670000Y-41903000D01*
X42630000Y-31755000D02*
X42630000Y-41905000D01*
X42590000Y-31753000D02*
X42590000Y-41907000D01*
X42550000Y-31752000D02*
X42550000Y-41908000D01*
X42510000Y-31751000D02*
X42510000Y-41909000D01*
X42470000Y-31750000D02*
X42470000Y-41910000D01*
X42430000Y-31750000D02*
X42430000Y-41910000D01*
X42390000Y-31750000D02*
X42390000Y-41910000D01*
X47510000Y-36830000D02*
G75*
G03*
X47510000Y-36830000I-5120000J0D01*
G01*
%TO.C,J6*%
X27880000Y-33080000D02*
X30540000Y-33080000D01*
X27880000Y-30480000D02*
X27880000Y-33080000D01*
X30540000Y-30480000D02*
X30540000Y-33080000D01*
X27880000Y-30480000D02*
X30540000Y-30480000D01*
X27880000Y-29210000D02*
X27880000Y-27880000D01*
X27880000Y-27880000D02*
X29210000Y-27880000D01*
%TO.C,J5*%
X30540000Y-86300000D02*
X27880000Y-86300000D01*
X30540000Y-88900000D02*
X30540000Y-86300000D01*
X27880000Y-88900000D02*
X27880000Y-86300000D01*
X30540000Y-88900000D02*
X27880000Y-88900000D01*
X30540000Y-90170000D02*
X30540000Y-91500000D01*
X30540000Y-91500000D02*
X29210000Y-91500000D01*
%TO.C,J4*%
X54550000Y-33080000D02*
X57210000Y-33080000D01*
X54550000Y-30480000D02*
X54550000Y-33080000D01*
X57210000Y-30480000D02*
X57210000Y-33080000D01*
X54550000Y-30480000D02*
X57210000Y-30480000D01*
X54550000Y-29210000D02*
X54550000Y-27880000D01*
X54550000Y-27880000D02*
X55880000Y-27880000D01*
%TO.C,J3*%
X57210000Y-86300000D02*
X54550000Y-86300000D01*
X57210000Y-88900000D02*
X57210000Y-86300000D01*
X54550000Y-88900000D02*
X54550000Y-86300000D01*
X57210000Y-88900000D02*
X54550000Y-88900000D01*
X57210000Y-90170000D02*
X57210000Y-91500000D01*
X57210000Y-91500000D02*
X55880000Y-91500000D01*
%TO.C,J2*%
X34230000Y-48200000D02*
X35560000Y-48200000D01*
X34230000Y-49530000D02*
X34230000Y-48200000D01*
X34230000Y-50800000D02*
X36890000Y-50800000D01*
X36890000Y-50800000D02*
X36890000Y-58480000D01*
X34230000Y-50800000D02*
X34230000Y-58480000D01*
X34230000Y-58480000D02*
X36890000Y-58480000D01*
%TO.C,J1*%
X40580000Y-90230000D02*
X40580000Y-88900000D01*
X41910000Y-90230000D02*
X40580000Y-90230000D01*
X43180000Y-90230000D02*
X43180000Y-87570000D01*
X43180000Y-87570000D02*
X45780000Y-87570000D01*
X43180000Y-90230000D02*
X45780000Y-90230000D01*
X45780000Y-90230000D02*
X45780000Y-87570000D01*
%TO.C,R8*%
X29945000Y-36699564D02*
X29945000Y-36245436D01*
X28475000Y-36699564D02*
X28475000Y-36245436D01*
%TO.C,R7*%
X28475000Y-40055436D02*
X28475000Y-40509564D01*
X29945000Y-40055436D02*
X29945000Y-40509564D01*
%TO.C,R6*%
X28475000Y-81410436D02*
X28475000Y-81864564D01*
X29945000Y-81410436D02*
X29945000Y-81864564D01*
%TO.C,R5*%
X56615000Y-37969564D02*
X56615000Y-37515436D01*
X55145000Y-37969564D02*
X55145000Y-37515436D01*
%TO.C,R4*%
X29945000Y-77697064D02*
X29945000Y-77242936D01*
X28475000Y-77697064D02*
X28475000Y-77242936D01*
%TO.C,R3*%
X55145000Y-41325436D02*
X55145000Y-41779564D01*
X56615000Y-41325436D02*
X56615000Y-41779564D01*
%TO.C,D1*%
X54810000Y-56480000D02*
X51870000Y-56480000D01*
X54810000Y-56720000D02*
X51870000Y-56720000D01*
X54810000Y-56600000D02*
X51870000Y-56600000D01*
X53340000Y-62360000D02*
X53340000Y-61140000D01*
X53340000Y-54480000D02*
X53340000Y-55700000D01*
X54810000Y-61140000D02*
X54810000Y-55700000D01*
X51870000Y-61140000D02*
X54810000Y-61140000D01*
X51870000Y-55700000D02*
X51870000Y-61140000D01*
X54810000Y-55700000D02*
X51870000Y-55700000D01*
%TO.C,C3*%
X37410354Y-76635000D02*
X37410354Y-77635000D01*
X36910354Y-77135000D02*
X37910354Y-77135000D01*
X47471000Y-79411000D02*
X47471000Y-80609000D01*
X47431000Y-79148000D02*
X47431000Y-80872000D01*
X47391000Y-78948000D02*
X47391000Y-81072000D01*
X47351000Y-78780000D02*
X47351000Y-81240000D01*
X47311000Y-78632000D02*
X47311000Y-81388000D01*
X47271000Y-78500000D02*
X47271000Y-81520000D01*
X47231000Y-78380000D02*
X47231000Y-81640000D01*
X47191000Y-78268000D02*
X47191000Y-81752000D01*
X47151000Y-78164000D02*
X47151000Y-81856000D01*
X47111000Y-78066000D02*
X47111000Y-81954000D01*
X47071000Y-77973000D02*
X47071000Y-82047000D01*
X47031000Y-77885000D02*
X47031000Y-82135000D01*
X46991000Y-77801000D02*
X46991000Y-82219000D01*
X46951000Y-77721000D02*
X46951000Y-82299000D01*
X46911000Y-77645000D02*
X46911000Y-82375000D01*
X46871000Y-77571000D02*
X46871000Y-82449000D01*
X46831000Y-77500000D02*
X46831000Y-82520000D01*
X46791000Y-77431000D02*
X46791000Y-82589000D01*
X46751000Y-77365000D02*
X46751000Y-82655000D01*
X46711000Y-77301000D02*
X46711000Y-82719000D01*
X46671000Y-77240000D02*
X46671000Y-82780000D01*
X46631000Y-77180000D02*
X46631000Y-82840000D01*
X46591000Y-77121000D02*
X46591000Y-82899000D01*
X46551000Y-77065000D02*
X46551000Y-82955000D01*
X46511000Y-77010000D02*
X46511000Y-83010000D01*
X46471000Y-76956000D02*
X46471000Y-83064000D01*
X46431000Y-76904000D02*
X46431000Y-83116000D01*
X46391000Y-76854000D02*
X46391000Y-83166000D01*
X46351000Y-76804000D02*
X46351000Y-83216000D01*
X46311000Y-76756000D02*
X46311000Y-83264000D01*
X46271000Y-76709000D02*
X46271000Y-83311000D01*
X46231000Y-76663000D02*
X46231000Y-83357000D01*
X46191000Y-76618000D02*
X46191000Y-83402000D01*
X46151000Y-76574000D02*
X46151000Y-83446000D01*
X46111000Y-76532000D02*
X46111000Y-83488000D01*
X46071000Y-76490000D02*
X46071000Y-83530000D01*
X46031000Y-76449000D02*
X46031000Y-83571000D01*
X45991000Y-76409000D02*
X45991000Y-83611000D01*
X45951000Y-76370000D02*
X45951000Y-83650000D01*
X45911000Y-76331000D02*
X45911000Y-83689000D01*
X45871000Y-76294000D02*
X45871000Y-83726000D01*
X45831000Y-76257000D02*
X45831000Y-83763000D01*
X45791000Y-76221000D02*
X45791000Y-83799000D01*
X45751000Y-76186000D02*
X45751000Y-83834000D01*
X45711000Y-76152000D02*
X45711000Y-83868000D01*
X45671000Y-76118000D02*
X45671000Y-83902000D01*
X45631000Y-76085000D02*
X45631000Y-83935000D01*
X45591000Y-76053000D02*
X45591000Y-83967000D01*
X45551000Y-76021000D02*
X45551000Y-83999000D01*
X45511000Y-75990000D02*
X45511000Y-84030000D01*
X45471000Y-75960000D02*
X45471000Y-84060000D01*
X45431000Y-75930000D02*
X45431000Y-84090000D01*
X45391000Y-75900000D02*
X45391000Y-84120000D01*
X45351000Y-81251000D02*
X45351000Y-84148000D01*
X45351000Y-75872000D02*
X45351000Y-78769000D01*
X45311000Y-81251000D02*
X45311000Y-84176000D01*
X45311000Y-75844000D02*
X45311000Y-78769000D01*
X45271000Y-81251000D02*
X45271000Y-84204000D01*
X45271000Y-75816000D02*
X45271000Y-78769000D01*
X45231000Y-81251000D02*
X45231000Y-84231000D01*
X45231000Y-75789000D02*
X45231000Y-78769000D01*
X45191000Y-81251000D02*
X45191000Y-84257000D01*
X45191000Y-75763000D02*
X45191000Y-78769000D01*
X45151000Y-81251000D02*
X45151000Y-84283000D01*
X45151000Y-75737000D02*
X45151000Y-78769000D01*
X45111000Y-81251000D02*
X45111000Y-84308000D01*
X45111000Y-75712000D02*
X45111000Y-78769000D01*
X45071000Y-81251000D02*
X45071000Y-84333000D01*
X45071000Y-75687000D02*
X45071000Y-78769000D01*
X45031000Y-81251000D02*
X45031000Y-84357000D01*
X45031000Y-75663000D02*
X45031000Y-78769000D01*
X44991000Y-81251000D02*
X44991000Y-84381000D01*
X44991000Y-75639000D02*
X44991000Y-78769000D01*
X44951000Y-81251000D02*
X44951000Y-84405000D01*
X44951000Y-75615000D02*
X44951000Y-78769000D01*
X44911000Y-81251000D02*
X44911000Y-84427000D01*
X44911000Y-75593000D02*
X44911000Y-78769000D01*
X44871000Y-81251000D02*
X44871000Y-84450000D01*
X44871000Y-75570000D02*
X44871000Y-78769000D01*
X44831000Y-81251000D02*
X44831000Y-84472000D01*
X44831000Y-75548000D02*
X44831000Y-78769000D01*
X44791000Y-81251000D02*
X44791000Y-84493000D01*
X44791000Y-75527000D02*
X44791000Y-78769000D01*
X44751000Y-81251000D02*
X44751000Y-84514000D01*
X44751000Y-75506000D02*
X44751000Y-78769000D01*
X44711000Y-81251000D02*
X44711000Y-84535000D01*
X44711000Y-75485000D02*
X44711000Y-78769000D01*
X44671000Y-81251000D02*
X44671000Y-84555000D01*
X44671000Y-75465000D02*
X44671000Y-78769000D01*
X44631000Y-81251000D02*
X44631000Y-84574000D01*
X44631000Y-75446000D02*
X44631000Y-78769000D01*
X44591000Y-81251000D02*
X44591000Y-84594000D01*
X44591000Y-75426000D02*
X44591000Y-78769000D01*
X44551000Y-81251000D02*
X44551000Y-84613000D01*
X44551000Y-75407000D02*
X44551000Y-78769000D01*
X44511000Y-81251000D02*
X44511000Y-84631000D01*
X44511000Y-75389000D02*
X44511000Y-78769000D01*
X44471000Y-81251000D02*
X44471000Y-84649000D01*
X44471000Y-75371000D02*
X44471000Y-78769000D01*
X44431000Y-81251000D02*
X44431000Y-84667000D01*
X44431000Y-75353000D02*
X44431000Y-78769000D01*
X44391000Y-81251000D02*
X44391000Y-84684000D01*
X44391000Y-75336000D02*
X44391000Y-78769000D01*
X44351000Y-81251000D02*
X44351000Y-84700000D01*
X44351000Y-75320000D02*
X44351000Y-78769000D01*
X44311000Y-81251000D02*
X44311000Y-84717000D01*
X44311000Y-75303000D02*
X44311000Y-78769000D01*
X44271000Y-81251000D02*
X44271000Y-84733000D01*
X44271000Y-75287000D02*
X44271000Y-78769000D01*
X44231000Y-81251000D02*
X44231000Y-84748000D01*
X44231000Y-75272000D02*
X44231000Y-78769000D01*
X44191000Y-81251000D02*
X44191000Y-84764000D01*
X44191000Y-75256000D02*
X44191000Y-78769000D01*
X44151000Y-81251000D02*
X44151000Y-84778000D01*
X44151000Y-75242000D02*
X44151000Y-78769000D01*
X44111000Y-81251000D02*
X44111000Y-84793000D01*
X44111000Y-75227000D02*
X44111000Y-78769000D01*
X44071000Y-81251000D02*
X44071000Y-84807000D01*
X44071000Y-75213000D02*
X44071000Y-78769000D01*
X44031000Y-81251000D02*
X44031000Y-84821000D01*
X44031000Y-75199000D02*
X44031000Y-78769000D01*
X43991000Y-81251000D02*
X43991000Y-84834000D01*
X43991000Y-75186000D02*
X43991000Y-78769000D01*
X43951000Y-81251000D02*
X43951000Y-84847000D01*
X43951000Y-75173000D02*
X43951000Y-78769000D01*
X43911000Y-81251000D02*
X43911000Y-84860000D01*
X43911000Y-75160000D02*
X43911000Y-78769000D01*
X43871000Y-81251000D02*
X43871000Y-84872000D01*
X43871000Y-75148000D02*
X43871000Y-78769000D01*
X43831000Y-81251000D02*
X43831000Y-84884000D01*
X43831000Y-75136000D02*
X43831000Y-78769000D01*
X43791000Y-81251000D02*
X43791000Y-84895000D01*
X43791000Y-75125000D02*
X43791000Y-78769000D01*
X43751000Y-81251000D02*
X43751000Y-84907000D01*
X43751000Y-75113000D02*
X43751000Y-78769000D01*
X43711000Y-81251000D02*
X43711000Y-84917000D01*
X43711000Y-75103000D02*
X43711000Y-78769000D01*
X43671000Y-81251000D02*
X43671000Y-84928000D01*
X43671000Y-75092000D02*
X43671000Y-78769000D01*
X43631000Y-81251000D02*
X43631000Y-84938000D01*
X43631000Y-75082000D02*
X43631000Y-78769000D01*
X43591000Y-81251000D02*
X43591000Y-84948000D01*
X43591000Y-75072000D02*
X43591000Y-78769000D01*
X43551000Y-81251000D02*
X43551000Y-84957000D01*
X43551000Y-75063000D02*
X43551000Y-78769000D01*
X43511000Y-81251000D02*
X43511000Y-84966000D01*
X43511000Y-75054000D02*
X43511000Y-78769000D01*
X43471000Y-81251000D02*
X43471000Y-84975000D01*
X43471000Y-75045000D02*
X43471000Y-78769000D01*
X43431000Y-81251000D02*
X43431000Y-84984000D01*
X43431000Y-75036000D02*
X43431000Y-78769000D01*
X43391000Y-81251000D02*
X43391000Y-84992000D01*
X43391000Y-75028000D02*
X43391000Y-78769000D01*
X43351000Y-81251000D02*
X43351000Y-85000000D01*
X43351000Y-75020000D02*
X43351000Y-78769000D01*
X43311000Y-81251000D02*
X43311000Y-85007000D01*
X43311000Y-75013000D02*
X43311000Y-78769000D01*
X43271000Y-81251000D02*
X43271000Y-85014000D01*
X43271000Y-75006000D02*
X43271000Y-78769000D01*
X43231000Y-81251000D02*
X43231000Y-85021000D01*
X43231000Y-74999000D02*
X43231000Y-78769000D01*
X43191000Y-81251000D02*
X43191000Y-85028000D01*
X43191000Y-74992000D02*
X43191000Y-78769000D01*
X43151000Y-81251000D02*
X43151000Y-85034000D01*
X43151000Y-74986000D02*
X43151000Y-78769000D01*
X43111000Y-81251000D02*
X43111000Y-85040000D01*
X43111000Y-74980000D02*
X43111000Y-78769000D01*
X43070000Y-81251000D02*
X43070000Y-85045000D01*
X43070000Y-74975000D02*
X43070000Y-78769000D01*
X43030000Y-81251000D02*
X43030000Y-85050000D01*
X43030000Y-74970000D02*
X43030000Y-78769000D01*
X42990000Y-81251000D02*
X42990000Y-85055000D01*
X42990000Y-74965000D02*
X42990000Y-78769000D01*
X42950000Y-81251000D02*
X42950000Y-85060000D01*
X42950000Y-74960000D02*
X42950000Y-78769000D01*
X42910000Y-81251000D02*
X42910000Y-85064000D01*
X42910000Y-74956000D02*
X42910000Y-78769000D01*
X42870000Y-74952000D02*
X42870000Y-85068000D01*
X42830000Y-74948000D02*
X42830000Y-85072000D01*
X42790000Y-74945000D02*
X42790000Y-85075000D01*
X42750000Y-74942000D02*
X42750000Y-85078000D01*
X42710000Y-74940000D02*
X42710000Y-85080000D01*
X42670000Y-74937000D02*
X42670000Y-85083000D01*
X42630000Y-74935000D02*
X42630000Y-85085000D01*
X42590000Y-74933000D02*
X42590000Y-85087000D01*
X42550000Y-74932000D02*
X42550000Y-85088000D01*
X42510000Y-74931000D02*
X42510000Y-85089000D01*
X42470000Y-74930000D02*
X42470000Y-85090000D01*
X42430000Y-74930000D02*
X42430000Y-85090000D01*
X42390000Y-74930000D02*
X42390000Y-85090000D01*
X47510000Y-80010000D02*
G75*
G03*
X47510000Y-80010000I-5120000J0D01*
G01*
%TO.C,R2*%
X55145000Y-81052936D02*
X55145000Y-81507064D01*
X56615000Y-81052936D02*
X56615000Y-81507064D01*
%TO.C,R1*%
X56615000Y-77339564D02*
X56615000Y-76885436D01*
X55145000Y-77339564D02*
X55145000Y-76885436D01*
%TO.C,Q4*%
D14*
X34985476Y-33140952D02*
X34925000Y-33261904D01*
X34804047Y-33382857D01*
X34622619Y-33564285D01*
X34562142Y-33685238D01*
X34562142Y-33806190D01*
X34864523Y-33745714D02*
X34804047Y-33866666D01*
X34683095Y-33987619D01*
X34441190Y-34048095D01*
X34017857Y-34048095D01*
X33775952Y-33987619D01*
X33655000Y-33866666D01*
X33594523Y-33745714D01*
X33594523Y-33503809D01*
X33655000Y-33382857D01*
X33775952Y-33261904D01*
X34017857Y-33201428D01*
X34441190Y-33201428D01*
X34683095Y-33261904D01*
X34804047Y-33382857D01*
X34864523Y-33503809D01*
X34864523Y-33745714D01*
X34017857Y-32112857D02*
X34864523Y-32112857D01*
X33534047Y-32415238D02*
X34441190Y-32717619D01*
X34441190Y-31931428D01*
%TO.C,Q3*%
X34985476Y-86480952D02*
X34925000Y-86601904D01*
X34804047Y-86722857D01*
X34622619Y-86904285D01*
X34562142Y-87025238D01*
X34562142Y-87146190D01*
X34864523Y-87085714D02*
X34804047Y-87206666D01*
X34683095Y-87327619D01*
X34441190Y-87388095D01*
X34017857Y-87388095D01*
X33775952Y-87327619D01*
X33655000Y-87206666D01*
X33594523Y-87085714D01*
X33594523Y-86843809D01*
X33655000Y-86722857D01*
X33775952Y-86601904D01*
X34017857Y-86541428D01*
X34441190Y-86541428D01*
X34683095Y-86601904D01*
X34804047Y-86722857D01*
X34864523Y-86843809D01*
X34864523Y-87085714D01*
X33594523Y-86118095D02*
X33594523Y-85331904D01*
X34078333Y-85755238D01*
X34078333Y-85573809D01*
X34138809Y-85452857D01*
X34199285Y-85392380D01*
X34320238Y-85331904D01*
X34622619Y-85331904D01*
X34743571Y-85392380D01*
X34804047Y-85452857D01*
X34864523Y-85573809D01*
X34864523Y-85936666D01*
X34804047Y-86057619D01*
X34743571Y-86118095D01*
%TO.C,Q2*%
X51495476Y-33140952D02*
X51435000Y-33261904D01*
X51314047Y-33382857D01*
X51132619Y-33564285D01*
X51072142Y-33685238D01*
X51072142Y-33806190D01*
X51374523Y-33745714D02*
X51314047Y-33866666D01*
X51193095Y-33987619D01*
X50951190Y-34048095D01*
X50527857Y-34048095D01*
X50285952Y-33987619D01*
X50165000Y-33866666D01*
X50104523Y-33745714D01*
X50104523Y-33503809D01*
X50165000Y-33382857D01*
X50285952Y-33261904D01*
X50527857Y-33201428D01*
X50951190Y-33201428D01*
X51193095Y-33261904D01*
X51314047Y-33382857D01*
X51374523Y-33503809D01*
X51374523Y-33745714D01*
X50225476Y-32717619D02*
X50165000Y-32657142D01*
X50104523Y-32536190D01*
X50104523Y-32233809D01*
X50165000Y-32112857D01*
X50225476Y-32052380D01*
X50346428Y-31991904D01*
X50467380Y-31991904D01*
X50648809Y-32052380D01*
X51374523Y-32778095D01*
X51374523Y-31991904D01*
%TO.C,Q1*%
X52765476Y-86480952D02*
X52705000Y-86601904D01*
X52584047Y-86722857D01*
X52402619Y-86904285D01*
X52342142Y-87025238D01*
X52342142Y-87146190D01*
X52644523Y-87085714D02*
X52584047Y-87206666D01*
X52463095Y-87327619D01*
X52221190Y-87388095D01*
X51797857Y-87388095D01*
X51555952Y-87327619D01*
X51435000Y-87206666D01*
X51374523Y-87085714D01*
X51374523Y-86843809D01*
X51435000Y-86722857D01*
X51555952Y-86601904D01*
X51797857Y-86541428D01*
X52221190Y-86541428D01*
X52463095Y-86601904D01*
X52584047Y-86722857D01*
X52644523Y-86843809D01*
X52644523Y-87085714D01*
X52644523Y-85331904D02*
X52644523Y-86057619D01*
X52644523Y-85694761D02*
X51374523Y-85694761D01*
X51555952Y-85815714D01*
X51676904Y-85936666D01*
X51737380Y-86057619D01*
%TO.C,JP1*%
D13*
X49966666Y-82532380D02*
X49966666Y-83246666D01*
X49919047Y-83389523D01*
X49823809Y-83484761D01*
X49680952Y-83532380D01*
X49585714Y-83532380D01*
X50442857Y-83532380D02*
X50442857Y-82532380D01*
X50823809Y-82532380D01*
X50919047Y-82580000D01*
X50966666Y-82627619D01*
X51014285Y-82722857D01*
X51014285Y-82865714D01*
X50966666Y-82960952D01*
X50919047Y-83008571D01*
X50823809Y-83056190D01*
X50442857Y-83056190D01*
X51966666Y-83532380D02*
X51395238Y-83532380D01*
X51680952Y-83532380D02*
X51680952Y-82532380D01*
X51585714Y-82675238D01*
X51490476Y-82770476D01*
X51395238Y-82818095D01*
%TO.C,JP2*%
X56072380Y-57363333D02*
X56786666Y-57363333D01*
X56929523Y-57410952D01*
X57024761Y-57506190D01*
X57072380Y-57649047D01*
X57072380Y-57744285D01*
X57072380Y-56887142D02*
X56072380Y-56887142D01*
X56072380Y-56506190D01*
X56120000Y-56410952D01*
X56167619Y-56363333D01*
X56262857Y-56315714D01*
X56405714Y-56315714D01*
X56500952Y-56363333D01*
X56548571Y-56410952D01*
X56596190Y-56506190D01*
X56596190Y-56887142D01*
X56167619Y-55934761D02*
X56120000Y-55887142D01*
X56072380Y-55791904D01*
X56072380Y-55553809D01*
X56120000Y-55458571D01*
X56167619Y-55410952D01*
X56262857Y-55363333D01*
X56358095Y-55363333D01*
X56500952Y-55410952D01*
X57072380Y-55982380D01*
X57072380Y-55363333D01*
%TO.C,U2*%
D15*
X50250476Y-75729904D02*
X50250476Y-76377523D01*
X50288571Y-76453714D01*
X50326666Y-76491809D01*
X50402857Y-76529904D01*
X50555238Y-76529904D01*
X50631428Y-76491809D01*
X50669523Y-76453714D01*
X50707619Y-76377523D01*
X50707619Y-75729904D01*
X51050476Y-75806095D02*
X51088571Y-75768000D01*
X51164761Y-75729904D01*
X51355238Y-75729904D01*
X51431428Y-75768000D01*
X51469523Y-75806095D01*
X51507619Y-75882285D01*
X51507619Y-75958476D01*
X51469523Y-76072761D01*
X51012380Y-76529904D01*
X51507619Y-76529904D01*
%TO.C,R9*%
D13*
X50633333Y-76272380D02*
X50300000Y-75796190D01*
X50061904Y-76272380D02*
X50061904Y-75272380D01*
X50442857Y-75272380D01*
X50538095Y-75320000D01*
X50585714Y-75367619D01*
X50633333Y-75462857D01*
X50633333Y-75605714D01*
X50585714Y-75700952D01*
X50538095Y-75748571D01*
X50442857Y-75796190D01*
X50061904Y-75796190D01*
X51109523Y-76272380D02*
X51300000Y-76272380D01*
X51395238Y-76224761D01*
X51442857Y-76177142D01*
X51538095Y-76034285D01*
X51585714Y-75843809D01*
X51585714Y-75462857D01*
X51538095Y-75367619D01*
X51490476Y-75320000D01*
X51395238Y-75272380D01*
X51204761Y-75272380D01*
X51109523Y-75320000D01*
X51061904Y-75367619D01*
X51014285Y-75462857D01*
X51014285Y-75700952D01*
X51061904Y-75796190D01*
X51109523Y-75843809D01*
X51204761Y-75891428D01*
X51395238Y-75891428D01*
X51490476Y-75843809D01*
X51538095Y-75796190D01*
X51585714Y-75700952D01*
%TO.C,J7*%
X39032380Y-29543333D02*
X39746666Y-29543333D01*
X39889523Y-29590952D01*
X39984761Y-29686190D01*
X40032380Y-29829047D01*
X40032380Y-29924285D01*
X39032380Y-29162380D02*
X39032380Y-28495714D01*
X40032380Y-28924285D01*
%TO.C,C7*%
X33173333Y-31247142D02*
X33125714Y-31294761D01*
X32982857Y-31342380D01*
X32887619Y-31342380D01*
X32744761Y-31294761D01*
X32649523Y-31199523D01*
X32601904Y-31104285D01*
X32554285Y-30913809D01*
X32554285Y-30770952D01*
X32601904Y-30580476D01*
X32649523Y-30485238D01*
X32744761Y-30390000D01*
X32887619Y-30342380D01*
X32982857Y-30342380D01*
X33125714Y-30390000D01*
X33173333Y-30437619D01*
X33506666Y-30342380D02*
X34173333Y-30342380D01*
X33744761Y-31342380D01*
%TO.C,C6*%
X33803333Y-92207142D02*
X33755714Y-92254761D01*
X33612857Y-92302380D01*
X33517619Y-92302380D01*
X33374761Y-92254761D01*
X33279523Y-92159523D01*
X33231904Y-92064285D01*
X33184285Y-91873809D01*
X33184285Y-91730952D01*
X33231904Y-91540476D01*
X33279523Y-91445238D01*
X33374761Y-91350000D01*
X33517619Y-91302380D01*
X33612857Y-91302380D01*
X33755714Y-91350000D01*
X33803333Y-91397619D01*
X34660476Y-91302380D02*
X34470000Y-91302380D01*
X34374761Y-91350000D01*
X34327142Y-91397619D01*
X34231904Y-91540476D01*
X34184285Y-91730952D01*
X34184285Y-92111904D01*
X34231904Y-92207142D01*
X34279523Y-92254761D01*
X34374761Y-92302380D01*
X34565238Y-92302380D01*
X34660476Y-92254761D01*
X34708095Y-92207142D01*
X34755714Y-92111904D01*
X34755714Y-91873809D01*
X34708095Y-91778571D01*
X34660476Y-91730952D01*
X34565238Y-91683333D01*
X34374761Y-91683333D01*
X34279523Y-91730952D01*
X34231904Y-91778571D01*
X34184285Y-91873809D01*
%TO.C,C5*%
X50953333Y-27887142D02*
X50905714Y-27934761D01*
X50762857Y-27982380D01*
X50667619Y-27982380D01*
X50524761Y-27934761D01*
X50429523Y-27839523D01*
X50381904Y-27744285D01*
X50334285Y-27553809D01*
X50334285Y-27410952D01*
X50381904Y-27220476D01*
X50429523Y-27125238D01*
X50524761Y-27030000D01*
X50667619Y-26982380D01*
X50762857Y-26982380D01*
X50905714Y-27030000D01*
X50953333Y-27077619D01*
X51858095Y-26982380D02*
X51381904Y-26982380D01*
X51334285Y-27458571D01*
X51381904Y-27410952D01*
X51477142Y-27363333D01*
X51715238Y-27363333D01*
X51810476Y-27410952D01*
X51858095Y-27458571D01*
X51905714Y-27553809D01*
X51905714Y-27791904D01*
X51858095Y-27887142D01*
X51810476Y-27934761D01*
X51715238Y-27982380D01*
X51477142Y-27982380D01*
X51381904Y-27934761D01*
X51334285Y-27887142D01*
%TO.C,C4*%
X52223333Y-88847142D02*
X52175714Y-88894761D01*
X52032857Y-88942380D01*
X51937619Y-88942380D01*
X51794761Y-88894761D01*
X51699523Y-88799523D01*
X51651904Y-88704285D01*
X51604285Y-88513809D01*
X51604285Y-88370952D01*
X51651904Y-88180476D01*
X51699523Y-88085238D01*
X51794761Y-87990000D01*
X51937619Y-87942380D01*
X52032857Y-87942380D01*
X52175714Y-87990000D01*
X52223333Y-88037619D01*
X53080476Y-88275714D02*
X53080476Y-88942380D01*
X52842380Y-87894761D02*
X52604285Y-88609047D01*
X53223333Y-88609047D01*
%TO.C,C2*%
X45667142Y-73826666D02*
X45714761Y-73874285D01*
X45762380Y-74017142D01*
X45762380Y-74112380D01*
X45714761Y-74255238D01*
X45619523Y-74350476D01*
X45524285Y-74398095D01*
X45333809Y-74445714D01*
X45190952Y-74445714D01*
X45000476Y-74398095D01*
X44905238Y-74350476D01*
X44810000Y-74255238D01*
X44762380Y-74112380D01*
X44762380Y-74017142D01*
X44810000Y-73874285D01*
X44857619Y-73826666D01*
X44857619Y-73445714D02*
X44810000Y-73398095D01*
X44762380Y-73302857D01*
X44762380Y-73064761D01*
X44810000Y-72969523D01*
X44857619Y-72921904D01*
X44952857Y-72874285D01*
X45048095Y-72874285D01*
X45190952Y-72921904D01*
X45762380Y-73493333D01*
X45762380Y-72874285D01*
%TO.C,U1*%
X25792380Y-69751904D02*
X26601904Y-69751904D01*
X26697142Y-69704285D01*
X26744761Y-69656666D01*
X26792380Y-69561428D01*
X26792380Y-69370952D01*
X26744761Y-69275714D01*
X26697142Y-69228095D01*
X26601904Y-69180476D01*
X25792380Y-69180476D01*
X26792380Y-68180476D02*
X26792380Y-68751904D01*
X26792380Y-68466190D02*
X25792380Y-68466190D01*
X25935238Y-68561428D01*
X26030476Y-68656666D01*
X26078095Y-68751904D01*
%TO.C,C1*%
X42223333Y-30937142D02*
X42175714Y-30984761D01*
X42032857Y-31032380D01*
X41937619Y-31032380D01*
X41794761Y-30984761D01*
X41699523Y-30889523D01*
X41651904Y-30794285D01*
X41604285Y-30603809D01*
X41604285Y-30460952D01*
X41651904Y-30270476D01*
X41699523Y-30175238D01*
X41794761Y-30080000D01*
X41937619Y-30032380D01*
X42032857Y-30032380D01*
X42175714Y-30080000D01*
X42223333Y-30127619D01*
X43175714Y-31032380D02*
X42604285Y-31032380D01*
X42890000Y-31032380D02*
X42890000Y-30032380D01*
X42794761Y-30175238D01*
X42699523Y-30270476D01*
X42604285Y-30318095D01*
%TO.C,J6*%
X28876666Y-26332380D02*
X28876666Y-27046666D01*
X28829047Y-27189523D01*
X28733809Y-27284761D01*
X28590952Y-27332380D01*
X28495714Y-27332380D01*
X29781428Y-26332380D02*
X29590952Y-26332380D01*
X29495714Y-26380000D01*
X29448095Y-26427619D01*
X29352857Y-26570476D01*
X29305238Y-26760952D01*
X29305238Y-27141904D01*
X29352857Y-27237142D01*
X29400476Y-27284761D01*
X29495714Y-27332380D01*
X29686190Y-27332380D01*
X29781428Y-27284761D01*
X29829047Y-27237142D01*
X29876666Y-27141904D01*
X29876666Y-26903809D01*
X29829047Y-26808571D01*
X29781428Y-26760952D01*
X29686190Y-26713333D01*
X29495714Y-26713333D01*
X29400476Y-26760952D01*
X29352857Y-26808571D01*
X29305238Y-26903809D01*
%TO.C,J5*%
X28876666Y-91952380D02*
X28876666Y-92666666D01*
X28829047Y-92809523D01*
X28733809Y-92904761D01*
X28590952Y-92952380D01*
X28495714Y-92952380D01*
X29829047Y-91952380D02*
X29352857Y-91952380D01*
X29305238Y-92428571D01*
X29352857Y-92380952D01*
X29448095Y-92333333D01*
X29686190Y-92333333D01*
X29781428Y-92380952D01*
X29829047Y-92428571D01*
X29876666Y-92523809D01*
X29876666Y-92761904D01*
X29829047Y-92857142D01*
X29781428Y-92904761D01*
X29686190Y-92952380D01*
X29448095Y-92952380D01*
X29352857Y-92904761D01*
X29305238Y-92857142D01*
%TO.C,J4*%
X55546666Y-26332380D02*
X55546666Y-27046666D01*
X55499047Y-27189523D01*
X55403809Y-27284761D01*
X55260952Y-27332380D01*
X55165714Y-27332380D01*
X56451428Y-26665714D02*
X56451428Y-27332380D01*
X56213333Y-26284761D02*
X55975238Y-26999047D01*
X56594285Y-26999047D01*
%TO.C,J3*%
X55546666Y-91952380D02*
X55546666Y-92666666D01*
X55499047Y-92809523D01*
X55403809Y-92904761D01*
X55260952Y-92952380D01*
X55165714Y-92952380D01*
X55927619Y-91952380D02*
X56546666Y-91952380D01*
X56213333Y-92333333D01*
X56356190Y-92333333D01*
X56451428Y-92380952D01*
X56499047Y-92428571D01*
X56546666Y-92523809D01*
X56546666Y-92761904D01*
X56499047Y-92857142D01*
X56451428Y-92904761D01*
X56356190Y-92952380D01*
X56070476Y-92952380D01*
X55975238Y-92904761D01*
X55927619Y-92857142D01*
%TO.C,J2*%
X35226666Y-46652380D02*
X35226666Y-47366666D01*
X35179047Y-47509523D01*
X35083809Y-47604761D01*
X34940952Y-47652380D01*
X34845714Y-47652380D01*
X35655238Y-46747619D02*
X35702857Y-46700000D01*
X35798095Y-46652380D01*
X36036190Y-46652380D01*
X36131428Y-46700000D01*
X36179047Y-46747619D01*
X36226666Y-46842857D01*
X36226666Y-46938095D01*
X36179047Y-47080952D01*
X35607619Y-47652380D01*
X36226666Y-47652380D01*
%TO.C,J1*%
X39032380Y-89233333D02*
X39746666Y-89233333D01*
X39889523Y-89280952D01*
X39984761Y-89376190D01*
X40032380Y-89519047D01*
X40032380Y-89614285D01*
X40032380Y-88233333D02*
X40032380Y-88804761D01*
X40032380Y-88519047D02*
X39032380Y-88519047D01*
X39175238Y-88614285D01*
X39270476Y-88709523D01*
X39318095Y-88804761D01*
%TO.C,R8*%
X28012380Y-36639166D02*
X27536190Y-36972500D01*
X28012380Y-37210595D02*
X27012380Y-37210595D01*
X27012380Y-36829642D01*
X27060000Y-36734404D01*
X27107619Y-36686785D01*
X27202857Y-36639166D01*
X27345714Y-36639166D01*
X27440952Y-36686785D01*
X27488571Y-36734404D01*
X27536190Y-36829642D01*
X27536190Y-37210595D01*
X27440952Y-36067738D02*
X27393333Y-36162976D01*
X27345714Y-36210595D01*
X27250476Y-36258214D01*
X27202857Y-36258214D01*
X27107619Y-36210595D01*
X27060000Y-36162976D01*
X27012380Y-36067738D01*
X27012380Y-35877261D01*
X27060000Y-35782023D01*
X27107619Y-35734404D01*
X27202857Y-35686785D01*
X27250476Y-35686785D01*
X27345714Y-35734404D01*
X27393333Y-35782023D01*
X27440952Y-35877261D01*
X27440952Y-36067738D01*
X27488571Y-36162976D01*
X27536190Y-36210595D01*
X27631428Y-36258214D01*
X27821904Y-36258214D01*
X27917142Y-36210595D01*
X27964761Y-36162976D01*
X28012380Y-36067738D01*
X28012380Y-35877261D01*
X27964761Y-35782023D01*
X27917142Y-35734404D01*
X27821904Y-35686785D01*
X27631428Y-35686785D01*
X27536190Y-35734404D01*
X27488571Y-35782023D01*
X27440952Y-35877261D01*
%TO.C,R7*%
X31312380Y-40449166D02*
X30836190Y-40782500D01*
X31312380Y-41020595D02*
X30312380Y-41020595D01*
X30312380Y-40639642D01*
X30360000Y-40544404D01*
X30407619Y-40496785D01*
X30502857Y-40449166D01*
X30645714Y-40449166D01*
X30740952Y-40496785D01*
X30788571Y-40544404D01*
X30836190Y-40639642D01*
X30836190Y-41020595D01*
X30312380Y-40115833D02*
X30312380Y-39449166D01*
X31312380Y-39877738D01*
%TO.C,R6*%
X31312380Y-81804166D02*
X30836190Y-82137500D01*
X31312380Y-82375595D02*
X30312380Y-82375595D01*
X30312380Y-81994642D01*
X30360000Y-81899404D01*
X30407619Y-81851785D01*
X30502857Y-81804166D01*
X30645714Y-81804166D01*
X30740952Y-81851785D01*
X30788571Y-81899404D01*
X30836190Y-81994642D01*
X30836190Y-82375595D01*
X30312380Y-80947023D02*
X30312380Y-81137500D01*
X30360000Y-81232738D01*
X30407619Y-81280357D01*
X30550476Y-81375595D01*
X30740952Y-81423214D01*
X31121904Y-81423214D01*
X31217142Y-81375595D01*
X31264761Y-81327976D01*
X31312380Y-81232738D01*
X31312380Y-81042261D01*
X31264761Y-80947023D01*
X31217142Y-80899404D01*
X31121904Y-80851785D01*
X30883809Y-80851785D01*
X30788571Y-80899404D01*
X30740952Y-80947023D01*
X30693333Y-81042261D01*
X30693333Y-81232738D01*
X30740952Y-81327976D01*
X30788571Y-81375595D01*
X30883809Y-81423214D01*
%TO.C,R5*%
X54682380Y-37909166D02*
X54206190Y-38242500D01*
X54682380Y-38480595D02*
X53682380Y-38480595D01*
X53682380Y-38099642D01*
X53730000Y-38004404D01*
X53777619Y-37956785D01*
X53872857Y-37909166D01*
X54015714Y-37909166D01*
X54110952Y-37956785D01*
X54158571Y-38004404D01*
X54206190Y-38099642D01*
X54206190Y-38480595D01*
X53682380Y-37004404D02*
X53682380Y-37480595D01*
X54158571Y-37528214D01*
X54110952Y-37480595D01*
X54063333Y-37385357D01*
X54063333Y-37147261D01*
X54110952Y-37052023D01*
X54158571Y-37004404D01*
X54253809Y-36956785D01*
X54491904Y-36956785D01*
X54587142Y-37004404D01*
X54634761Y-37052023D01*
X54682380Y-37147261D01*
X54682380Y-37385357D01*
X54634761Y-37480595D01*
X54587142Y-37528214D01*
%TO.C,R4*%
X28012380Y-77636666D02*
X27536190Y-77970000D01*
X28012380Y-78208095D02*
X27012380Y-78208095D01*
X27012380Y-77827142D01*
X27060000Y-77731904D01*
X27107619Y-77684285D01*
X27202857Y-77636666D01*
X27345714Y-77636666D01*
X27440952Y-77684285D01*
X27488571Y-77731904D01*
X27536190Y-77827142D01*
X27536190Y-78208095D01*
X27345714Y-76779523D02*
X28012380Y-76779523D01*
X26964761Y-77017619D02*
X27679047Y-77255714D01*
X27679047Y-76636666D01*
%TO.C,R3*%
X57982380Y-41719166D02*
X57506190Y-42052500D01*
X57982380Y-42290595D02*
X56982380Y-42290595D01*
X56982380Y-41909642D01*
X57030000Y-41814404D01*
X57077619Y-41766785D01*
X57172857Y-41719166D01*
X57315714Y-41719166D01*
X57410952Y-41766785D01*
X57458571Y-41814404D01*
X57506190Y-41909642D01*
X57506190Y-42290595D01*
X56982380Y-41385833D02*
X56982380Y-40766785D01*
X57363333Y-41100119D01*
X57363333Y-40957261D01*
X57410952Y-40862023D01*
X57458571Y-40814404D01*
X57553809Y-40766785D01*
X57791904Y-40766785D01*
X57887142Y-40814404D01*
X57934761Y-40862023D01*
X57982380Y-40957261D01*
X57982380Y-41242976D01*
X57934761Y-41338214D01*
X57887142Y-41385833D01*
%TO.C,D1*%
X56262380Y-59158095D02*
X55262380Y-59158095D01*
X55262380Y-58920000D01*
X55310000Y-58777142D01*
X55405238Y-58681904D01*
X55500476Y-58634285D01*
X55690952Y-58586666D01*
X55833809Y-58586666D01*
X56024285Y-58634285D01*
X56119523Y-58681904D01*
X56214761Y-58777142D01*
X56262380Y-58920000D01*
X56262380Y-59158095D01*
X56262380Y-57634285D02*
X56262380Y-58205714D01*
X56262380Y-57920000D02*
X55262380Y-57920000D01*
X55405238Y-58015238D01*
X55500476Y-58110476D01*
X55548095Y-58205714D01*
X55692380Y-53601904D02*
X54692380Y-53601904D01*
X55692380Y-53030476D02*
X55120952Y-53459047D01*
X54692380Y-53030476D02*
X55263809Y-53601904D01*
%TO.C,C3*%
X42223333Y-74117142D02*
X42175714Y-74164761D01*
X42032857Y-74212380D01*
X41937619Y-74212380D01*
X41794761Y-74164761D01*
X41699523Y-74069523D01*
X41651904Y-73974285D01*
X41604285Y-73783809D01*
X41604285Y-73640952D01*
X41651904Y-73450476D01*
X41699523Y-73355238D01*
X41794761Y-73260000D01*
X41937619Y-73212380D01*
X42032857Y-73212380D01*
X42175714Y-73260000D01*
X42223333Y-73307619D01*
X42556666Y-73212380D02*
X43175714Y-73212380D01*
X42842380Y-73593333D01*
X42985238Y-73593333D01*
X43080476Y-73640952D01*
X43128095Y-73688571D01*
X43175714Y-73783809D01*
X43175714Y-74021904D01*
X43128095Y-74117142D01*
X43080476Y-74164761D01*
X42985238Y-74212380D01*
X42699523Y-74212380D01*
X42604285Y-74164761D01*
X42556666Y-74117142D01*
%TO.C,R2*%
X57982380Y-81446666D02*
X57506190Y-81780000D01*
X57982380Y-82018095D02*
X56982380Y-82018095D01*
X56982380Y-81637142D01*
X57030000Y-81541904D01*
X57077619Y-81494285D01*
X57172857Y-81446666D01*
X57315714Y-81446666D01*
X57410952Y-81494285D01*
X57458571Y-81541904D01*
X57506190Y-81637142D01*
X57506190Y-82018095D01*
X57077619Y-81065714D02*
X57030000Y-81018095D01*
X56982380Y-80922857D01*
X56982380Y-80684761D01*
X57030000Y-80589523D01*
X57077619Y-80541904D01*
X57172857Y-80494285D01*
X57268095Y-80494285D01*
X57410952Y-80541904D01*
X57982380Y-81113333D01*
X57982380Y-80494285D01*
%TO.C,R1*%
X54682380Y-77279166D02*
X54206190Y-77612500D01*
X54682380Y-77850595D02*
X53682380Y-77850595D01*
X53682380Y-77469642D01*
X53730000Y-77374404D01*
X53777619Y-77326785D01*
X53872857Y-77279166D01*
X54015714Y-77279166D01*
X54110952Y-77326785D01*
X54158571Y-77374404D01*
X54206190Y-77469642D01*
X54206190Y-77850595D01*
X54682380Y-76326785D02*
X54682380Y-76898214D01*
X54682380Y-76612500D02*
X53682380Y-76612500D01*
X53825238Y-76707738D01*
X53920476Y-76802976D01*
X53968095Y-76898214D01*
%TD*%
M02*
