%TF.GenerationSoftware,KiCad,Pcbnew,5.1.7-a382d34a8~88~ubuntu18.04.1*%
%TF.CreationDate,2021-04-15T09:54:52+03:00*%
%TF.ProjectId,quadimodo_pcb,71756164-696d-46f6-946f-5f7063622e6b,rev?*%
%TF.SameCoordinates,Original*%
%TF.FileFunction,Copper,L2,Bot*%
%TF.FilePolarity,Positive*%
%FSLAX46Y46*%
G04 Gerber Fmt 4.6, Leading zero omitted, Abs format (unit mm)*
G04 Created by KiCad (PCBNEW 5.1.7-a382d34a8~88~ubuntu18.04.1) date 2021-04-15 09:54:52*
%MOMM*%
%LPD*%
G01*
G04 APERTURE LIST*
%TA.AperFunction,ComponentPad*%
%ADD10O,1.700000X1.700000*%
%TD*%
%TA.AperFunction,ComponentPad*%
%ADD11R,1.700000X1.700000*%
%TD*%
%TA.AperFunction,ComponentPad*%
%ADD12O,1.600000X2.000000*%
%TD*%
%TA.AperFunction,ComponentPad*%
%ADD13R,2.000000X2.000000*%
%TD*%
%TA.AperFunction,ComponentPad*%
%ADD14C,2.000000*%
%TD*%
%TA.AperFunction,ComponentPad*%
%ADD15O,1.800000X1.800000*%
%TD*%
%TA.AperFunction,ComponentPad*%
%ADD16R,1.800000X1.800000*%
%TD*%
%TA.AperFunction,ViaPad*%
%ADD17C,0.800000*%
%TD*%
%TA.AperFunction,Conductor*%
%ADD18C,0.250000*%
%TD*%
%TA.AperFunction,Conductor*%
%ADD19C,0.780000*%
%TD*%
%TA.AperFunction,Conductor*%
%ADD20C,1.270000*%
%TD*%
G04 APERTURE END LIST*
D10*
%TO.P,J7,2*%
%TO.N,GND*%
X44450000Y-29210000D03*
D11*
%TO.P,J7,1*%
%TO.N,Net-(C4-Pad2)*%
X41910000Y-29210000D03*
%TD*%
D12*
%TO.P,U1,16*%
%TO.N,Net-(U1-Pad16)*%
X53340000Y-69850000D03*
%TO.P,U1,15*%
%TO.N,Net-(U1-Pad15)*%
X50800000Y-69850000D03*
%TO.P,U1,14*%
%TO.N,Net-(J2-Pad3)*%
X48260000Y-69850000D03*
%TO.P,U1,13*%
%TO.N,Net-(J2-Pad4)*%
X45720000Y-69850000D03*
%TO.P,U1,12*%
%TO.N,Net-(J2-Pad2)*%
X43180000Y-69850000D03*
%TO.P,U1,11*%
%TO.N,Net-(U1-Pad11)*%
X40640000Y-69850000D03*
%TO.P,U1,10*%
%TO.N,GND*%
X38100000Y-69850000D03*
%TO.P,U1,9*%
%TO.N,Net-(C1-Pad1)*%
X35560000Y-69850000D03*
%TO.P,U1,8*%
%TO.N,Net-(J2-Pad1)*%
X35560000Y-46990000D03*
%TO.P,U1,7*%
%TO.N,Net-(R4-Pad2)*%
X38100000Y-46990000D03*
%TO.P,U1,6*%
%TO.N,Net-(R7-Pad2)*%
X40640000Y-46990000D03*
%TO.P,U1,5*%
%TO.N,Net-(R1-Pad2)*%
X43180000Y-46990000D03*
%TO.P,U1,4*%
%TO.N,Net-(R3-Pad2)*%
X45720000Y-46990000D03*
%TO.P,U1,3*%
%TO.N,Net-(U1-Pad3)*%
X48260000Y-46990000D03*
D13*
%TO.P,U1,1*%
%TO.N,Net-(U1-Pad1)*%
X53340000Y-46990000D03*
D12*
%TO.P,U1,2*%
%TO.N,Net-(U1-Pad2)*%
X50800000Y-46990000D03*
%TD*%
D14*
%TO.P,C1,2*%
%TO.N,GND*%
X44140000Y-36830000D03*
D13*
%TO.P,C1,1*%
%TO.N,Net-(C1-Pad1)*%
X40640000Y-36830000D03*
%TD*%
D10*
%TO.P,J6,2*%
%TO.N,Net-(C7-Pad1)*%
X29210000Y-31750000D03*
D11*
%TO.P,J6,1*%
%TO.N,Net-(C4-Pad2)*%
X29210000Y-29210000D03*
%TD*%
D10*
%TO.P,J5,2*%
%TO.N,Net-(C6-Pad1)*%
X29210000Y-87630000D03*
D11*
%TO.P,J5,1*%
%TO.N,Net-(C4-Pad2)*%
X29210000Y-90170000D03*
%TD*%
D10*
%TO.P,J4,2*%
%TO.N,Net-(C5-Pad1)*%
X55880000Y-31750000D03*
D11*
%TO.P,J4,1*%
%TO.N,Net-(C4-Pad2)*%
X55880000Y-29210000D03*
%TD*%
D10*
%TO.P,J3,2*%
%TO.N,Net-(C4-Pad1)*%
X55880000Y-87630000D03*
D11*
%TO.P,J3,1*%
%TO.N,Net-(C4-Pad2)*%
X55880000Y-90170000D03*
%TD*%
D10*
%TO.P,J2,4*%
%TO.N,Net-(J2-Pad4)*%
X35560000Y-57150000D03*
%TO.P,J2,3*%
%TO.N,Net-(J2-Pad3)*%
X35560000Y-54610000D03*
%TO.P,J2,2*%
%TO.N,Net-(J2-Pad2)*%
X35560000Y-52070000D03*
D11*
%TO.P,J2,1*%
%TO.N,Net-(J2-Pad1)*%
X35560000Y-49530000D03*
%TD*%
D10*
%TO.P,J1,2*%
%TO.N,GND*%
X44450000Y-88900000D03*
D11*
%TO.P,J1,1*%
%TO.N,Net-(C4-Pad2)*%
X41910000Y-88900000D03*
%TD*%
D15*
%TO.P,D1,2*%
%TO.N,Net-(C4-Pad2)*%
X53340000Y-63500000D03*
D16*
%TO.P,D1,1*%
%TO.N,Net-(C1-Pad1)*%
X53340000Y-53340000D03*
%TD*%
D14*
%TO.P,C3,2*%
%TO.N,GND*%
X44140000Y-80010000D03*
D13*
%TO.P,C3,1*%
%TO.N,Net-(C1-Pad1)*%
X40640000Y-80010000D03*
%TD*%
D17*
%TO.N,Net-(R1-Pad2)*%
X55880000Y-49530000D03*
%TO.N,Net-(C1-Pad1)*%
X41765010Y-53484990D03*
%TO.N,Net-(J2-Pad1)*%
X50800000Y-83820000D03*
%TO.N,Net-(J2-Pad2)*%
X43180000Y-59690000D03*
%TO.N,Net-(C4-Pad2)*%
X58420000Y-63500000D03*
%TO.N,Net-(R9-Pad2)*%
X53340000Y-77470000D03*
X53340000Y-72390000D03*
%TO.N,Net-(JP2-Pad2)*%
X54610000Y-73660000D03*
X57150000Y-73660000D03*
%TD*%
D18*
%TO.N,Net-(R1-Pad2)*%
X55880000Y-49530000D02*
X43180000Y-49530000D01*
X43180000Y-49530000D02*
X43180000Y-46990000D01*
%TO.N,GND*%
X44450000Y-36830000D02*
X44140000Y-36830000D01*
X44140000Y-80010000D02*
X44140000Y-79050000D01*
X44140000Y-79050000D02*
X44140000Y-77780000D01*
X44140000Y-77780000D02*
X44140000Y-75890000D01*
X44140000Y-75890000D02*
X38100000Y-69850000D01*
%TO.N,Net-(C1-Pad1)*%
X53340000Y-53340000D02*
X41910000Y-53340000D01*
X41910000Y-53340000D02*
X41765010Y-53484990D01*
%TO.N,Net-(J2-Pad4)*%
X35560000Y-57150000D02*
X35560000Y-58420000D01*
X35560000Y-59690000D02*
X45720000Y-69850000D01*
X35560000Y-57150000D02*
X35560000Y-59690000D01*
%TO.N,Net-(J2-Pad3)*%
X48260000Y-67310000D02*
X48260000Y-69850000D01*
X35560000Y-54610000D02*
X48260000Y-67310000D01*
%TO.N,Net-(J2-Pad1)*%
X33020000Y-49530000D02*
X35560000Y-46990000D01*
X50800000Y-83820000D02*
X33020000Y-83820000D01*
X33020000Y-83820000D02*
X33020000Y-49530000D01*
%TO.N,Net-(J2-Pad2)*%
X35560000Y-52070000D02*
X43180000Y-59690000D01*
D19*
%TO.N,Net-(C4-Pad2)*%
X29210000Y-90170000D02*
X29210000Y-92710000D01*
X55880000Y-92710000D02*
X55880000Y-90170000D01*
X26670000Y-29210000D02*
X29210000Y-29210000D01*
X55880000Y-26670000D02*
X55880000Y-29210000D01*
D18*
X58420000Y-92710000D02*
X55880000Y-92710000D01*
X53340000Y-63500000D02*
X58420000Y-63500000D01*
X58420000Y-63500000D02*
X58420000Y-92710000D01*
D20*
X26670000Y-26670000D02*
X26670000Y-45720000D01*
X26670000Y-45720000D02*
X29210000Y-45720000D01*
X29210000Y-45720000D02*
X29210000Y-71120000D01*
X29210000Y-71120000D02*
X26670000Y-71120000D01*
X26670000Y-71120000D02*
X26670000Y-92710000D01*
X41910000Y-88900000D02*
X41910000Y-92710000D01*
X26670000Y-92710000D02*
X41910000Y-92710000D01*
X41910000Y-92710000D02*
X55880000Y-92710000D01*
X41910000Y-29210000D02*
X41910000Y-26670000D01*
X55880000Y-26670000D02*
X41910000Y-26670000D01*
X41910000Y-26670000D02*
X26670000Y-26670000D01*
D18*
%TO.N,Net-(R9-Pad2)*%
X53340000Y-77470000D02*
X53340000Y-72390000D01*
%TO.N,Net-(JP2-Pad2)*%
X54610000Y-73660000D02*
X57150000Y-73660000D01*
%TD*%
M02*
