M48
; DRILL file {KiCad 5.1.7-a382d34a8~88~ubuntu18.04.1} date Thu Apr 15 10:21:54 2021
; FORMAT={-:-/ absolute / inch / decimal}
; #@! TF.CreationDate,2021-04-15T10:21:54+03:00
; #@! TF.GenerationSoftware,Kicad,Pcbnew,5.1.7-a382d34a8~88~ubuntu18.04.1
FMAT,2
INCH
T1C0.0157
T2C0.0354
T3C0.0394
%
G90
G05
T1
X1.6443Y-2.1057
X1.7Y-2.35
X2.0Y-3.3
X2.1Y-2.85
X2.1Y-3.05
X2.15Y-2.9
X2.2Y-1.95
X2.25Y-2.9
X2.3Y-2.5
T2
X2.1Y-2.1
X2.1Y-2.5
T3
X1.6Y-1.45
X1.7378Y-1.45
X2.2Y-3.45
X2.2Y-3.55
X1.6Y-3.15
X1.7378Y-3.15
X1.65Y-3.5
X1.75Y-3.5
X2.2Y-1.15
X2.2Y-1.25
X1.4Y-1.95
X1.4Y-2.05
X1.4Y-2.15
X1.4Y-2.25
X1.15Y-3.45
X1.15Y-3.55
X1.65Y-1.15
X1.75Y-1.15
X1.15Y-1.15
X1.15Y-1.25
X1.4Y-1.85
X1.4Y-2.75
X1.5Y-1.85
X1.5Y-2.75
X1.6Y-1.85
X1.6Y-2.75
X1.7Y-1.85
X1.7Y-2.75
X1.8Y-1.85
X1.8Y-2.75
X1.9Y-1.85
X1.9Y-2.75
X2.0Y-1.85
X2.0Y-2.75
X2.1Y-1.85
X2.1Y-2.75
T0
M30
